<ttFont>
    <TTGlyph name="A" xMin="2" yMin="0" xMax="668" yMax="710">
      <contour>
        <pt x="261" y="710" on="1"/>
        <pt x="409" y="710" on="1"/>
        <pt x="668" y="0" on="1"/>
        <pt x="500" y="0" on="1"/>
        <pt x="445" y="159" on="1"/>
        <pt x="224" y="159" on="1"/>
        <pt x="170" y="0" on="1"/>
        <pt x="2" y="0" on="1"/>
      </contour>
      <contour>
        <pt x="418" y="272" on="1"/>
        <pt x="335" y="523" on="1"/>
        <pt x="250" y="272" on="1"/>
      </contour>
    </TTGlyph>
    <TTGlyph name="A.sc" xMin="-3" yMin="0" xMax="598" yMax="563">
      <contour>
        <pt x="-3" y="0" on="1"/>
        <pt x="240" y="563" on="1"/>
        <pt x="357" y="563" on="1"/>
        <pt x="598" y="0" on="1"/>
        <pt x="446" y="0" on="1"/>
        <pt x="396" y="118" on="1"/>
        <pt x="199" y="118" on="1"/>
        <pt x="151" y="0" on="1"/>
      </contour>
      <contour>
        <pt x="298" y="389" on="1"/>
        <pt x="230" y="243" on="1"/>
        <pt x="364" y="243" on="1"/>
      </contour>
    </TTGlyph>
    <TTGlyph name="AE" xMin="-26" yMin="0" xMax="936" yMax="710">
      <contour>
        <pt x="412" y="710" on="1"/>
        <pt x="927" y="710" on="1"/>
        <pt x="927" y="566" on="1"/>
        <pt x="618" y="566" on="1"/>
        <pt x="618" y="433" on="1"/>
        <pt x="873" y="433" on="1"/>
        <pt x="873" y="290" on="1"/>
        <pt x="618" y="290" on="1"/>
        <pt x="618" y="144" on="1"/>
        <pt x="936" y="144" on="1"/>
        <pt x="936" y="0" on="1"/>
        <pt x="455" y="0" on="1"/>
        <pt x="455" y="159" on="1"/>
        <pt x="240" y="159" on="1"/>
        <pt x="149" y="0" on="1"/>
        <pt x="-26" y="0" on="1"/>
      </contour>
      <contour>
        <pt x="442" y="303" on="1"/>
        <pt x="442" y="527" on="1"/>
        <pt x="309" y="303" on="1"/>
      </contour>
    </TTGlyph>
    <TTGlyph name="AEacute" xMin="-26" yMin="0" xMax="936" yMax="915">
      <contour>
        <pt x="643" y="757" on="1"/>
        <pt x="541" y="785" on="1"/>
        <pt x="593" y="915" on="1"/>
        <pt x="738" y="915" on="1"/>
      </contour>
      <contour>
        <pt x="412" y="710" on="1"/>
        <pt x="927" y="710" on="1"/>
        <pt x="927" y="566" on="1"/>
        <pt x="618" y="566" on="1"/>
        <pt x="618" y="433" on="1"/>
        <pt x="873" y="433" on="1"/>
        <pt x="873" y="290" on="1"/>
        <pt x="618" y="290" on="1"/>
        <pt x="618" y="144" on="1"/>
        <pt x="936" y="144" on="1"/>
        <pt x="936" y="0" on="1"/>
        <pt x="455" y="0" on="1"/>
        <pt x="455" y="159" on="1"/>
        <pt x="240" y="159" on="1"/>
        <pt x="149" y="0" on="1"/>
        <pt x="-26" y="0" on="1"/>
      </contour>
      <contour>
        <pt x="442" y="303" on="1"/>
        <pt x="442" y="527" on="1"/>
        <pt x="309" y="303" on="1"/>
      </contour>
    </TTGlyph>
    <TTGlyph name="Aacute" xMin="2" yMin="0" xMax="668" yMax="915">
      <contour>
        <pt x="261" y="710" on="1"/>
        <pt x="409" y="710" on="1"/>
        <pt x="668" y="0" on="1"/>
        <pt x="500" y="0" on="1"/>
        <pt x="445" y="159" on="1"/>
        <pt x="224" y="159" on="1"/>
        <pt x="170" y="0" on="1"/>
        <pt x="2" y="0" on="1"/>
      </contour>
      <contour>
        <pt x="418" y="272" on="1"/>
        <pt x="335" y="523" on="1"/>
        <pt x="250" y="272" on="1"/>
      </contour>
      <contour>
        <pt x="381" y="757" on="1"/>
        <pt x="279" y="785" on="1"/>
        <pt x="331" y="915" on="1"/>
        <pt x="476" y="915" on="1"/>
      </contour>
    </TTGlyph>
    <TTGlyph name="Abreve" xMin="2" yMin="0" xMax="668" yMax="915">
      <contour>
        <pt x="261" y="710" on="1"/>
        <pt x="409" y="710" on="1"/>
        <pt x="668" y="0" on="1"/>
        <pt x="500" y="0" on="1"/>
        <pt x="445" y="159" on="1"/>
        <pt x="224" y="159" on="1"/>
        <pt x="170" y="0" on="1"/>
        <pt x="2" y="0" on="1"/>
      </contour>
      <contour>
        <pt x="418" y="272" on="1"/>
        <pt x="335" y="523" on="1"/>
        <pt x="250" y="272" on="1"/>
      </contour>
      <contour>
        <pt x="335" y="838" on="1"/>
        <pt x="358" y="838" on="0"/>
        <pt x="393" y="881" on="0"/>
        <pt x="396" y="915" on="1"/>
        <pt x="479" y="915" on="1"/>
        <pt x="479" y="883" on="0"/>
        <pt x="458" y="829" on="0"/>
        <pt x="420" y="790" on="0"/>
        <pt x="367" y="768" on="0"/>
        <pt x="335" y="768" on="1"/>
        <pt x="303" y="768" on="0"/>
        <pt x="251" y="790" on="0"/>
        <pt x="212" y="829" on="0"/>
        <pt x="191" y="883" on="0"/>
        <pt x="191" y="915" on="1"/>
        <pt x="276" y="915" on="1"/>
        <pt x="276" y="883" on="0"/>
        <pt x="311" y="838" on="0"/>
      </contour>
    </TTGlyph>
    <TTGlyph name="Acircumflex" xMin="2" yMin="0" xMax="668" yMax="915">
      <contour>
        <pt x="261" y="710" on="1"/>
        <pt x="409" y="710" on="1"/>
        <pt x="668" y="0" on="1"/>
        <pt x="500" y="0" on="1"/>
        <pt x="445" y="159" on="1"/>
        <pt x="224" y="159" on="1"/>
        <pt x="170" y="0" on="1"/>
        <pt x="2" y="0" on="1"/>
      </contour>
      <contour>
        <pt x="418" y="272" on="1"/>
        <pt x="335" y="523" on="1"/>
        <pt x="250" y="272" on="1"/>
      </contour>
      <contour>
        <pt x="168" y="807" on="1"/>
        <pt x="278" y="915" on="1"/>
        <pt x="393" y="915" on="1"/>
        <pt x="502" y="807" on="1"/>
        <pt x="420" y="771" on="1"/>
        <pt x="335" y="834" on="1"/>
        <pt x="250" y="771" on="1"/>
      </contour>
    </TTGlyph>
    <TTGlyph name="Adblgrave" xMin="2" yMin="0" xMax="668" yMax="916">
      <contour>
        <pt x="261" y="710" on="1"/>
        <pt x="409" y="710" on="1"/>
        <pt x="668" y="0" on="1"/>
        <pt x="500" y="0" on="1"/>
        <pt x="445" y="159" on="1"/>
        <pt x="224" y="159" on="1"/>
        <pt x="170" y="0" on="1"/>
        <pt x="2" y="0" on="1"/>
      </contour>
      <contour>
        <pt x="418" y="272" on="1"/>
        <pt x="335" y="523" on="1"/>
        <pt x="250" y="272" on="1"/>
      </contour>
      <contour>
        <pt x="318" y="916" on="1"/>
        <pt x="439" y="916" on="1"/>
        <pt x="483" y="786" on="1"/>
        <pt x="406" y="758" on="1"/>
      </contour>
      <contour>
        <pt x="144" y="916" on="1"/>
        <pt x="264" y="916" on="1"/>
        <pt x="309" y="786" on="1"/>
        <pt x="231" y="758" on="1"/>
      </contour>
    </TTGlyph>
    <TTGlyph name="Adieresis" xMin="2" yMin="0" xMax="668" yMax="908">
      <contour>
        <pt x="261" y="710" on="1"/>
        <pt x="409" y="710" on="1"/>
        <pt x="668" y="0" on="1"/>
        <pt x="500" y="0" on="1"/>
        <pt x="445" y="159" on="1"/>
        <pt x="224" y="159" on="1"/>
        <pt x="170" y="0" on="1"/>
        <pt x="2" y="0" on="1"/>
      </contour>
      <contour>
        <pt x="418" y="272" on="1"/>
        <pt x="335" y="523" on="1"/>
        <pt x="250" y="272" on="1"/>
      </contour>
      <contour>
        <pt x="165" y="779" on="1"/>
        <pt x="165" y="908" on="1"/>
        <pt x="297" y="908" on="1"/>
        <pt x="297" y="779" on="1"/>
      </contour>
      <contour>
        <pt x="375" y="779" on="1"/>
        <pt x="375" y="908" on="1"/>
        <pt x="507" y="908" on="1"/>
        <pt x="507" y="779" on="1"/>
      </contour>
    </TTGlyph>
    <TTGlyph name="Agrave" xMin="2" yMin="0" xMax="668" yMax="916">
      <contour>
        <pt x="261" y="710" on="1"/>
        <pt x="409" y="710" on="1"/>
        <pt x="668" y="0" on="1"/>
        <pt x="500" y="0" on="1"/>
        <pt x="445" y="159" on="1"/>
        <pt x="224" y="159" on="1"/>
        <pt x="170" y="0" on="1"/>
        <pt x="2" y="0" on="1"/>
      </contour>
      <contour>
        <pt x="418" y="272" on="1"/>
        <pt x="335" y="523" on="1"/>
        <pt x="250" y="272" on="1"/>
      </contour>
      <contour>
        <pt x="194" y="916" on="1"/>
        <pt x="339" y="916" on="1"/>
        <pt x="391" y="786" on="1"/>
        <pt x="290" y="758" on="1"/>
      </contour>
    </TTGlyph>
    <TTGlyph name="Ainvertedbreve" xMin="2" yMin="0" xMax="668" yMax="915">
      <contour>
        <pt x="261" y="710" on="1"/>
        <pt x="409" y="710" on="1"/>
        <pt x="668" y="0" on="1"/>
        <pt x="500" y="0" on="1"/>
        <pt x="445" y="159" on="1"/>
        <pt x="224" y="159" on="1"/>
        <pt x="170" y="0" on="1"/>
        <pt x="2" y="0" on="1"/>
      </contour>
      <contour>
        <pt x="418" y="272" on="1"/>
        <pt x="335" y="523" on="1"/>
        <pt x="250" y="272" on="1"/>
      </contour>
      <contour>
        <pt x="335" y="845" on="1"/>
        <pt x="311" y="845" on="0"/>
        <pt x="276" y="800" on="0"/>
        <pt x="276" y="768" on="1"/>
        <pt x="191" y="768" on="1"/>
        <pt x="191" y="800" on="0"/>
        <pt x="212" y="854" on="0"/>
        <pt x="251" y="893" on="0"/>
        <pt x="303" y="915" on="0"/>
        <pt x="335" y="915" on="1"/>
        <pt x="367" y="915" on="0"/>
        <pt x="420" y="893" on="0"/>
        <pt x="458" y="854" on="0"/>
        <pt x="479" y="800" on="0"/>
        <pt x="479" y="768" on="1"/>
        <pt x="396" y="768" on="1"/>
        <pt x="393" y="802" on="0"/>
        <pt x="358" y="845" on="0"/>
      </contour>
    </TTGlyph>
    <TTGlyph name="Amacron" xMin="2" yMin="0" xMax="668" yMax="903">
      <contour>
        <pt x="261" y="710" on="1"/>
        <pt x="409" y="710" on="1"/>
        <pt x="668" y="0" on="1"/>
        <pt x="500" y="0" on="1"/>
        <pt x="445" y="159" on="1"/>
        <pt x="224" y="159" on="1"/>
        <pt x="170" y="0" on="1"/>
        <pt x="2" y="0" on="1"/>
      </contour>
      <contour>
        <pt x="418" y="272" on="1"/>
        <pt x="335" y="523" on="1"/>
        <pt x="250" y="272" on="1"/>
      </contour>
      <contour>
        <pt x="184" y="806" on="1"/>
        <pt x="184" y="903" on="1"/>
        <pt x="488" y="903" on="1"/>
        <pt x="488" y="806" on="1"/>
      </contour>
    </TTGlyph>
    <TTGlyph name="Aogonek" xMin="2" yMin="-205" xMax="668" yMax="710">
      <contour>
        <pt x="627" y="-205" on="1"/>
        <pt x="560" y="-197" on="0"/>
        <pt x="495" y="-145" on="0"/>
        <pt x="495" y="-112" on="1"/>
        <pt x="495" y="-83" on="0"/>
        <pt x="537" y="-26" on="0"/>
        <pt x="579" y="0" on="1"/>
        <pt x="500" y="0" on="1"/>
        <pt x="445" y="159" on="1"/>
        <pt x="224" y="159" on="1"/>
        <pt x="170" y="0" on="1"/>
        <pt x="2" y="0" on="1"/>
        <pt x="261" y="710" on="1"/>
        <pt x="409" y="710" on="1"/>
        <pt x="668" y="0" on="1"/>
        <pt x="593" y="-45" on="0"/>
        <pt x="593" y="-82" on="1"/>
        <pt x="593" y="-99" on="0"/>
        <pt x="625" y="-120" on="0"/>
        <pt x="658" y="-121" on="1"/>
      </contour>
      <contour>
        <pt x="418" y="272" on="1"/>
        <pt x="335" y="523" on="1"/>
        <pt x="250" y="272" on="1"/>
      </contour>
    </TTGlyph>
    <TTGlyph name="Aring" xMin="2" yMin="0" xMax="668" yMax="915">
      <contour>
        <pt x="261" y="710" on="1"/>
        <pt x="409" y="710" on="1"/>
        <pt x="668" y="0" on="1"/>
        <pt x="500" y="0" on="1"/>
        <pt x="445" y="159" on="1"/>
        <pt x="224" y="159" on="1"/>
        <pt x="170" y="0" on="1"/>
        <pt x="2" y="0" on="1"/>
      </contour>
      <contour>
        <pt x="418" y="272" on="1"/>
        <pt x="335" y="523" on="1"/>
        <pt x="250" y="272" on="1"/>
      </contour>
      <contour>
        <pt x="228" y="833" on="1"/>
        <pt x="228" y="874" on="0"/>
        <pt x="287" y="915" on="0"/>
        <pt x="335" y="915" on="1"/>
        <pt x="383" y="915" on="0"/>
        <pt x="441" y="874" on="0"/>
        <pt x="441" y="833" on="1"/>
        <pt x="441" y="793" on="0"/>
        <pt x="383" y="752" on="0"/>
        <pt x="335" y="752" on="1"/>
        <pt x="287" y="752" on="0"/>
        <pt x="228" y="793" on="0"/>
      </contour>
      <contour>
        <pt x="335" y="868" on="1"/>
        <pt x="318" y="868" on="0"/>
        <pt x="295" y="849" on="0"/>
        <pt x="295" y="834" on="1"/>
        <pt x="295" y="819" on="0"/>
        <pt x="318" y="799" on="0"/>
        <pt x="335" y="799" on="1"/>
        <pt x="351" y="799" on="0"/>
        <pt x="375" y="818" on="0"/>
        <pt x="375" y="834" on="1"/>
        <pt x="375" y="849" on="0"/>
        <pt x="352" y="868" on="0"/>
      </contour>
    </TTGlyph>
    <TTGlyph name="Aringacute" xMin="2" yMin="0" xMax="668" yMax="918">
      <contour>
        <pt x="413" y="804" on="1"/>
        <pt x="441" y="784" on="0"/>
        <pt x="441" y="744" on="1"/>
        <pt x="441" y="709" on="0"/>
        <pt x="417" y="687" on="1"/>
        <pt x="668" y="0" on="1"/>
        <pt x="500" y="0" on="1"/>
        <pt x="445" y="159" on="1"/>
        <pt x="224" y="159" on="1"/>
        <pt x="170" y="0" on="1"/>
        <pt x="2" y="0" on="1"/>
        <pt x="252" y="687" on="1"/>
        <pt x="228" y="706" on="0"/>
        <pt x="228" y="744" on="1"/>
        <pt x="228" y="777" on="0"/>
        <pt x="267" y="816" on="0"/>
        <pt x="301" y="823" on="1"/>
        <pt x="344" y="918" on="1"/>
        <pt x="489" y="918" on="1"/>
      </contour>
      <contour>
        <pt x="418" y="272" on="1"/>
        <pt x="335" y="523" on="1"/>
        <pt x="250" y="272" on="1"/>
      </contour>
      <contour>
        <pt x="335" y="779" on="1"/>
        <pt x="318" y="779" on="0"/>
        <pt x="295" y="760" on="0"/>
        <pt x="295" y="745" on="1"/>
        <pt x="295" y="730" on="0"/>
        <pt x="318" y="710" on="0"/>
        <pt x="335" y="710" on="1"/>
        <pt x="351" y="710" on="0"/>
        <pt x="375" y="729" on="0"/>
        <pt x="375" y="745" on="1"/>
        <pt x="375" y="760" on="0"/>
        <pt x="352" y="779" on="0"/>
      </contour>
    </TTGlyph>
    <TTGlyph name="Atilde" xMin="2" yMin="0" xMax="668" yMax="915">
      <contour>
        <pt x="261" y="710" on="1"/>
        <pt x="409" y="710" on="1"/>
        <pt x="668" y="0" on="1"/>
        <pt x="500" y="0" on="1"/>
        <pt x="445" y="159" on="1"/>
        <pt x="224" y="159" on="1"/>
        <pt x="170" y="0" on="1"/>
        <pt x="2" y="0" on="1"/>
      </contour>
      <contour>
        <pt x="418" y="272" on="1"/>
        <pt x="335" y="523" on="1"/>
        <pt x="250" y="272" on="1"/>
      </contour>
      <contour>
        <pt x="399" y="773" on="1"/>
        <pt x="376" y="773" on="0"/>
        <pt x="341" y="787" on="0"/>
        <pt x="311" y="805" on="0"/>
        <pt x="283" y="819" on="0"/>
        <pt x="266" y="819" on="1"/>
        <pt x="249" y="819" on="0"/>
        <pt x="231" y="805" on="0"/>
        <pt x="221" y="787" on="0"/>
        <pt x="219" y="772" on="0"/>
        <pt x="219" y="771" on="1"/>
        <pt x="133" y="771" on="1"/>
        <pt x="133" y="782" on="0"/>
        <pt x="146" y="829" on="0"/>
        <pt x="176" y="877" on="0"/>
        <pt x="225" y="913" on="0"/>
        <pt x="260" y="913" on="1"/>
        <pt x="284" y="913" on="0"/>
        <pt x="318" y="898" on="0"/>
        <pt x="347" y="880" on="0"/>
        <pt x="375" y="865" on="0"/>
        <pt x="393" y="865" on="1"/>
        <pt x="410" y="865" on="0"/>
        <pt x="431" y="880" on="0"/>
        <pt x="442" y="898" on="0"/>
        <pt x="445" y="914" on="0"/>
        <pt x="445" y="915" on="1"/>
        <pt x="531" y="915" on="1"/>
        <pt x="531" y="907" on="0"/>
        <pt x="517" y="861" on="0"/>
        <pt x="486" y="811" on="0"/>
        <pt x="436" y="773" on="0"/>
      </contour>
    </TTGlyph>
    <TTGlyph name="B" xMin="68" yMin="0" xMax="655" yMax="710">
      <contour>
        <pt x="655" y="182" on="1"/>
        <pt x="655" y="136" on="0"/>
        <pt x="617" y="68" on="0"/>
        <pt x="551" y="23" on="0"/>
        <pt x="463" y="0" on="0"/>
        <pt x="414" y="0" on="1"/>
        <pt x="68" y="0" on="1"/>
        <pt x="68" y="710" on="1"/>
        <pt x="463" y="710" on="1"/>
        <pt x="500" y="710" on="0"/>
        <pt x="560" y="678" on="0"/>
        <pt x="602" y="627" on="0"/>
        <pt x="625" y="562" on="0"/>
        <pt x="625" y="528" on="1"/>
        <pt x="625" y="477" on="0"/>
        <pt x="574" y="387" on="0"/>
        <pt x="523" y="364" on="1"/>
        <pt x="584" y="346" on="0"/>
        <pt x="655" y="254" on="0"/>
      </contour>
      <contour>
        <pt x="488" y="215" on="1"/>
        <pt x="488" y="248" on="0"/>
        <pt x="450" y="294" on="0"/>
        <pt x="421" y="294" on="1"/>
        <pt x="232" y="294" on="1"/>
        <pt x="232" y="139" on="1"/>
        <pt x="414" y="139" on="1"/>
        <pt x="446" y="139" on="0"/>
        <pt x="488" y="181" on="0"/>
      </contour>
      <contour>
        <pt x="232" y="570" on="1"/>
        <pt x="232" y="423" on="1"/>
        <pt x="393" y="423" on="1"/>
        <pt x="420" y="423" on="0"/>
        <pt x="462" y="459" on="0"/>
        <pt x="462" y="497" on="1"/>
        <pt x="462" y="532" on="0"/>
        <pt x="425" y="570" on="0"/>
        <pt x="399" y="570" on="1"/>
      </contour>
    </TTGlyph>
    <TTGlyph name="B.sc" xMin="62" yMin="0" xMax="574" yMax="563">
      <contour>
        <pt x="574" y="144" on="1"/>
        <pt x="574" y="107" on="0"/>
        <pt x="540" y="53" on="0"/>
        <pt x="483" y="17" on="0"/>
        <pt x="406" y="0" on="0"/>
        <pt x="363" y="0" on="1"/>
        <pt x="62" y="0" on="1"/>
        <pt x="62" y="563" on="1"/>
        <pt x="406" y="563" on="1"/>
        <pt x="439" y="563" on="0"/>
        <pt x="491" y="538" on="0"/>
        <pt x="527" y="497" on="0"/>
        <pt x="547" y="445" on="0"/>
        <pt x="547" y="418" on="1"/>
        <pt x="547" y="379" on="0"/>
        <pt x="503" y="306" on="0"/>
        <pt x="459" y="289" on="1"/>
        <pt x="512" y="275" on="0"/>
        <pt x="574" y="203" on="0"/>
      </contour>
      <contour>
        <pt x="428" y="174" on="1"/>
        <pt x="428" y="197" on="0"/>
        <pt x="395" y="228" on="0"/>
        <pt x="369" y="228" on="1"/>
        <pt x="206" y="228" on="1"/>
        <pt x="206" y="121" on="1"/>
        <pt x="363" y="121" on="1"/>
        <pt x="390" y="121" on="0"/>
        <pt x="428" y="150" on="0"/>
      </contour>
      <contour>
        <pt x="206" y="440" on="1"/>
        <pt x="206" y="341" on="1"/>
        <pt x="345" y="341" on="1"/>
        <pt x="369" y="341" on="0"/>
        <pt x="405" y="363" on="0"/>
        <pt x="405" y="391" on="1"/>
        <pt x="405" y="417" on="0"/>
        <pt x="373" y="440" on="0"/>
        <pt x="350" y="440" on="1"/>
      </contour>
    </TTGlyph>
    <TTGlyph name="C" xMin="27" yMin="-6" xMax="674" yMax="714">
      <contour>
        <pt x="27" y="361" on="1"/>
        <pt x="27" y="425" on="0"/>
        <pt x="75" y="552" on="0"/>
        <pt x="167" y="652" on="0"/>
        <pt x="299" y="714" on="0"/>
        <pt x="383" y="714" on="1"/>
        <pt x="483" y="714" on="0"/>
        <pt x="630" y="628" on="0"/>
        <pt x="666" y="559" on="1"/>
        <pt x="540" y="471" on="1"/>
        <pt x="528" y="499" on="0"/>
        <pt x="491" y="536" on="0"/>
        <pt x="447" y="559" on="0"/>
        <pt x="401" y="568" on="0"/>
        <pt x="379" y="568" on="1"/>
        <pt x="332" y="568" on="0"/>
        <pt x="262" y="530" on="0"/>
        <pt x="216" y="470" on="0"/>
        <pt x="194" y="394" on="0"/>
        <pt x="194" y="355" on="1"/>
        <pt x="194" y="313" on="0"/>
        <pt x="220" y="235" on="0"/>
        <pt x="269" y="175" on="0"/>
        <pt x="338" y="140" on="0"/>
        <pt x="381" y="140" on="1"/>
        <pt x="403" y="140" on="0"/>
        <pt x="450" y="151" on="0"/>
        <pt x="493" y="174" on="0"/>
        <pt x="529" y="211" on="0"/>
        <pt x="540" y="238" on="1"/>
        <pt x="674" y="159" on="1"/>
        <pt x="658" y="120" on="0"/>
        <pt x="595" y="58" on="0"/>
        <pt x="513" y="16" on="0"/>
        <pt x="421" y="-6" on="0"/>
        <pt x="377" y="-6" on="1"/>
        <pt x="300" y="-6" on="0"/>
        <pt x="171" y="57" on="0"/>
        <pt x="78" y="161" on="0"/>
        <pt x="27" y="293" on="0"/>
      </contour>
    </TTGlyph>
    <TTGlyph name="C.sc" xMin="27" yMin="-5" xMax="576" yMax="566">
      <contour>
        <pt x="27" y="286" on="1"/>
        <pt x="27" y="338" on="0"/>
        <pt x="68" y="438" on="0"/>
        <pt x="146" y="517" on="0"/>
        <pt x="258" y="566" on="0"/>
        <pt x="329" y="566" on="1"/>
        <pt x="414" y="566" on="0"/>
        <pt x="539" y="499" on="0"/>
        <pt x="568" y="443" on="1"/>
        <pt x="458" y="365" on="1"/>
        <pt x="448" y="386" on="0"/>
        <pt x="418" y="415" on="0"/>
        <pt x="382" y="431" on="0"/>
        <pt x="344" y="438" on="0"/>
        <pt x="326" y="438" on="1"/>
        <pt x="287" y="438" on="0"/>
        <pt x="230" y="410" on="0"/>
        <pt x="192" y="366" on="0"/>
        <pt x="173" y="310" on="0"/>
        <pt x="173" y="282" on="1"/>
        <pt x="173" y="250" on="0"/>
        <pt x="195" y="193" on="0"/>
        <pt x="235" y="149" on="0"/>
        <pt x="293" y="123" on="0"/>
        <pt x="328" y="123" on="1"/>
        <pt x="346" y="123" on="0"/>
        <pt x="385" y="131" on="0"/>
        <pt x="420" y="148" on="0"/>
        <pt x="449" y="176" on="0"/>
        <pt x="458" y="196" on="1"/>
        <pt x="576" y="126" on="1"/>
        <pt x="562" y="94" on="0"/>
        <pt x="508" y="46" on="0"/>
        <pt x="439" y="12" on="0"/>
        <pt x="361" y="-5" on="0"/>
        <pt x="324" y="-5" on="1"/>
        <pt x="259" y="-5" on="0"/>
        <pt x="150" y="45" on="0"/>
        <pt x="71" y="128" on="0"/>
        <pt x="27" y="232" on="0"/>
      </contour>
    </TTGlyph>
    <TTGlyph name="Cacute" xMin="27" yMin="-6" xMax="674" yMax="915">
      <contour>
        <pt x="432" y="757" on="1"/>
        <pt x="330" y="785" on="1"/>
        <pt x="382" y="915" on="1"/>
        <pt x="527" y="915" on="1"/>
      </contour>
      <contour>
        <pt x="27" y="361" on="1"/>
        <pt x="27" y="425" on="0"/>
        <pt x="75" y="552" on="0"/>
        <pt x="167" y="652" on="0"/>
        <pt x="299" y="714" on="0"/>
        <pt x="383" y="714" on="1"/>
        <pt x="483" y="714" on="0"/>
        <pt x="630" y="628" on="0"/>
        <pt x="666" y="559" on="1"/>
        <pt x="540" y="471" on="1"/>
        <pt x="528" y="499" on="0"/>
        <pt x="491" y="536" on="0"/>
        <pt x="447" y="559" on="0"/>
        <pt x="401" y="568" on="0"/>
        <pt x="379" y="568" on="1"/>
        <pt x="332" y="568" on="0"/>
        <pt x="262" y="530" on="0"/>
        <pt x="216" y="470" on="0"/>
        <pt x="194" y="394" on="0"/>
        <pt x="194" y="355" on="1"/>
        <pt x="194" y="313" on="0"/>
        <pt x="220" y="235" on="0"/>
        <pt x="269" y="175" on="0"/>
        <pt x="338" y="140" on="0"/>
        <pt x="381" y="140" on="1"/>
        <pt x="403" y="140" on="0"/>
        <pt x="450" y="151" on="0"/>
        <pt x="493" y="174" on="0"/>
        <pt x="529" y="211" on="0"/>
        <pt x="540" y="238" on="1"/>
        <pt x="674" y="159" on="1"/>
        <pt x="658" y="120" on="0"/>
        <pt x="595" y="58" on="0"/>
        <pt x="513" y="16" on="0"/>
        <pt x="421" y="-6" on="0"/>
        <pt x="377" y="-6" on="1"/>
        <pt x="300" y="-6" on="0"/>
        <pt x="171" y="57" on="0"/>
        <pt x="78" y="161" on="0"/>
        <pt x="27" y="293" on="0"/>
      </contour>
    </TTGlyph>
    <TTGlyph name="Ccaron" xMin="27" yMin="-6" xMax="674" yMax="915">
      <contour>
        <pt x="304" y="915" on="1"/>
        <pt x="389" y="852" on="1"/>
        <pt x="474" y="915" on="1"/>
        <pt x="556" y="878" on="1"/>
        <pt x="447" y="771" on="1"/>
        <pt x="332" y="771" on="1"/>
        <pt x="222" y="878" on="1"/>
      </contour>
      <contour>
        <pt x="27" y="361" on="1"/>
        <pt x="27" y="425" on="0"/>
        <pt x="75" y="552" on="0"/>
        <pt x="167" y="652" on="0"/>
        <pt x="299" y="714" on="0"/>
        <pt x="383" y="714" on="1"/>
        <pt x="483" y="714" on="0"/>
        <pt x="630" y="628" on="0"/>
        <pt x="666" y="559" on="1"/>
        <pt x="540" y="471" on="1"/>
        <pt x="528" y="499" on="0"/>
        <pt x="491" y="536" on="0"/>
        <pt x="447" y="559" on="0"/>
        <pt x="401" y="568" on="0"/>
        <pt x="379" y="568" on="1"/>
        <pt x="332" y="568" on="0"/>
        <pt x="262" y="530" on="0"/>
        <pt x="216" y="470" on="0"/>
        <pt x="194" y="394" on="0"/>
        <pt x="194" y="355" on="1"/>
        <pt x="194" y="313" on="0"/>
        <pt x="220" y="235" on="0"/>
        <pt x="269" y="175" on="0"/>
        <pt x="338" y="140" on="0"/>
        <pt x="381" y="140" on="1"/>
        <pt x="403" y="140" on="0"/>
        <pt x="450" y="151" on="0"/>
        <pt x="493" y="174" on="0"/>
        <pt x="529" y="211" on="0"/>
        <pt x="540" y="238" on="1"/>
        <pt x="674" y="159" on="1"/>
        <pt x="658" y="120" on="0"/>
        <pt x="595" y="58" on="0"/>
        <pt x="513" y="16" on="0"/>
        <pt x="421" y="-6" on="0"/>
        <pt x="377" y="-6" on="1"/>
        <pt x="300" y="-6" on="0"/>
        <pt x="171" y="57" on="0"/>
        <pt x="78" y="161" on="0"/>
        <pt x="27" y="293" on="0"/>
      </contour>
    </TTGlyph>
    <TTGlyph name="Ccedilla" xMin="26" yMin="-204" xMax="673" yMax="714">
      <contour>
        <pt x="281" y="-127" on="1"/>
        <pt x="292" y="-134" on="0"/>
        <pt x="344" y="-147" on="0"/>
        <pt x="371" y="-147" on="1"/>
        <pt x="395" y="-147" on="0"/>
        <pt x="427" y="-133" on="0"/>
        <pt x="427" y="-115" on="1"/>
        <pt x="427" y="-98" on="0"/>
        <pt x="397" y="-83" on="0"/>
        <pt x="373" y="-83" on="1"/>
        <pt x="352" y="-83" on="0"/>
        <pt x="305" y="-91" on="0"/>
        <pt x="294" y="-94" on="1"/>
        <pt x="338" y="-4" on="1"/>
        <pt x="268" y="3" on="0"/>
        <pt x="153" y="71" on="0"/>
        <pt x="71" y="172" on="0"/>
        <pt x="26" y="297" on="0"/>
        <pt x="26" y="361" on="1"/>
        <pt x="26" y="425" on="0"/>
        <pt x="74" y="552" on="0"/>
        <pt x="166" y="652" on="0"/>
        <pt x="298" y="714" on="0"/>
        <pt x="382" y="714" on="1"/>
        <pt x="482" y="714" on="0"/>
        <pt x="629" y="628" on="0"/>
        <pt x="665" y="559" on="1"/>
        <pt x="539" y="471" on="1"/>
        <pt x="527" y="499" on="0"/>
        <pt x="490" y="536" on="0"/>
        <pt x="446" y="559" on="0"/>
        <pt x="400" y="568" on="0"/>
        <pt x="378" y="568" on="1"/>
        <pt x="331" y="568" on="0"/>
        <pt x="261" y="530" on="0"/>
        <pt x="215" y="470" on="0"/>
        <pt x="193" y="394" on="0"/>
        <pt x="193" y="355" on="1"/>
        <pt x="193" y="313" on="0"/>
        <pt x="219" y="235" on="0"/>
        <pt x="268" y="175" on="0"/>
        <pt x="337" y="140" on="0"/>
        <pt x="380" y="140" on="1"/>
        <pt x="402" y="140" on="0"/>
        <pt x="449" y="151" on="0"/>
        <pt x="492" y="174" on="0"/>
        <pt x="528" y="211" on="0"/>
        <pt x="539" y="238" on="1"/>
        <pt x="673" y="159" on="1"/>
        <pt x="658" y="123" on="0"/>
        <pt x="602" y="65" on="0"/>
        <pt x="528" y="23" on="0"/>
        <pt x="445" y="-2" on="0"/>
        <pt x="403" y="-5" on="1"/>
        <pt x="380" y="-38" on="1"/>
        <pt x="393" y="-35" on="0"/>
        <pt x="410" y="-35" on="1"/>
        <pt x="446" y="-35" on="0"/>
        <pt x="500" y="-70" on="0"/>
        <pt x="500" y="-109" on="1"/>
        <pt x="500" y="-149" on="0"/>
        <pt x="432" y="-204" on="0"/>
        <pt x="360" y="-204" on="1"/>
        <pt x="325" y="-204" on="0"/>
        <pt x="271" y="-191" on="0"/>
        <pt x="251" y="-183" on="1"/>
      </contour>
    </TTGlyph>
    <TTGlyph name="Ccircumflex" xMin="27" yMin="-6" xMax="674" yMax="915">
      <contour>
        <pt x="213" y="807" on="1"/>
        <pt x="323" y="915" on="1"/>
        <pt x="438" y="915" on="1"/>
        <pt x="547" y="807" on="1"/>
        <pt x="465" y="771" on="1"/>
        <pt x="380" y="834" on="1"/>
        <pt x="295" y="771" on="1"/>
      </contour>
      <contour>
        <pt x="27" y="361" on="1"/>
        <pt x="27" y="425" on="0"/>
        <pt x="75" y="552" on="0"/>
        <pt x="167" y="652" on="0"/>
        <pt x="299" y="714" on="0"/>
        <pt x="383" y="714" on="1"/>
        <pt x="483" y="714" on="0"/>
        <pt x="630" y="628" on="0"/>
        <pt x="666" y="559" on="1"/>
        <pt x="540" y="471" on="1"/>
        <pt x="528" y="499" on="0"/>
        <pt x="491" y="536" on="0"/>
        <pt x="447" y="559" on="0"/>
        <pt x="401" y="568" on="0"/>
        <pt x="379" y="568" on="1"/>
        <pt x="332" y="568" on="0"/>
        <pt x="262" y="530" on="0"/>
        <pt x="216" y="470" on="0"/>
        <pt x="194" y="394" on="0"/>
        <pt x="194" y="355" on="1"/>
        <pt x="194" y="313" on="0"/>
        <pt x="220" y="235" on="0"/>
        <pt x="269" y="175" on="0"/>
        <pt x="338" y="140" on="0"/>
        <pt x="381" y="140" on="1"/>
        <pt x="403" y="140" on="0"/>
        <pt x="450" y="151" on="0"/>
        <pt x="493" y="174" on="0"/>
        <pt x="529" y="211" on="0"/>
        <pt x="540" y="238" on="1"/>
        <pt x="674" y="159" on="1"/>
        <pt x="658" y="120" on="0"/>
        <pt x="595" y="58" on="0"/>
        <pt x="513" y="16" on="0"/>
        <pt x="421" y="-6" on="0"/>
        <pt x="377" y="-6" on="1"/>
        <pt x="300" y="-6" on="0"/>
        <pt x="171" y="57" on="0"/>
        <pt x="78" y="161" on="0"/>
        <pt x="27" y="293" on="0"/>
      </contour>
    </TTGlyph>
    <TTGlyph name="Cdotaccent" xMin="27" yMin="-6" xMax="674" yMax="915">
      <contour>
        <pt x="27" y="361" on="1"/>
        <pt x="27" y="425" on="0"/>
        <pt x="75" y="552" on="0"/>
        <pt x="167" y="652" on="0"/>
        <pt x="299" y="714" on="0"/>
        <pt x="383" y="714" on="1"/>
        <pt x="483" y="714" on="0"/>
        <pt x="630" y="628" on="0"/>
        <pt x="666" y="559" on="1"/>
        <pt x="540" y="471" on="1"/>
        <pt x="528" y="499" on="0"/>
        <pt x="491" y="536" on="0"/>
        <pt x="447" y="559" on="0"/>
        <pt x="401" y="568" on="0"/>
        <pt x="379" y="568" on="1"/>
        <pt x="332" y="568" on="0"/>
        <pt x="262" y="530" on="0"/>
        <pt x="216" y="470" on="0"/>
        <pt x="194" y="394" on="0"/>
        <pt x="194" y="355" on="1"/>
        <pt x="194" y="313" on="0"/>
        <pt x="220" y="235" on="0"/>
        <pt x="269" y="175" on="0"/>
        <pt x="338" y="140" on="0"/>
        <pt x="381" y="140" on="1"/>
        <pt x="403" y="140" on="0"/>
        <pt x="450" y="151" on="0"/>
        <pt x="493" y="174" on="0"/>
        <pt x="529" y="211" on="0"/>
        <pt x="540" y="238" on="1"/>
        <pt x="674" y="159" on="1"/>
        <pt x="658" y="120" on="0"/>
        <pt x="595" y="58" on="0"/>
        <pt x="513" y="16" on="0"/>
        <pt x="421" y="-6" on="0"/>
        <pt x="377" y="-6" on="1"/>
        <pt x="300" y="-6" on="0"/>
        <pt x="171" y="57" on="0"/>
        <pt x="78" y="161" on="0"/>
        <pt x="27" y="293" on="0"/>
      </contour>
      <contour>
        <pt x="314" y="778" on="1"/>
        <pt x="314" y="915" on="1"/>
        <pt x="458" y="915" on="1"/>
        <pt x="458" y="778" on="1"/>
      </contour>
    </TTGlyph>
    <TTGlyph name="D" xMin="68" yMin="0" xMax="687" yMax="710">
      <contour>
        <pt x="68" y="0" on="1"/>
        <pt x="68" y="710" on="1"/>
        <pt x="333" y="710" on="1"/>
        <pt x="421" y="710" on="0"/>
        <pt x="553" y="654" on="0"/>
        <pt x="642" y="558" on="0"/>
        <pt x="687" y="429" on="0"/>
        <pt x="687" y="356" on="1"/>
        <pt x="687" y="275" on="0"/>
        <pt x="637" y="144" on="0"/>
        <pt x="544" y="51" on="0"/>
        <pt x="413" y="0" on="0"/>
        <pt x="333" y="0" on="1"/>
      </contour>
      <contour>
        <pt x="520" y="356" on="1"/>
        <pt x="520" y="403" on="0"/>
        <pt x="495" y="480" on="0"/>
        <pt x="447" y="536" on="0"/>
        <pt x="377" y="566" on="0"/>
        <pt x="333" y="566" on="1"/>
        <pt x="232" y="566" on="1"/>
        <pt x="232" y="144" on="1"/>
        <pt x="333" y="144" on="1"/>
        <pt x="378" y="144" on="0"/>
        <pt x="448" y="176" on="0"/>
        <pt x="495" y="233" on="0"/>
        <pt x="520" y="310" on="0"/>
      </contour>
    </TTGlyph>
    <TTGlyph name="D.sc" xMin="62" yMin="0" xMax="610" yMax="563">
      <contour>
        <pt x="62" y="0" on="1"/>
        <pt x="62" y="563" on="1"/>
        <pt x="296" y="563" on="1"/>
        <pt x="374" y="563" on="0"/>
        <pt x="491" y="519" on="0"/>
        <pt x="570" y="443" on="0"/>
        <pt x="610" y="341" on="0"/>
        <pt x="610" y="283" on="1"/>
        <pt x="610" y="219" on="0"/>
        <pt x="565" y="114" on="0"/>
        <pt x="483" y="40" on="0"/>
        <pt x="367" y="0" on="0"/>
        <pt x="296" y="0" on="1"/>
      </contour>
      <contour>
        <pt x="464" y="283" on="1"/>
        <pt x="464" y="352" on="0"/>
        <pt x="376" y="438" on="0"/>
        <pt x="296" y="438" on="1"/>
        <pt x="206" y="438" on="1"/>
        <pt x="206" y="125" on="1"/>
        <pt x="296" y="125" on="1"/>
        <pt x="336" y="125" on="0"/>
        <pt x="399" y="149" on="0"/>
        <pt x="442" y="191" on="0"/>
        <pt x="464" y="249" on="0"/>
      </contour>
    </TTGlyph>
    <TTGlyph name="Dcaron" xMin="68" yMin="0" xMax="687" yMax="915">
      <contour>
        <pt x="239" y="915" on="1"/>
        <pt x="324" y="852" on="1"/>
        <pt x="409" y="915" on="1"/>
        <pt x="491" y="878" on="1"/>
        <pt x="382" y="771" on="1"/>
        <pt x="267" y="771" on="1"/>
        <pt x="157" y="878" on="1"/>
      </contour>
      <contour>
        <pt x="68" y="0" on="1"/>
        <pt x="68" y="710" on="1"/>
        <pt x="333" y="710" on="1"/>
        <pt x="421" y="710" on="0"/>
        <pt x="553" y="654" on="0"/>
        <pt x="642" y="558" on="0"/>
        <pt x="687" y="429" on="0"/>
        <pt x="687" y="356" on="1"/>
        <pt x="687" y="275" on="0"/>
        <pt x="637" y="144" on="0"/>
        <pt x="544" y="51" on="0"/>
        <pt x="413" y="0" on="0"/>
        <pt x="333" y="0" on="1"/>
      </contour>
      <contour>
        <pt x="520" y="356" on="1"/>
        <pt x="520" y="403" on="0"/>
        <pt x="495" y="480" on="0"/>
        <pt x="447" y="536" on="0"/>
        <pt x="377" y="566" on="0"/>
        <pt x="333" y="566" on="1"/>
        <pt x="232" y="566" on="1"/>
        <pt x="232" y="144" on="1"/>
        <pt x="333" y="144" on="1"/>
        <pt x="378" y="144" on="0"/>
        <pt x="448" y="176" on="0"/>
        <pt x="495" y="233" on="0"/>
        <pt x="520" y="310" on="0"/>
      </contour>
    </TTGlyph>
    <TTGlyph name="Dcroat" xMin="30" yMin="0" xMax="692" yMax="710">
      <contour>
        <pt x="73" y="0" on="1"/>
        <pt x="73" y="298" on="1"/>
        <pt x="30" y="298" on="1"/>
        <pt x="30" y="416" on="1"/>
        <pt x="73" y="416" on="1"/>
        <pt x="73" y="710" on="1"/>
        <pt x="338" y="710" on="1"/>
        <pt x="426" y="710" on="0"/>
        <pt x="558" y="654" on="0"/>
        <pt x="647" y="558" on="0"/>
        <pt x="692" y="429" on="0"/>
        <pt x="692" y="356" on="1"/>
        <pt x="692" y="275" on="0"/>
        <pt x="642" y="144" on="0"/>
        <pt x="549" y="51" on="0"/>
        <pt x="418" y="0" on="0"/>
        <pt x="338" y="0" on="1"/>
      </contour>
      <contour>
        <pt x="525" y="356" on="1"/>
        <pt x="525" y="403" on="0"/>
        <pt x="500" y="480" on="0"/>
        <pt x="452" y="536" on="0"/>
        <pt x="382" y="566" on="0"/>
        <pt x="338" y="566" on="1"/>
        <pt x="237" y="566" on="1"/>
        <pt x="237" y="416" on="1"/>
        <pt x="365" y="416" on="1"/>
        <pt x="365" y="298" on="1"/>
        <pt x="237" y="298" on="1"/>
        <pt x="237" y="144" on="1"/>
        <pt x="338" y="144" on="1"/>
        <pt x="383" y="144" on="0"/>
        <pt x="453" y="176" on="0"/>
        <pt x="500" y="233" on="0"/>
        <pt x="525" y="310" on="0"/>
      </contour>
    </TTGlyph>
    <TTGlyph name="Ddotbelow" xMin="68" yMin="-204" xMax="687" yMax="710">
      <contour>
        <pt x="271" y="-204" on="1"/>
        <pt x="271" y="-67" on="1"/>
        <pt x="415" y="-67" on="1"/>
        <pt x="415" y="-204" on="1"/>
      </contour>
      <contour>
        <pt x="68" y="0" on="1"/>
        <pt x="68" y="710" on="1"/>
        <pt x="333" y="710" on="1"/>
        <pt x="421" y="710" on="0"/>
        <pt x="553" y="654" on="0"/>
        <pt x="642" y="558" on="0"/>
        <pt x="687" y="429" on="0"/>
        <pt x="687" y="356" on="1"/>
        <pt x="687" y="275" on="0"/>
        <pt x="637" y="144" on="0"/>
        <pt x="544" y="51" on="0"/>
        <pt x="413" y="0" on="0"/>
        <pt x="333" y="0" on="1"/>
      </contour>
      <contour>
        <pt x="520" y="356" on="1"/>
        <pt x="520" y="403" on="0"/>
        <pt x="495" y="480" on="0"/>
        <pt x="447" y="536" on="0"/>
        <pt x="377" y="566" on="0"/>
        <pt x="333" y="566" on="1"/>
        <pt x="232" y="566" on="1"/>
        <pt x="232" y="144" on="1"/>
        <pt x="333" y="144" on="1"/>
        <pt x="378" y="144" on="0"/>
        <pt x="448" y="176" on="0"/>
        <pt x="495" y="233" on="0"/>
        <pt x="520" y="310" on="0"/>
      </contour>
    </TTGlyph>
    <TTGlyph name="Delta" xMin="6" yMin="0" xMax="628" yMax="710">
      <contour>
        <pt x="628" y="126" on="1"/>
        <pt x="628" y="0" on="1"/>
        <pt x="6" y="0" on="1"/>
        <pt x="6" y="126" on="1"/>
        <pt x="251" y="710" on="1"/>
        <pt x="384" y="710" on="1"/>
      </contour>
      <contour>
        <pt x="471" y="144" on="1"/>
        <pt x="318" y="529" on="1"/>
        <pt x="169" y="144" on="1"/>
      </contour>
    </TTGlyph>
    <TTGlyph name="E" xMin="68" yMin="0" xMax="567" yMax="710">
      <contour>
        <pt x="567" y="144" on="1"/>
        <pt x="567" y="0" on="1"/>
        <pt x="68" y="0" on="1"/>
        <pt x="68" y="710" on="1"/>
        <pt x="558" y="710" on="1"/>
        <pt x="558" y="566" on="1"/>
        <pt x="232" y="566" on="1"/>
        <pt x="232" y="428" on="1"/>
        <pt x="512" y="428" on="1"/>
        <pt x="512" y="295" on="1"/>
        <pt x="232" y="295" on="1"/>
        <pt x="232" y="144" on="1"/>
      </contour>
    </TTGlyph>
    <TTGlyph name="E.sc" xMin="62" yMin="0" xMax="504" yMax="563">
      <contour>
        <pt x="504" y="125" on="1"/>
        <pt x="504" y="0" on="1"/>
        <pt x="62" y="0" on="1"/>
        <pt x="62" y="563" on="1"/>
        <pt x="496" y="563" on="1"/>
        <pt x="496" y="438" on="1"/>
        <pt x="206" y="438" on="1"/>
        <pt x="206" y="345" on="1"/>
        <pt x="455" y="345" on="1"/>
        <pt x="455" y="228" on="1"/>
        <pt x="206" y="228" on="1"/>
        <pt x="206" y="125" on="1"/>
      </contour>
    </TTGlyph>
    <TTGlyph name="Eacute" xMin="68" yMin="0" xMax="567" yMax="915">
      <contour>
        <pt x="367" y="757" on="1"/>
        <pt x="265" y="785" on="1"/>
        <pt x="317" y="915" on="1"/>
        <pt x="462" y="915" on="1"/>
      </contour>
      <contour>
        <pt x="567" y="144" on="1"/>
        <pt x="567" y="0" on="1"/>
        <pt x="68" y="0" on="1"/>
        <pt x="68" y="710" on="1"/>
        <pt x="558" y="710" on="1"/>
        <pt x="558" y="566" on="1"/>
        <pt x="232" y="566" on="1"/>
        <pt x="232" y="428" on="1"/>
        <pt x="512" y="428" on="1"/>
        <pt x="512" y="295" on="1"/>
        <pt x="232" y="295" on="1"/>
        <pt x="232" y="144" on="1"/>
      </contour>
    </TTGlyph>
    <TTGlyph name="Ebreve" xMin="68" yMin="0" xMax="567" yMax="915">
      <contour>
        <pt x="567" y="144" on="1"/>
        <pt x="567" y="0" on="1"/>
        <pt x="68" y="0" on="1"/>
        <pt x="68" y="710" on="1"/>
        <pt x="558" y="710" on="1"/>
        <pt x="558" y="566" on="1"/>
        <pt x="232" y="566" on="1"/>
        <pt x="232" y="428" on="1"/>
        <pt x="512" y="428" on="1"/>
        <pt x="512" y="295" on="1"/>
        <pt x="232" y="295" on="1"/>
        <pt x="232" y="144" on="1"/>
      </contour>
      <contour>
        <pt x="321" y="838" on="1"/>
        <pt x="344" y="838" on="0"/>
        <pt x="379" y="881" on="0"/>
        <pt x="382" y="915" on="1"/>
        <pt x="465" y="915" on="1"/>
        <pt x="465" y="883" on="0"/>
        <pt x="444" y="829" on="0"/>
        <pt x="406" y="790" on="0"/>
        <pt x="353" y="768" on="0"/>
        <pt x="321" y="768" on="1"/>
        <pt x="289" y="768" on="0"/>
        <pt x="237" y="790" on="0"/>
        <pt x="198" y="829" on="0"/>
        <pt x="177" y="883" on="0"/>
        <pt x="177" y="915" on="1"/>
        <pt x="262" y="915" on="1"/>
        <pt x="262" y="883" on="0"/>
        <pt x="297" y="838" on="0"/>
      </contour>
    </TTGlyph>
    <TTGlyph name="Ecaron" xMin="68" yMin="0" xMax="567" yMax="915">
      <contour>
        <pt x="236" y="915" on="1"/>
        <pt x="321" y="852" on="1"/>
        <pt x="406" y="915" on="1"/>
        <pt x="488" y="878" on="1"/>
        <pt x="379" y="771" on="1"/>
        <pt x="264" y="771" on="1"/>
        <pt x="154" y="878" on="1"/>
      </contour>
      <contour>
        <pt x="567" y="144" on="1"/>
        <pt x="567" y="0" on="1"/>
        <pt x="68" y="0" on="1"/>
        <pt x="68" y="710" on="1"/>
        <pt x="558" y="710" on="1"/>
        <pt x="558" y="566" on="1"/>
        <pt x="232" y="566" on="1"/>
        <pt x="232" y="428" on="1"/>
        <pt x="512" y="428" on="1"/>
        <pt x="512" y="295" on="1"/>
        <pt x="232" y="295" on="1"/>
        <pt x="232" y="144" on="1"/>
      </contour>
    </TTGlyph>
    <TTGlyph name="Ecircumflex" xMin="68" yMin="0" xMax="567" yMax="915">
      <contour>
        <pt x="154" y="807" on="1"/>
        <pt x="264" y="915" on="1"/>
        <pt x="379" y="915" on="1"/>
        <pt x="488" y="807" on="1"/>
        <pt x="406" y="771" on="1"/>
        <pt x="321" y="834" on="1"/>
        <pt x="236" y="771" on="1"/>
      </contour>
      <contour>
        <pt x="567" y="144" on="1"/>
        <pt x="567" y="0" on="1"/>
        <pt x="68" y="0" on="1"/>
        <pt x="68" y="710" on="1"/>
        <pt x="558" y="710" on="1"/>
        <pt x="558" y="566" on="1"/>
        <pt x="232" y="566" on="1"/>
        <pt x="232" y="428" on="1"/>
        <pt x="512" y="428" on="1"/>
        <pt x="512" y="295" on="1"/>
        <pt x="232" y="295" on="1"/>
        <pt x="232" y="144" on="1"/>
      </contour>
    </TTGlyph>
    <TTGlyph name="Edblgrave" xMin="68" yMin="0" xMax="567" yMax="916">
      <contour>
        <pt x="295" y="916" on="1"/>
        <pt x="416" y="916" on="1"/>
        <pt x="460" y="786" on="1"/>
        <pt x="383" y="758" on="1"/>
      </contour>
      <contour>
        <pt x="121" y="916" on="1"/>
        <pt x="241" y="916" on="1"/>
        <pt x="286" y="786" on="1"/>
        <pt x="208" y="758" on="1"/>
      </contour>
      <contour>
        <pt x="567" y="144" on="1"/>
        <pt x="567" y="0" on="1"/>
        <pt x="68" y="0" on="1"/>
        <pt x="68" y="710" on="1"/>
        <pt x="558" y="710" on="1"/>
        <pt x="558" y="566" on="1"/>
        <pt x="232" y="566" on="1"/>
        <pt x="232" y="428" on="1"/>
        <pt x="512" y="428" on="1"/>
        <pt x="512" y="295" on="1"/>
        <pt x="232" y="295" on="1"/>
        <pt x="232" y="144" on="1"/>
      </contour>
    </TTGlyph>
    <TTGlyph name="Edieresis" xMin="68" yMin="0" xMax="567" yMax="908">
      <contour>
        <pt x="150" y="779" on="1"/>
        <pt x="150" y="908" on="1"/>
        <pt x="282" y="908" on="1"/>
        <pt x="282" y="779" on="1"/>
      </contour>
      <contour>
        <pt x="360" y="779" on="1"/>
        <pt x="360" y="908" on="1"/>
        <pt x="492" y="908" on="1"/>
        <pt x="492" y="779" on="1"/>
      </contour>
      <contour>
        <pt x="567" y="144" on="1"/>
        <pt x="567" y="0" on="1"/>
        <pt x="68" y="0" on="1"/>
        <pt x="68" y="710" on="1"/>
        <pt x="558" y="710" on="1"/>
        <pt x="558" y="566" on="1"/>
        <pt x="232" y="566" on="1"/>
        <pt x="232" y="428" on="1"/>
        <pt x="512" y="428" on="1"/>
        <pt x="512" y="295" on="1"/>
        <pt x="232" y="295" on="1"/>
        <pt x="232" y="144" on="1"/>
      </contour>
    </TTGlyph>
    <TTGlyph name="Edotaccent" xMin="68" yMin="0" xMax="567" yMax="915">
      <contour>
        <pt x="567" y="144" on="1"/>
        <pt x="567" y="0" on="1"/>
        <pt x="68" y="0" on="1"/>
        <pt x="68" y="710" on="1"/>
        <pt x="558" y="710" on="1"/>
        <pt x="558" y="566" on="1"/>
        <pt x="232" y="566" on="1"/>
        <pt x="232" y="428" on="1"/>
        <pt x="512" y="428" on="1"/>
        <pt x="512" y="295" on="1"/>
        <pt x="232" y="295" on="1"/>
        <pt x="232" y="144" on="1"/>
      </contour>
      <contour>
        <pt x="250" y="778" on="1"/>
        <pt x="250" y="915" on="1"/>
        <pt x="394" y="915" on="1"/>
        <pt x="394" y="778" on="1"/>
      </contour>
    </TTGlyph>
    <TTGlyph name="Edotbelow" xMin="68" yMin="-204" xMax="567" yMax="710">
      <contour>
        <pt x="567" y="144" on="1"/>
        <pt x="567" y="0" on="1"/>
        <pt x="68" y="0" on="1"/>
        <pt x="68" y="710" on="1"/>
        <pt x="558" y="710" on="1"/>
        <pt x="558" y="566" on="1"/>
        <pt x="232" y="566" on="1"/>
        <pt x="232" y="428" on="1"/>
        <pt x="512" y="428" on="1"/>
        <pt x="512" y="295" on="1"/>
        <pt x="232" y="295" on="1"/>
        <pt x="232" y="144" on="1"/>
      </contour>
      <contour>
        <pt x="246" y="-204" on="1"/>
        <pt x="246" y="-67" on="1"/>
        <pt x="390" y="-67" on="1"/>
        <pt x="390" y="-204" on="1"/>
      </contour>
    </TTGlyph>
    <TTGlyph name="Egrave" xMin="68" yMin="0" xMax="567" yMax="916">
      <contour>
        <pt x="567" y="144" on="1"/>
        <pt x="567" y="0" on="1"/>
        <pt x="68" y="0" on="1"/>
        <pt x="68" y="710" on="1"/>
        <pt x="558" y="710" on="1"/>
        <pt x="558" y="566" on="1"/>
        <pt x="232" y="566" on="1"/>
        <pt x="232" y="428" on="1"/>
        <pt x="512" y="428" on="1"/>
        <pt x="512" y="295" on="1"/>
        <pt x="232" y="295" on="1"/>
        <pt x="232" y="144" on="1"/>
      </contour>
      <contour>
        <pt x="180" y="916" on="1"/>
        <pt x="325" y="916" on="1"/>
        <pt x="377" y="786" on="1"/>
        <pt x="276" y="758" on="1"/>
      </contour>
    </TTGlyph>
    <TTGlyph name="Einvertedbreve" xMin="68" yMin="0" xMax="567" yMax="915">
      <contour>
        <pt x="318" y="845" on="1"/>
        <pt x="294" y="845" on="0"/>
        <pt x="259" y="800" on="0"/>
        <pt x="259" y="768" on="1"/>
        <pt x="174" y="768" on="1"/>
        <pt x="174" y="800" on="0"/>
        <pt x="195" y="854" on="0"/>
        <pt x="234" y="893" on="0"/>
        <pt x="286" y="915" on="0"/>
        <pt x="318" y="915" on="1"/>
        <pt x="350" y="915" on="0"/>
        <pt x="403" y="893" on="0"/>
        <pt x="441" y="854" on="0"/>
        <pt x="462" y="800" on="0"/>
        <pt x="462" y="768" on="1"/>
        <pt x="379" y="768" on="1"/>
        <pt x="376" y="802" on="0"/>
        <pt x="341" y="845" on="0"/>
      </contour>
      <contour>
        <pt x="567" y="144" on="1"/>
        <pt x="567" y="0" on="1"/>
        <pt x="68" y="0" on="1"/>
        <pt x="68" y="710" on="1"/>
        <pt x="558" y="710" on="1"/>
        <pt x="558" y="566" on="1"/>
        <pt x="232" y="566" on="1"/>
        <pt x="232" y="428" on="1"/>
        <pt x="512" y="428" on="1"/>
        <pt x="512" y="295" on="1"/>
        <pt x="232" y="295" on="1"/>
        <pt x="232" y="144" on="1"/>
      </contour>
    </TTGlyph>
    <TTGlyph name="Emacron" xMin="68" yMin="0" xMax="567" yMax="903">
      <contour>
        <pt x="567" y="144" on="1"/>
        <pt x="567" y="0" on="1"/>
        <pt x="68" y="0" on="1"/>
        <pt x="68" y="710" on="1"/>
        <pt x="558" y="710" on="1"/>
        <pt x="558" y="566" on="1"/>
        <pt x="232" y="566" on="1"/>
        <pt x="232" y="428" on="1"/>
        <pt x="512" y="428" on="1"/>
        <pt x="512" y="295" on="1"/>
        <pt x="232" y="295" on="1"/>
        <pt x="232" y="144" on="1"/>
      </contour>
      <contour>
        <pt x="170" y="806" on="1"/>
        <pt x="170" y="903" on="1"/>
        <pt x="474" y="903" on="1"/>
        <pt x="474" y="806" on="1"/>
      </contour>
    </TTGlyph>
    <TTGlyph name="Eng" xMin="68" yMin="-202" xMax="674" yMax="710">
      <contour>
        <pt x="232" y="401" on="1"/>
        <pt x="232" y="0" on="1"/>
        <pt x="68" y="0" on="1"/>
        <pt x="68" y="710" on="1"/>
        <pt x="194" y="710" on="1"/>
        <pt x="510" y="301" on="1"/>
        <pt x="510" y="709" on="1"/>
        <pt x="674" y="709" on="1"/>
        <pt x="674" y="-2" on="1"/>
        <pt x="674" y="-47" on="0"/>
        <pt x="644" y="-121" on="0"/>
        <pt x="591" y="-174" on="0"/>
        <pt x="521" y="-202" on="0"/>
        <pt x="481" y="-202" on="1"/>
        <pt x="442" y="-202" on="0"/>
        <pt x="370" y="-177" on="0"/>
        <pt x="341" y="-152" on="1"/>
        <pt x="408" y="-43" on="1"/>
        <pt x="418" y="-54" on="0"/>
        <pt x="446" y="-64" on="0"/>
        <pt x="461" y="-64" on="1"/>
        <pt x="484" y="-64" on="0"/>
        <pt x="514" y="-34" on="0"/>
        <pt x="514" y="-9" on="1"/>
        <pt x="514" y="35" on="1"/>
      </contour>
    </TTGlyph>
    <TTGlyph name="Eogonek" xMin="68" yMin="-205" xMax="567" yMax="710">
      <contour>
        <pt x="567" y="144" on="1"/>
        <pt x="567" y="0" on="1"/>
        <pt x="492" y="-45" on="0"/>
        <pt x="492" y="-82" on="1"/>
        <pt x="492" y="-99" on="0"/>
        <pt x="524" y="-120" on="0"/>
        <pt x="557" y="-121" on="1"/>
        <pt x="526" y="-205" on="1"/>
        <pt x="459" y="-197" on="0"/>
        <pt x="394" y="-145" on="0"/>
        <pt x="394" y="-112" on="1"/>
        <pt x="394" y="-83" on="0"/>
        <pt x="436" y="-26" on="0"/>
        <pt x="478" y="0" on="1"/>
        <pt x="68" y="0" on="1"/>
        <pt x="68" y="710" on="1"/>
        <pt x="558" y="710" on="1"/>
        <pt x="558" y="566" on="1"/>
        <pt x="232" y="566" on="1"/>
        <pt x="232" y="428" on="1"/>
        <pt x="512" y="428" on="1"/>
        <pt x="512" y="295" on="1"/>
        <pt x="232" y="295" on="1"/>
        <pt x="232" y="144" on="1"/>
      </contour>
    </TTGlyph>
    <TTGlyph name="Eth" xMin="30" yMin="0" xMax="692" yMax="710">
      <contour>
        <pt x="73" y="0" on="1"/>
        <pt x="73" y="298" on="1"/>
        <pt x="30" y="298" on="1"/>
        <pt x="30" y="416" on="1"/>
        <pt x="73" y="416" on="1"/>
        <pt x="73" y="710" on="1"/>
        <pt x="338" y="710" on="1"/>
        <pt x="426" y="710" on="0"/>
        <pt x="558" y="654" on="0"/>
        <pt x="647" y="558" on="0"/>
        <pt x="692" y="429" on="0"/>
        <pt x="692" y="356" on="1"/>
        <pt x="692" y="275" on="0"/>
        <pt x="642" y="144" on="0"/>
        <pt x="549" y="51" on="0"/>
        <pt x="418" y="0" on="0"/>
        <pt x="338" y="0" on="1"/>
      </contour>
      <contour>
        <pt x="525" y="356" on="1"/>
        <pt x="525" y="403" on="0"/>
        <pt x="500" y="480" on="0"/>
        <pt x="452" y="536" on="0"/>
        <pt x="382" y="566" on="0"/>
        <pt x="338" y="566" on="1"/>
        <pt x="237" y="566" on="1"/>
        <pt x="237" y="416" on="1"/>
        <pt x="365" y="416" on="1"/>
        <pt x="365" y="298" on="1"/>
        <pt x="237" y="298" on="1"/>
        <pt x="237" y="144" on="1"/>
        <pt x="338" y="144" on="1"/>
        <pt x="383" y="144" on="0"/>
        <pt x="453" y="176" on="0"/>
        <pt x="500" y="233" on="0"/>
        <pt x="525" y="310" on="0"/>
      </contour>
    </TTGlyph>
    <TTGlyph name="Etilde" xMin="68" yMin="0" xMax="567" yMax="915">
      <contour>
        <pt x="567" y="144" on="1"/>
        <pt x="567" y="0" on="1"/>
        <pt x="68" y="0" on="1"/>
        <pt x="68" y="710" on="1"/>
        <pt x="558" y="710" on="1"/>
        <pt x="558" y="566" on="1"/>
        <pt x="232" y="566" on="1"/>
        <pt x="232" y="428" on="1"/>
        <pt x="512" y="428" on="1"/>
        <pt x="512" y="295" on="1"/>
        <pt x="232" y="295" on="1"/>
        <pt x="232" y="144" on="1"/>
      </contour>
      <contour>
        <pt x="385" y="773" on="1"/>
        <pt x="362" y="773" on="0"/>
        <pt x="327" y="787" on="0"/>
        <pt x="297" y="805" on="0"/>
        <pt x="269" y="819" on="0"/>
        <pt x="252" y="819" on="1"/>
        <pt x="235" y="819" on="0"/>
        <pt x="217" y="805" on="0"/>
        <pt x="207" y="787" on="0"/>
        <pt x="205" y="772" on="0"/>
        <pt x="205" y="771" on="1"/>
        <pt x="119" y="771" on="1"/>
        <pt x="119" y="782" on="0"/>
        <pt x="132" y="829" on="0"/>
        <pt x="162" y="877" on="0"/>
        <pt x="211" y="913" on="0"/>
        <pt x="246" y="913" on="1"/>
        <pt x="270" y="913" on="0"/>
        <pt x="304" y="898" on="0"/>
        <pt x="333" y="880" on="0"/>
        <pt x="361" y="865" on="0"/>
        <pt x="379" y="865" on="1"/>
        <pt x="396" y="865" on="0"/>
        <pt x="417" y="880" on="0"/>
        <pt x="428" y="898" on="0"/>
        <pt x="431" y="914" on="0"/>
        <pt x="431" y="915" on="1"/>
        <pt x="517" y="915" on="1"/>
        <pt x="517" y="907" on="0"/>
        <pt x="503" y="861" on="0"/>
        <pt x="472" y="811" on="0"/>
        <pt x="422" y="773" on="0"/>
      </contour>
    </TTGlyph>
    <TTGlyph name="Euro" xMin="34" yMin="-6" xMax="757" yMax="714">
      <contour>
        <pt x="122" y="452" on="1"/>
        <pt x="136" y="504" on="0"/>
        <pt x="195" y="599" on="0"/>
        <pt x="282" y="671" on="0"/>
        <pt x="397" y="714" on="0"/>
        <pt x="466" y="714" on="1"/>
        <pt x="566" y="714" on="0"/>
        <pt x="713" y="628" on="0"/>
        <pt x="749" y="559" on="1"/>
        <pt x="623" y="471" on="1"/>
        <pt x="611" y="499" on="0"/>
        <pt x="574" y="536" on="0"/>
        <pt x="530" y="559" on="0"/>
        <pt x="484" y="568" on="0"/>
        <pt x="462" y="568" on="1"/>
        <pt x="397" y="568" on="0"/>
        <pt x="315" y="501" on="0"/>
        <pt x="295" y="452" on="1"/>
        <pt x="517" y="452" on="1"/>
        <pt x="483" y="366" on="1"/>
        <pt x="277" y="366" on="1"/>
        <pt x="277" y="355" on="1"/>
        <pt x="277" y="345" on="0"/>
        <pt x="278" y="327" on="0"/>
        <pt x="279" y="318" on="1"/>
        <pt x="487" y="318" on="1"/>
        <pt x="453" y="232" on="1"/>
        <pt x="309" y="232" on="1"/>
        <pt x="333" y="190" on="0"/>
        <pt x="412" y="140" on="0"/>
        <pt x="464" y="140" on="1"/>
        <pt x="486" y="140" on="0"/>
        <pt x="533" y="151" on="0"/>
        <pt x="576" y="174" on="0"/>
        <pt x="612" y="211" on="0"/>
        <pt x="623" y="238" on="1"/>
        <pt x="757" y="159" on="1"/>
        <pt x="741" y="120" on="0"/>
        <pt x="678" y="58" on="0"/>
        <pt x="596" y="16" on="0"/>
        <pt x="504" y="-6" on="0"/>
        <pt x="460" y="-6" on="1"/>
        <pt x="401" y="-6" on="0"/>
        <pt x="298" y="32" on="0"/>
        <pt x="215" y="96" on="0"/>
        <pt x="152" y="183" on="0"/>
        <pt x="134" y="232" on="1"/>
        <pt x="34" y="232" on="1"/>
        <pt x="68" y="318" on="1"/>
        <pt x="112" y="318" on="1"/>
        <pt x="111" y="329" on="0"/>
        <pt x="110" y="350" on="0"/>
        <pt x="110" y="361" on="1"/>
        <pt x="110" y="366" on="1"/>
        <pt x="41" y="366" on="1"/>
        <pt x="75" y="452" on="1"/>
      </contour>
    </TTGlyph>
    <TTGlyph name="F" xMin="68" yMin="0" xMax="550" yMax="710">
      <contour>
        <pt x="68" y="0" on="1"/>
        <pt x="68" y="710" on="1"/>
        <pt x="550" y="710" on="1"/>
        <pt x="550" y="566" on="1"/>
        <pt x="232" y="566" on="1"/>
        <pt x="232" y="413" on="1"/>
        <pt x="494" y="413" on="1"/>
        <pt x="494" y="280" on="1"/>
        <pt x="232" y="280" on="1"/>
        <pt x="232" y="0" on="1"/>
      </contour>
    </TTGlyph>
    <TTGlyph name="F.sc" xMin="62" yMin="0" xMax="488" yMax="563">
      <contour>
        <pt x="62" y="0" on="1"/>
        <pt x="62" y="563" on="1"/>
        <pt x="488" y="563" on="1"/>
        <pt x="488" y="438" on="1"/>
        <pt x="206" y="438" on="1"/>
        <pt x="206" y="332" on="1"/>
        <pt x="440" y="332" on="1"/>
        <pt x="440" y="215" on="1"/>
        <pt x="206" y="215" on="1"/>
        <pt x="206" y="0" on="1"/>
      </contour>
    </TTGlyph>
    <TTGlyph name="G" xMin="28" yMin="-5" xMax="692" yMax="715">
      <contour>
        <pt x="556" y="70" on="1"/>
        <pt x="475" y="-5" on="0"/>
        <pt x="369" y="-5" on="1"/>
        <pt x="299" y="-5" on="0"/>
        <pt x="175" y="48" on="0"/>
        <pt x="82" y="144" on="0"/>
        <pt x="28" y="279" on="0"/>
        <pt x="28" y="360" on="1"/>
        <pt x="28" y="433" on="0"/>
        <pt x="82" y="563" on="0"/>
        <pt x="177" y="659" on="0"/>
        <pt x="307" y="715" on="0"/>
        <pt x="382" y="715" on="1"/>
        <pt x="481" y="715" on="0"/>
        <pt x="629" y="632" on="0"/>
        <pt x="666" y="560" on="1"/>
        <pt x="544" y="468" on="1"/>
        <pt x="520" y="516" on="0"/>
        <pt x="429" y="569" on="0"/>
        <pt x="376" y="569" on="1"/>
        <pt x="335" y="569" on="0"/>
        <pt x="268" y="536" on="0"/>
        <pt x="220" y="477" on="0"/>
        <pt x="194" y="399" on="0"/>
        <pt x="194" y="354" on="1"/>
        <pt x="194" y="308" on="0"/>
        <pt x="222" y="230" on="0"/>
        <pt x="272" y="173" on="0"/>
        <pt x="341" y="141" on="0"/>
        <pt x="383" y="141" on="1"/>
        <pt x="479" y="141" on="0"/>
        <pt x="556" y="230" on="1"/>
        <pt x="556" y="252" on="1"/>
        <pt x="418" y="252" on="1"/>
        <pt x="418" y="371" on="1"/>
        <pt x="692" y="371" on="1"/>
        <pt x="692" y="0" on="1"/>
        <pt x="556" y="0" on="1"/>
      </contour>
    </TTGlyph>
    <TTGlyph name="G.alt" xMin="27" yMin="-5" xMax="696" yMax="715">
      <contour>
        <pt x="381" y="-5" on="1"/>
        <pt x="303" y="-5" on="0"/>
        <pt x="173" y="56" on="0"/>
        <pt x="79" y="157" on="0"/>
        <pt x="27" y="289" on="0"/>
        <pt x="27" y="360" on="1"/>
        <pt x="27" y="428" on="0"/>
        <pt x="75" y="556" on="0"/>
        <pt x="165" y="655" on="0"/>
        <pt x="294" y="715" on="0"/>
        <pt x="375" y="715" on="1"/>
        <pt x="467" y="715" on="0"/>
        <pt x="606" y="638" on="0"/>
        <pt x="647" y="568" on="1"/>
        <pt x="517" y="466" on="1"/>
        <pt x="511" y="476" on="0"/>
        <pt x="488" y="511" on="0"/>
        <pt x="452" y="544" on="0"/>
        <pt x="400" y="569" on="0"/>
        <pt x="366" y="569" on="1"/>
        <pt x="324" y="569" on="0"/>
        <pt x="259" y="532" on="0"/>
        <pt x="216" y="472" on="0"/>
        <pt x="194" y="395" on="0"/>
        <pt x="194" y="355" on="1"/>
        <pt x="194" y="318" on="0"/>
        <pt x="214" y="242" on="0"/>
        <pt x="256" y="180" on="0"/>
        <pt x="321" y="141" on="0"/>
        <pt x="365" y="141" on="1"/>
        <pt x="393" y="141" on="0"/>
        <pt x="443" y="158" on="0"/>
        <pt x="483" y="186" on="0"/>
        <pt x="511" y="222" on="0"/>
        <pt x="518" y="242" on="1"/>
        <pt x="384" y="242" on="1"/>
        <pt x="384" y="386" on="1"/>
        <pt x="696" y="386" on="1"/>
        <pt x="696" y="313" on="1"/>
        <pt x="696" y="249" on="0"/>
        <pt x="650" y="133" on="0"/>
        <pt x="567" y="46" on="0"/>
        <pt x="451" y="-5" on="0"/>
      </contour>
    </TTGlyph>
    <TTGlyph name="G.sc" xMin="27" yMin="-4" xMax="583" yMax="567">
      <contour>
        <pt x="463" y="50" on="1"/>
        <pt x="429" y="21" on="0"/>
        <pt x="356" y="-4" on="0"/>
        <pt x="313" y="-4" on="1"/>
        <pt x="254" y="-4" on="0"/>
        <pt x="150" y="43" on="0"/>
        <pt x="72" y="123" on="0"/>
        <pt x="27" y="228" on="0"/>
        <pt x="27" y="286" on="1"/>
        <pt x="27" y="345" on="0"/>
        <pt x="73" y="447" on="0"/>
        <pt x="153" y="523" on="0"/>
        <pt x="262" y="567" on="0"/>
        <pt x="325" y="567" on="1"/>
        <pt x="407" y="567" on="0"/>
        <pt x="530" y="501" on="0"/>
        <pt x="561" y="444" on="1"/>
        <pt x="453" y="363" on="1"/>
        <pt x="434" y="398" on="0"/>
        <pt x="361" y="439" on="0"/>
        <pt x="319" y="439" on="1"/>
        <pt x="287" y="439" on="0"/>
        <pt x="233" y="415" on="0"/>
        <pt x="194" y="373" on="0"/>
        <pt x="173" y="315" on="0"/>
        <pt x="173" y="281" on="1"/>
        <pt x="173" y="246" on="0"/>
        <pt x="196" y="189" on="0"/>
        <pt x="236" y="147" on="0"/>
        <pt x="292" y="124" on="0"/>
        <pt x="325" y="124" on="1"/>
        <pt x="363" y="124" on="0"/>
        <pt x="433" y="157" on="0"/>
        <pt x="463" y="189" on="1"/>
        <pt x="463" y="194" on="1"/>
        <pt x="343" y="194" on="1"/>
        <pt x="343" y="297" on="1"/>
        <pt x="583" y="297" on="1"/>
        <pt x="583" y="0" on="1"/>
        <pt x="463" y="0" on="1"/>
      </contour>
    </TTGlyph>
    <TTGlyph name="Gacute" xMin="28" yMin="-5" xMax="692" yMax="915">
      <contour>
        <pt x="431" y="757" on="1"/>
        <pt x="329" y="785" on="1"/>
        <pt x="381" y="915" on="1"/>
        <pt x="526" y="915" on="1"/>
      </contour>
      <contour>
        <pt x="556" y="70" on="1"/>
        <pt x="475" y="-5" on="0"/>
        <pt x="369" y="-5" on="1"/>
        <pt x="299" y="-5" on="0"/>
        <pt x="175" y="48" on="0"/>
        <pt x="82" y="144" on="0"/>
        <pt x="28" y="279" on="0"/>
        <pt x="28" y="360" on="1"/>
        <pt x="28" y="433" on="0"/>
        <pt x="82" y="563" on="0"/>
        <pt x="177" y="659" on="0"/>
        <pt x="307" y="715" on="0"/>
        <pt x="382" y="715" on="1"/>
        <pt x="481" y="715" on="0"/>
        <pt x="629" y="632" on="0"/>
        <pt x="666" y="560" on="1"/>
        <pt x="544" y="468" on="1"/>
        <pt x="520" y="516" on="0"/>
        <pt x="429" y="569" on="0"/>
        <pt x="376" y="569" on="1"/>
        <pt x="335" y="569" on="0"/>
        <pt x="268" y="536" on="0"/>
        <pt x="220" y="477" on="0"/>
        <pt x="194" y="399" on="0"/>
        <pt x="194" y="354" on="1"/>
        <pt x="194" y="308" on="0"/>
        <pt x="222" y="230" on="0"/>
        <pt x="272" y="173" on="0"/>
        <pt x="341" y="141" on="0"/>
        <pt x="383" y="141" on="1"/>
        <pt x="479" y="141" on="0"/>
        <pt x="556" y="230" on="1"/>
        <pt x="556" y="252" on="1"/>
        <pt x="418" y="252" on="1"/>
        <pt x="418" y="371" on="1"/>
        <pt x="692" y="371" on="1"/>
        <pt x="692" y="0" on="1"/>
        <pt x="556" y="0" on="1"/>
      </contour>
    </TTGlyph>
    <TTGlyph name="Gbreve" xMin="28" yMin="-5" xMax="692" yMax="915">
      <contour>
        <pt x="556" y="70" on="1"/>
        <pt x="475" y="-5" on="0"/>
        <pt x="369" y="-5" on="1"/>
        <pt x="299" y="-5" on="0"/>
        <pt x="175" y="48" on="0"/>
        <pt x="82" y="144" on="0"/>
        <pt x="28" y="279" on="0"/>
        <pt x="28" y="360" on="1"/>
        <pt x="28" y="433" on="0"/>
        <pt x="82" y="563" on="0"/>
        <pt x="177" y="659" on="0"/>
        <pt x="307" y="715" on="0"/>
        <pt x="382" y="715" on="1"/>
        <pt x="481" y="715" on="0"/>
        <pt x="629" y="632" on="0"/>
        <pt x="666" y="560" on="1"/>
        <pt x="544" y="468" on="1"/>
        <pt x="520" y="516" on="0"/>
        <pt x="429" y="569" on="0"/>
        <pt x="376" y="569" on="1"/>
        <pt x="335" y="569" on="0"/>
        <pt x="268" y="536" on="0"/>
        <pt x="220" y="477" on="0"/>
        <pt x="194" y="399" on="0"/>
        <pt x="194" y="354" on="1"/>
        <pt x="194" y="308" on="0"/>
        <pt x="222" y="230" on="0"/>
        <pt x="272" y="173" on="0"/>
        <pt x="341" y="141" on="0"/>
        <pt x="383" y="141" on="1"/>
        <pt x="479" y="141" on="0"/>
        <pt x="556" y="230" on="1"/>
        <pt x="556" y="252" on="1"/>
        <pt x="418" y="252" on="1"/>
        <pt x="418" y="371" on="1"/>
        <pt x="692" y="371" on="1"/>
        <pt x="692" y="0" on="1"/>
        <pt x="556" y="0" on="1"/>
      </contour>
      <contour>
        <pt x="383" y="838" on="1"/>
        <pt x="406" y="838" on="0"/>
        <pt x="441" y="881" on="0"/>
        <pt x="444" y="915" on="1"/>
        <pt x="527" y="915" on="1"/>
        <pt x="527" y="883" on="0"/>
        <pt x="506" y="829" on="0"/>
        <pt x="468" y="790" on="0"/>
        <pt x="415" y="768" on="0"/>
        <pt x="383" y="768" on="1"/>
        <pt x="351" y="768" on="0"/>
        <pt x="299" y="790" on="0"/>
        <pt x="260" y="829" on="0"/>
        <pt x="239" y="883" on="0"/>
        <pt x="239" y="915" on="1"/>
        <pt x="324" y="915" on="1"/>
        <pt x="324" y="883" on="0"/>
        <pt x="359" y="838" on="0"/>
      </contour>
    </TTGlyph>
    <TTGlyph name="Gcircumflex" xMin="28" yMin="-5" xMax="692" yMax="915">
      <contour>
        <pt x="216" y="807" on="1"/>
        <pt x="326" y="915" on="1"/>
        <pt x="441" y="915" on="1"/>
        <pt x="550" y="807" on="1"/>
        <pt x="468" y="771" on="1"/>
        <pt x="383" y="834" on="1"/>
        <pt x="298" y="771" on="1"/>
      </contour>
      <contour>
        <pt x="556" y="70" on="1"/>
        <pt x="475" y="-5" on="0"/>
        <pt x="369" y="-5" on="1"/>
        <pt x="299" y="-5" on="0"/>
        <pt x="175" y="48" on="0"/>
        <pt x="82" y="144" on="0"/>
        <pt x="28" y="279" on="0"/>
        <pt x="28" y="360" on="1"/>
        <pt x="28" y="433" on="0"/>
        <pt x="82" y="563" on="0"/>
        <pt x="177" y="659" on="0"/>
        <pt x="307" y="715" on="0"/>
        <pt x="382" y="715" on="1"/>
        <pt x="481" y="715" on="0"/>
        <pt x="629" y="632" on="0"/>
        <pt x="666" y="560" on="1"/>
        <pt x="544" y="468" on="1"/>
        <pt x="520" y="516" on="0"/>
        <pt x="429" y="569" on="0"/>
        <pt x="376" y="569" on="1"/>
        <pt x="335" y="569" on="0"/>
        <pt x="268" y="536" on="0"/>
        <pt x="220" y="477" on="0"/>
        <pt x="194" y="399" on="0"/>
        <pt x="194" y="354" on="1"/>
        <pt x="194" y="308" on="0"/>
        <pt x="222" y="230" on="0"/>
        <pt x="272" y="173" on="0"/>
        <pt x="341" y="141" on="0"/>
        <pt x="383" y="141" on="1"/>
        <pt x="479" y="141" on="0"/>
        <pt x="556" y="230" on="1"/>
        <pt x="556" y="252" on="1"/>
        <pt x="418" y="252" on="1"/>
        <pt x="418" y="371" on="1"/>
        <pt x="692" y="371" on="1"/>
        <pt x="692" y="0" on="1"/>
        <pt x="556" y="0" on="1"/>
      </contour>
    </TTGlyph>
    <TTGlyph name="Gcommaaccent" xMin="28" yMin="-213" xMax="692" yMax="715">
      <contour>
        <pt x="321" y="-213" on="1"/>
        <pt x="352" y="-146" on="1"/>
        <pt x="304" y="-146" on="1"/>
        <pt x="304" y="-47" on="1"/>
        <pt x="438" y="-47" on="1"/>
        <pt x="438" y="-146" on="1"/>
        <pt x="391" y="-213" on="1"/>
      </contour>
      <contour>
        <pt x="556" y="70" on="1"/>
        <pt x="475" y="-5" on="0"/>
        <pt x="369" y="-5" on="1"/>
        <pt x="299" y="-5" on="0"/>
        <pt x="175" y="48" on="0"/>
        <pt x="82" y="144" on="0"/>
        <pt x="28" y="279" on="0"/>
        <pt x="28" y="360" on="1"/>
        <pt x="28" y="433" on="0"/>
        <pt x="82" y="563" on="0"/>
        <pt x="177" y="659" on="0"/>
        <pt x="307" y="715" on="0"/>
        <pt x="382" y="715" on="1"/>
        <pt x="481" y="715" on="0"/>
        <pt x="629" y="632" on="0"/>
        <pt x="666" y="560" on="1"/>
        <pt x="544" y="468" on="1"/>
        <pt x="520" y="516" on="0"/>
        <pt x="429" y="569" on="0"/>
        <pt x="376" y="569" on="1"/>
        <pt x="335" y="569" on="0"/>
        <pt x="268" y="536" on="0"/>
        <pt x="220" y="477" on="0"/>
        <pt x="194" y="399" on="0"/>
        <pt x="194" y="354" on="1"/>
        <pt x="194" y="308" on="0"/>
        <pt x="222" y="230" on="0"/>
        <pt x="272" y="173" on="0"/>
        <pt x="341" y="141" on="0"/>
        <pt x="383" y="141" on="1"/>
        <pt x="479" y="141" on="0"/>
        <pt x="556" y="230" on="1"/>
        <pt x="556" y="252" on="1"/>
        <pt x="418" y="252" on="1"/>
        <pt x="418" y="371" on="1"/>
        <pt x="692" y="371" on="1"/>
        <pt x="692" y="0" on="1"/>
        <pt x="556" y="0" on="1"/>
      </contour>
    </TTGlyph>
    <TTGlyph name="Gdotaccent" xMin="28" yMin="-5" xMax="692" yMax="915">
      <contour>
        <pt x="556" y="70" on="1"/>
        <pt x="475" y="-5" on="0"/>
        <pt x="369" y="-5" on="1"/>
        <pt x="299" y="-5" on="0"/>
        <pt x="175" y="48" on="0"/>
        <pt x="82" y="144" on="0"/>
        <pt x="28" y="279" on="0"/>
        <pt x="28" y="360" on="1"/>
        <pt x="28" y="433" on="0"/>
        <pt x="82" y="563" on="0"/>
        <pt x="177" y="659" on="0"/>
        <pt x="307" y="715" on="0"/>
        <pt x="382" y="715" on="1"/>
        <pt x="481" y="715" on="0"/>
        <pt x="629" y="632" on="0"/>
        <pt x="666" y="560" on="1"/>
        <pt x="544" y="468" on="1"/>
        <pt x="520" y="516" on="0"/>
        <pt x="429" y="569" on="0"/>
        <pt x="376" y="569" on="1"/>
        <pt x="335" y="569" on="0"/>
        <pt x="268" y="536" on="0"/>
        <pt x="220" y="477" on="0"/>
        <pt x="194" y="399" on="0"/>
        <pt x="194" y="354" on="1"/>
        <pt x="194" y="308" on="0"/>
        <pt x="222" y="230" on="0"/>
        <pt x="272" y="173" on="0"/>
        <pt x="341" y="141" on="0"/>
        <pt x="383" y="141" on="1"/>
        <pt x="479" y="141" on="0"/>
        <pt x="556" y="230" on="1"/>
        <pt x="556" y="252" on="1"/>
        <pt x="418" y="252" on="1"/>
        <pt x="418" y="371" on="1"/>
        <pt x="692" y="371" on="1"/>
        <pt x="692" y="0" on="1"/>
        <pt x="556" y="0" on="1"/>
      </contour>
      <contour>
        <pt x="313" y="778" on="1"/>
        <pt x="313" y="915" on="1"/>
        <pt x="457" y="915" on="1"/>
        <pt x="457" y="778" on="1"/>
      </contour>
    </TTGlyph>
    <TTGlyph name="H" xMin="68" yMin="0" xMax="679" yMax="710">
      <contour>
        <pt x="679" y="710" on="1"/>
        <pt x="679" y="0" on="1"/>
        <pt x="515" y="0" on="1"/>
        <pt x="515" y="291" on="1"/>
        <pt x="232" y="291" on="1"/>
        <pt x="232" y="0" on="1"/>
        <pt x="68" y="0" on="1"/>
        <pt x="68" y="710" on="1"/>
        <pt x="232" y="710" on="1"/>
        <pt x="232" y="435" on="1"/>
        <pt x="515" y="435" on="1"/>
        <pt x="515" y="710" on="1"/>
      </contour>
    </TTGlyph>
    <TTGlyph name="H.sc" xMin="62" yMin="0" xMax="602" yMax="563">
      <contour>
        <pt x="602" y="563" on="1"/>
        <pt x="602" y="0" on="1"/>
        <pt x="459" y="0" on="1"/>
        <pt x="459" y="225" on="1"/>
        <pt x="206" y="225" on="1"/>
        <pt x="206" y="0" on="1"/>
        <pt x="62" y="0" on="1"/>
        <pt x="62" y="563" on="1"/>
        <pt x="206" y="563" on="1"/>
        <pt x="206" y="351" on="1"/>
        <pt x="459" y="351" on="1"/>
        <pt x="459" y="563" on="1"/>
      </contour>
    </TTGlyph>
    <TTGlyph name="Hbar" xMin="22" yMin="0" xMax="733" yMax="710">
      <contour>
        <pt x="683" y="710" on="1"/>
        <pt x="683" y="617" on="1"/>
        <pt x="733" y="617" on="1"/>
        <pt x="733" y="541" on="1"/>
        <pt x="683" y="541" on="1"/>
        <pt x="683" y="0" on="1"/>
        <pt x="519" y="0" on="1"/>
        <pt x="519" y="291" on="1"/>
        <pt x="236" y="291" on="1"/>
        <pt x="236" y="0" on="1"/>
        <pt x="72" y="0" on="1"/>
        <pt x="72" y="541" on="1"/>
        <pt x="22" y="541" on="1"/>
        <pt x="22" y="617" on="1"/>
        <pt x="72" y="617" on="1"/>
        <pt x="72" y="710" on="1"/>
        <pt x="236" y="710" on="1"/>
        <pt x="236" y="617" on="1"/>
        <pt x="519" y="617" on="1"/>
        <pt x="519" y="710" on="1"/>
      </contour>
      <contour>
        <pt x="519" y="435" on="1"/>
        <pt x="519" y="541" on="1"/>
        <pt x="236" y="541" on="1"/>
        <pt x="236" y="435" on="1"/>
      </contour>
    </TTGlyph>
    <TTGlyph name="Hcircumflex" xMin="68" yMin="0" xMax="679" yMax="914">
      <contour>
        <pt x="209" y="806" on="1"/>
        <pt x="319" y="914" on="1"/>
        <pt x="434" y="914" on="1"/>
        <pt x="543" y="806" on="1"/>
        <pt x="461" y="770" on="1"/>
        <pt x="376" y="833" on="1"/>
        <pt x="291" y="770" on="1"/>
      </contour>
      <contour>
        <pt x="679" y="710" on="1"/>
        <pt x="679" y="0" on="1"/>
        <pt x="515" y="0" on="1"/>
        <pt x="515" y="291" on="1"/>
        <pt x="232" y="291" on="1"/>
        <pt x="232" y="0" on="1"/>
        <pt x="68" y="0" on="1"/>
        <pt x="68" y="710" on="1"/>
        <pt x="232" y="710" on="1"/>
        <pt x="232" y="435" on="1"/>
        <pt x="515" y="435" on="1"/>
        <pt x="515" y="710" on="1"/>
      </contour>
    </TTGlyph>
    <TTGlyph name="Hdotbelow" xMin="68" yMin="-204" xMax="679" yMax="710">
      <contour>
        <pt x="679" y="710" on="1"/>
        <pt x="679" y="0" on="1"/>
        <pt x="515" y="0" on="1"/>
        <pt x="515" y="291" on="1"/>
        <pt x="232" y="291" on="1"/>
        <pt x="232" y="0" on="1"/>
        <pt x="68" y="0" on="1"/>
        <pt x="68" y="710" on="1"/>
        <pt x="232" y="710" on="1"/>
        <pt x="232" y="435" on="1"/>
        <pt x="515" y="435" on="1"/>
        <pt x="515" y="710" on="1"/>
      </contour>
      <contour>
        <pt x="300" y="-204" on="1"/>
        <pt x="300" y="-67" on="1"/>
        <pt x="444" y="-67" on="1"/>
        <pt x="444" y="-204" on="1"/>
      </contour>
    </TTGlyph>
    <TTGlyph name="I" xMin="68" yMin="0" xMax="232" yMax="710">
      <contour>
        <pt x="68" y="0" on="1"/>
        <pt x="68" y="710" on="1"/>
        <pt x="232" y="710" on="1"/>
        <pt x="232" y="0" on="1"/>
      </contour>
    </TTGlyph>
    <TTGlyph name="I.sc" xMin="62" yMin="0" xMax="206" yMax="563">
      <contour>
        <pt x="62" y="0" on="1"/>
        <pt x="62" y="563" on="1"/>
        <pt x="206" y="563" on="1"/>
        <pt x="206" y="0" on="1"/>
      </contour>
    </TTGlyph>
    <TTGlyph name="IJ" xMin="68" yMin="-11" xMax="734" yMax="710">
      <contour>
        <pt x="68" y="0" on="1"/>
        <pt x="68" y="710" on="1"/>
        <pt x="232" y="710" on="1"/>
        <pt x="232" y="0" on="1"/>
      </contour>
      <contour>
        <pt x="340" y="167" on="1"/>
        <pt x="350" y="159" on="0"/>
        <pt x="415" y="135" on="0"/>
        <pt x="458" y="135" on="1"/>
        <pt x="495" y="135" on="0"/>
        <pt x="539" y="160" on="0"/>
        <pt x="563" y="212" on="0"/>
        <pt x="570" y="293" on="0"/>
        <pt x="570" y="349" on="1"/>
        <pt x="570" y="710" on="1"/>
        <pt x="734" y="710" on="1"/>
        <pt x="734" y="349" on="1"/>
        <pt x="734" y="268" on="0"/>
        <pt x="717" y="135" on="0"/>
        <pt x="660" y="41" on="0"/>
        <pt x="550" y="-11" on="0"/>
        <pt x="458" y="-11" on="1"/>
        <pt x="368" y="-11" on="0"/>
        <pt x="304" y="33" on="1"/>
      </contour>
    </TTGlyph>
    <TTGlyph name="Iacute" xMin="68" yMin="0" xMax="290" yMax="915">
      <contour>
        <pt x="68" y="0" on="1"/>
        <pt x="68" y="710" on="1"/>
        <pt x="232" y="710" on="1"/>
        <pt x="232" y="0" on="1"/>
      </contour>
      <contour>
        <pt x="195" y="757" on="1"/>
        <pt x="93" y="785" on="1"/>
        <pt x="145" y="915" on="1"/>
        <pt x="290" y="915" on="1"/>
      </contour>
    </TTGlyph>
    <TTGlyph name="Ibreve" xMin="5" yMin="0" xMax="293" yMax="915">
      <contour>
        <pt x="68" y="0" on="1"/>
        <pt x="68" y="710" on="1"/>
        <pt x="232" y="710" on="1"/>
        <pt x="232" y="0" on="1"/>
      </contour>
      <contour>
        <pt x="149" y="838" on="1"/>
        <pt x="172" y="838" on="0"/>
        <pt x="207" y="881" on="0"/>
        <pt x="210" y="915" on="1"/>
        <pt x="293" y="915" on="1"/>
        <pt x="293" y="883" on="0"/>
        <pt x="272" y="829" on="0"/>
        <pt x="234" y="790" on="0"/>
        <pt x="181" y="768" on="0"/>
        <pt x="149" y="768" on="1"/>
        <pt x="117" y="768" on="0"/>
        <pt x="65" y="790" on="0"/>
        <pt x="26" y="829" on="0"/>
        <pt x="5" y="883" on="0"/>
        <pt x="5" y="915" on="1"/>
        <pt x="90" y="915" on="1"/>
        <pt x="90" y="883" on="0"/>
        <pt x="125" y="838" on="0"/>
      </contour>
    </TTGlyph>
    <TTGlyph name="Icircumflex" xMin="-17" yMin="0" xMax="317" yMax="915">
      <contour>
        <pt x="68" y="0" on="1"/>
        <pt x="68" y="710" on="1"/>
        <pt x="232" y="710" on="1"/>
        <pt x="232" y="0" on="1"/>
      </contour>
      <contour>
        <pt x="-17" y="807" on="1"/>
        <pt x="93" y="915" on="1"/>
        <pt x="208" y="915" on="1"/>
        <pt x="317" y="807" on="1"/>
        <pt x="235" y="771" on="1"/>
        <pt x="150" y="834" on="1"/>
        <pt x="65" y="771" on="1"/>
      </contour>
    </TTGlyph>
    <TTGlyph name="Idblgrave" xMin="-37" yMin="0" xMax="302" yMax="916">
      <contour>
        <pt x="68" y="0" on="1"/>
        <pt x="68" y="710" on="1"/>
        <pt x="232" y="710" on="1"/>
        <pt x="232" y="0" on="1"/>
      </contour>
      <contour>
        <pt x="137" y="916" on="1"/>
        <pt x="258" y="916" on="1"/>
        <pt x="302" y="786" on="1"/>
        <pt x="225" y="758" on="1"/>
      </contour>
      <contour>
        <pt x="-37" y="916" on="1"/>
        <pt x="83" y="916" on="1"/>
        <pt x="128" y="786" on="1"/>
        <pt x="50" y="758" on="1"/>
      </contour>
    </TTGlyph>
    <TTGlyph name="Idieresis" xMin="-21" yMin="0" xMax="321" yMax="908">
      <contour>
        <pt x="68" y="0" on="1"/>
        <pt x="68" y="710" on="1"/>
        <pt x="232" y="710" on="1"/>
        <pt x="232" y="0" on="1"/>
      </contour>
      <contour>
        <pt x="-21" y="779" on="1"/>
        <pt x="-21" y="908" on="1"/>
        <pt x="111" y="908" on="1"/>
        <pt x="111" y="779" on="1"/>
      </contour>
      <contour>
        <pt x="189" y="779" on="1"/>
        <pt x="189" y="908" on="1"/>
        <pt x="321" y="908" on="1"/>
        <pt x="321" y="779" on="1"/>
      </contour>
    </TTGlyph>
    <TTGlyph name="Idotaccent" xMin="68" yMin="0" xMax="232" yMax="915">
      <contour>
        <pt x="68" y="0" on="1"/>
        <pt x="68" y="710" on="1"/>
        <pt x="232" y="710" on="1"/>
        <pt x="232" y="0" on="1"/>
      </contour>
      <contour>
        <pt x="78" y="778" on="1"/>
        <pt x="78" y="915" on="1"/>
        <pt x="222" y="915" on="1"/>
        <pt x="222" y="778" on="1"/>
      </contour>
    </TTGlyph>
    <TTGlyph name="Idotbelow" xMin="68" yMin="-204" xMax="232" yMax="710">
      <contour>
        <pt x="68" y="0" on="1"/>
        <pt x="68" y="710" on="1"/>
        <pt x="232" y="710" on="1"/>
        <pt x="232" y="0" on="1"/>
      </contour>
      <contour>
        <pt x="76" y="-204" on="1"/>
        <pt x="76" y="-67" on="1"/>
        <pt x="220" y="-67" on="1"/>
        <pt x="220" y="-204" on="1"/>
      </contour>
    </TTGlyph>
    <TTGlyph name="Igrave" xMin="8" yMin="0" xMax="232" yMax="916">
      <contour>
        <pt x="68" y="0" on="1"/>
        <pt x="68" y="710" on="1"/>
        <pt x="232" y="710" on="1"/>
        <pt x="232" y="0" on="1"/>
      </contour>
      <contour>
        <pt x="8" y="916" on="1"/>
        <pt x="153" y="916" on="1"/>
        <pt x="205" y="786" on="1"/>
        <pt x="104" y="758" on="1"/>
      </contour>
    </TTGlyph>
    <TTGlyph name="Iinvertedbreve" xMin="5" yMin="0" xMax="293" yMax="915">
      <contour>
        <pt x="68" y="0" on="1"/>
        <pt x="68" y="710" on="1"/>
        <pt x="232" y="710" on="1"/>
        <pt x="232" y="0" on="1"/>
      </contour>
      <contour>
        <pt x="149" y="845" on="1"/>
        <pt x="125" y="845" on="0"/>
        <pt x="90" y="800" on="0"/>
        <pt x="90" y="768" on="1"/>
        <pt x="5" y="768" on="1"/>
        <pt x="5" y="800" on="0"/>
        <pt x="26" y="854" on="0"/>
        <pt x="65" y="893" on="0"/>
        <pt x="117" y="915" on="0"/>
        <pt x="149" y="915" on="1"/>
        <pt x="181" y="915" on="0"/>
        <pt x="234" y="893" on="0"/>
        <pt x="272" y="854" on="0"/>
        <pt x="293" y="800" on="0"/>
        <pt x="293" y="768" on="1"/>
        <pt x="210" y="768" on="1"/>
        <pt x="207" y="802" on="0"/>
        <pt x="172" y="845" on="0"/>
      </contour>
    </TTGlyph>
    <TTGlyph name="Imacron" xMin="-1" yMin="0" xMax="303" yMax="903">
      <contour>
        <pt x="68" y="0" on="1"/>
        <pt x="68" y="710" on="1"/>
        <pt x="232" y="710" on="1"/>
        <pt x="232" y="0" on="1"/>
      </contour>
      <contour>
        <pt x="-1" y="806" on="1"/>
        <pt x="-1" y="903" on="1"/>
        <pt x="303" y="903" on="1"/>
        <pt x="303" y="806" on="1"/>
      </contour>
    </TTGlyph>
    <TTGlyph name="Iogonek" xMin="59" yMin="-205" xMax="232" yMax="710">
      <contour>
        <pt x="191" y="-205" on="1"/>
        <pt x="124" y="-197" on="0"/>
        <pt x="59" y="-145" on="0"/>
        <pt x="59" y="-112" on="1"/>
        <pt x="59" y="-83" on="0"/>
        <pt x="101" y="-26" on="0"/>
        <pt x="143" y="0" on="1"/>
        <pt x="68" y="0" on="1"/>
        <pt x="68" y="710" on="1"/>
        <pt x="232" y="710" on="1"/>
        <pt x="232" y="0" on="1"/>
        <pt x="157" y="-45" on="0"/>
        <pt x="157" y="-82" on="1"/>
        <pt x="157" y="-99" on="0"/>
        <pt x="189" y="-120" on="0"/>
        <pt x="222" y="-121" on="1"/>
        <pt x="191" y="-205" on="1"/>
      </contour>
    </TTGlyph>
    <TTGlyph name="Itilde" xMin="-53" yMin="0" xMax="345" yMax="915">
      <contour>
        <pt x="68" y="0" on="1"/>
        <pt x="68" y="710" on="1"/>
        <pt x="232" y="710" on="1"/>
        <pt x="232" y="0" on="1"/>
      </contour>
      <contour>
        <pt x="213" y="773" on="1"/>
        <pt x="190" y="773" on="0"/>
        <pt x="155" y="787" on="0"/>
        <pt x="125" y="805" on="0"/>
        <pt x="97" y="819" on="0"/>
        <pt x="80" y="819" on="1"/>
        <pt x="63" y="819" on="0"/>
        <pt x="45" y="805" on="0"/>
        <pt x="35" y="787" on="0"/>
        <pt x="33" y="772" on="0"/>
        <pt x="33" y="771" on="1"/>
        <pt x="-53" y="771" on="1"/>
        <pt x="-53" y="782" on="0"/>
        <pt x="-40" y="829" on="0"/>
        <pt x="-10" y="877" on="0"/>
        <pt x="39" y="913" on="0"/>
        <pt x="74" y="913" on="1"/>
        <pt x="98" y="913" on="0"/>
        <pt x="132" y="898" on="0"/>
        <pt x="161" y="880" on="0"/>
        <pt x="189" y="865" on="0"/>
        <pt x="207" y="865" on="1"/>
        <pt x="224" y="865" on="0"/>
        <pt x="245" y="880" on="0"/>
        <pt x="256" y="898" on="0"/>
        <pt x="259" y="914" on="0"/>
        <pt x="259" y="915" on="1"/>
        <pt x="345" y="915" on="1"/>
        <pt x="345" y="907" on="0"/>
        <pt x="331" y="861" on="0"/>
        <pt x="300" y="811" on="0"/>
        <pt x="250" y="773" on="0"/>
      </contour>
    </TTGlyph>
    <TTGlyph name="J" xMin="4" yMin="-11" xMax="434" yMax="710">
      <contour>
        <pt x="40" y="167" on="1"/>
        <pt x="50" y="159" on="0"/>
        <pt x="115" y="135" on="0"/>
        <pt x="158" y="135" on="1"/>
        <pt x="195" y="135" on="0"/>
        <pt x="239" y="160" on="0"/>
        <pt x="263" y="212" on="0"/>
        <pt x="270" y="293" on="0"/>
        <pt x="270" y="349" on="1"/>
        <pt x="270" y="710" on="1"/>
        <pt x="434" y="710" on="1"/>
        <pt x="434" y="349" on="1"/>
        <pt x="434" y="268" on="0"/>
        <pt x="417" y="135" on="0"/>
        <pt x="360" y="41" on="0"/>
        <pt x="250" y="-11" on="0"/>
        <pt x="158" y="-11" on="1"/>
        <pt x="68" y="-11" on="0"/>
        <pt x="4" y="33" on="1"/>
      </contour>
    </TTGlyph>
    <TTGlyph name="J.sc" xMin="8" yMin="-9" xMax="388" yMax="563">
      <contour>
        <pt x="40" y="143" on="1"/>
        <pt x="49" y="138" on="0"/>
        <pt x="107" y="119" on="0"/>
        <pt x="145" y="119" on="1"/>
        <pt x="178" y="119" on="0"/>
        <pt x="217" y="137" on="0"/>
        <pt x="238" y="175" on="0"/>
        <pt x="245" y="235" on="0"/>
        <pt x="245" y="277" on="1"/>
        <pt x="245" y="563" on="1"/>
        <pt x="388" y="563" on="1"/>
        <pt x="388" y="277" on="1"/>
        <pt x="388" y="212" on="0"/>
        <pt x="373" y="107" on="0"/>
        <pt x="323" y="32" on="0"/>
        <pt x="226" y="-9" on="0"/>
        <pt x="145" y="-9" on="1"/>
        <pt x="66" y="-9" on="0"/>
        <pt x="8" y="26" on="1"/>
      </contour>
    </TTGlyph>
    <TTGlyph name="Jcircumflex" xMin="4" yMin="-11" xMax="521" yMax="915">
      <contour>
        <pt x="187" y="807" on="1"/>
        <pt x="297" y="915" on="1"/>
        <pt x="412" y="915" on="1"/>
        <pt x="521" y="807" on="1"/>
        <pt x="439" y="771" on="1"/>
        <pt x="354" y="834" on="1"/>
        <pt x="269" y="771" on="1"/>
      </contour>
      <contour>
        <pt x="40" y="167" on="1"/>
        <pt x="50" y="159" on="0"/>
        <pt x="115" y="135" on="0"/>
        <pt x="158" y="135" on="1"/>
        <pt x="195" y="135" on="0"/>
        <pt x="239" y="160" on="0"/>
        <pt x="263" y="212" on="0"/>
        <pt x="270" y="293" on="0"/>
        <pt x="270" y="349" on="1"/>
        <pt x="270" y="710" on="1"/>
        <pt x="434" y="710" on="1"/>
        <pt x="434" y="349" on="1"/>
        <pt x="434" y="268" on="0"/>
        <pt x="417" y="135" on="0"/>
        <pt x="360" y="41" on="0"/>
        <pt x="250" y="-11" on="0"/>
        <pt x="158" y="-11" on="1"/>
        <pt x="68" y="-11" on="0"/>
        <pt x="4" y="33" on="1"/>
      </contour>
    </TTGlyph>
    <TTGlyph name="K" xMin="68" yMin="0" xMax="694" yMax="710">
      <contour>
        <pt x="68" y="0" on="1"/>
        <pt x="68" y="710" on="1"/>
        <pt x="232" y="710" on="1"/>
        <pt x="232" y="404" on="1"/>
        <pt x="492" y="710" on="1"/>
        <pt x="676" y="710" on="1"/>
        <pt x="410" y="393" on="1"/>
        <pt x="694" y="0" on="1"/>
        <pt x="507" y="0" on="1"/>
        <pt x="306" y="286" on="1"/>
        <pt x="232" y="209" on="1"/>
        <pt x="232" y="0" on="1"/>
      </contour>
    </TTGlyph>
    <TTGlyph name="K.sc" xMin="62" yMin="0" xMax="615" yMax="563">
      <contour>
        <pt x="62" y="0" on="1"/>
        <pt x="62" y="563" on="1"/>
        <pt x="206" y="563" on="1"/>
        <pt x="206" y="322" on="1"/>
        <pt x="450" y="563" on="1"/>
        <pt x="600" y="563" on="1"/>
        <pt x="364" y="312" on="1"/>
        <pt x="615" y="0" on="1"/>
        <pt x="464" y="0" on="1"/>
        <pt x="278" y="231" on="1"/>
        <pt x="206" y="168" on="1"/>
        <pt x="206" y="0" on="1"/>
      </contour>
    </TTGlyph>
    <TTGlyph name="Kcommaaccent" xMin="68" yMin="-213" xMax="694" yMax="710">
      <contour>
        <pt x="307" y="-213" on="1"/>
        <pt x="338" y="-146" on="1"/>
        <pt x="290" y="-146" on="1"/>
        <pt x="290" y="-47" on="1"/>
        <pt x="424" y="-47" on="1"/>
        <pt x="424" y="-146" on="1"/>
        <pt x="377" y="-213" on="1"/>
      </contour>
      <contour>
        <pt x="68" y="0" on="1"/>
        <pt x="68" y="710" on="1"/>
        <pt x="232" y="710" on="1"/>
        <pt x="232" y="404" on="1"/>
        <pt x="492" y="710" on="1"/>
        <pt x="676" y="710" on="1"/>
        <pt x="410" y="393" on="1"/>
        <pt x="694" y="0" on="1"/>
        <pt x="507" y="0" on="1"/>
        <pt x="306" y="286" on="1"/>
        <pt x="232" y="209" on="1"/>
        <pt x="232" y="0" on="1"/>
      </contour>
    </TTGlyph>
    <TTGlyph name="L" xMin="68" yMin="0" xMax="576" yMax="710">
      <contour>
        <pt x="68" y="0" on="1"/>
        <pt x="68" y="710" on="1"/>
        <pt x="232" y="710" on="1"/>
        <pt x="232" y="144" on="1"/>
        <pt x="576" y="144" on="1"/>
        <pt x="576" y="0" on="1"/>
      </contour>
    </TTGlyph>
    <TTGlyph name="L.sc" xMin="62" yMin="0" xMax="474" yMax="563">
      <contour>
        <pt x="62" y="0" on="1"/>
        <pt x="62" y="563" on="1"/>
        <pt x="206" y="563" on="1"/>
        <pt x="206" y="125" on="1"/>
        <pt x="474" y="125" on="1"/>
        <pt x="474" y="0" on="1"/>
      </contour>
    </TTGlyph>
    <TTGlyph name="Lacute" xMin="68" yMin="0" xMax="576" yMax="915">
      <contour>
        <pt x="410" y="757" on="1"/>
        <pt x="308" y="785" on="1"/>
        <pt x="360" y="915" on="1"/>
        <pt x="505" y="915" on="1"/>
      </contour>
      <contour>
        <pt x="68" y="0" on="1"/>
        <pt x="68" y="710" on="1"/>
        <pt x="232" y="710" on="1"/>
        <pt x="232" y="144" on="1"/>
        <pt x="576" y="144" on="1"/>
        <pt x="576" y="0" on="1"/>
      </contour>
    </TTGlyph>
    <TTGlyph name="Lcaron" xMin="68" yMin="0" xMax="576" yMax="729">
      <contour>
        <pt x="425" y="571" on="1"/>
        <pt x="323" y="599" on="1"/>
        <pt x="375" y="729" on="1"/>
        <pt x="520" y="729" on="1"/>
      </contour>
      <contour>
        <pt x="68" y="0" on="1"/>
        <pt x="68" y="710" on="1"/>
        <pt x="232" y="710" on="1"/>
        <pt x="232" y="144" on="1"/>
        <pt x="576" y="144" on="1"/>
        <pt x="576" y="0" on="1"/>
      </contour>
    </TTGlyph>
    <TTGlyph name="Lcommaaccent" xMin="68" yMin="-213" xMax="576" yMax="710">
      <contour>
        <pt x="283" y="-213" on="1"/>
        <pt x="314" y="-146" on="1"/>
        <pt x="266" y="-146" on="1"/>
        <pt x="266" y="-47" on="1"/>
        <pt x="400" y="-47" on="1"/>
        <pt x="400" y="-146" on="1"/>
        <pt x="353" y="-213" on="1"/>
      </contour>
      <contour>
        <pt x="68" y="0" on="1"/>
        <pt x="68" y="710" on="1"/>
        <pt x="232" y="710" on="1"/>
        <pt x="232" y="144" on="1"/>
        <pt x="576" y="144" on="1"/>
        <pt x="576" y="0" on="1"/>
      </contour>
    </TTGlyph>
    <TTGlyph name="Ldot" xMin="68" yMin="0" xMax="576" yMax="710">
      <contour>
        <pt x="68" y="0" on="1"/>
        <pt x="68" y="710" on="1"/>
        <pt x="232" y="710" on="1"/>
        <pt x="232" y="144" on="1"/>
        <pt x="576" y="144" on="1"/>
        <pt x="576" y="0" on="1"/>
      </contour>
      <contour>
        <pt x="364" y="325" on="1"/>
        <pt x="364" y="491" on="1"/>
        <pt x="495" y="491" on="1"/>
        <pt x="495" y="325" on="1"/>
      </contour>
    </TTGlyph>
    <TTGlyph name="Lslash" xMin="-9" yMin="0" xMax="587" yMax="710">
      <contour>
        <pt x="79" y="0" on="1"/>
        <pt x="79" y="274" on="1"/>
        <pt x="29" y="246" on="1"/>
        <pt x="-9" y="332" on="1"/>
        <pt x="79" y="381" on="1"/>
        <pt x="79" y="710" on="1"/>
        <pt x="243" y="710" on="1"/>
        <pt x="243" y="474" on="1"/>
        <pt x="335" y="526" on="1"/>
        <pt x="372" y="440" on="1"/>
        <pt x="243" y="367" on="1"/>
        <pt x="243" y="144" on="1"/>
        <pt x="587" y="144" on="1"/>
        <pt x="587" y="0" on="1"/>
      </contour>
    </TTGlyph>
    <TTGlyph name="M" xMin="68" yMin="0" xMax="792" yMax="710">
      <contour>
        <pt x="628" y="0" on="1"/>
        <pt x="628" y="425" on="1"/>
        <pt x="474" y="116" on="1"/>
        <pt x="386" y="116" on="1"/>
        <pt x="232" y="425" on="1"/>
        <pt x="232" y="0" on="1"/>
        <pt x="68" y="0" on="1"/>
        <pt x="68" y="710" on="1"/>
        <pt x="246" y="710" on="1"/>
        <pt x="430" y="339" on="1"/>
        <pt x="615" y="710" on="1"/>
        <pt x="792" y="710" on="1"/>
        <pt x="792" y="0" on="1"/>
      </contour>
    </TTGlyph>
    <TTGlyph name="M.sc" xMin="62" yMin="0" xMax="703" yMax="563">
      <contour>
        <pt x="559" y="0" on="1"/>
        <pt x="559" y="314" on="1"/>
        <pt x="421" y="90" on="1"/>
        <pt x="344" y="90" on="1"/>
        <pt x="206" y="314" on="1"/>
        <pt x="206" y="0" on="1"/>
        <pt x="62" y="0" on="1"/>
        <pt x="62" y="563" on="1"/>
        <pt x="218" y="563" on="1"/>
        <pt x="383" y="285" on="1"/>
        <pt x="547" y="563" on="1"/>
        <pt x="703" y="563" on="1"/>
        <pt x="703" y="0" on="1"/>
      </contour>
    </TTGlyph>
    <TTGlyph name="N" xMin="68" yMin="0" xMax="691" yMax="710">
      <contour>
        <pt x="232" y="406" on="1"/>
        <pt x="232" y="0" on="1"/>
        <pt x="68" y="0" on="1"/>
        <pt x="68" y="710" on="1"/>
        <pt x="196" y="710" on="1"/>
        <pt x="527" y="293" on="1"/>
        <pt x="527" y="710" on="1"/>
        <pt x="691" y="710" on="1"/>
        <pt x="691" y="0" on="1"/>
        <pt x="559" y="0" on="1"/>
      </contour>
    </TTGlyph>
    <TTGlyph name="N.sc" xMin="62" yMin="0" xMax="613" yMax="563">
      <contour>
        <pt x="206" y="297" on="1"/>
        <pt x="206" y="0" on="1"/>
        <pt x="62" y="0" on="1"/>
        <pt x="62" y="563" on="1"/>
        <pt x="174" y="563" on="1"/>
        <pt x="469" y="257" on="1"/>
        <pt x="469" y="563" on="1"/>
        <pt x="613" y="563" on="1"/>
        <pt x="613" y="0" on="1"/>
        <pt x="498" y="0" on="1"/>
      </contour>
    </TTGlyph>
    <TTGlyph name="Nacute" xMin="68" yMin="0" xMax="691" yMax="914">
      <contour>
        <pt x="424" y="756" on="1"/>
        <pt x="322" y="784" on="1"/>
        <pt x="374" y="914" on="1"/>
        <pt x="519" y="914" on="1"/>
      </contour>
      <contour>
        <pt x="232" y="406" on="1"/>
        <pt x="232" y="0" on="1"/>
        <pt x="68" y="0" on="1"/>
        <pt x="68" y="710" on="1"/>
        <pt x="196" y="710" on="1"/>
        <pt x="527" y="293" on="1"/>
        <pt x="527" y="710" on="1"/>
        <pt x="691" y="710" on="1"/>
        <pt x="691" y="0" on="1"/>
        <pt x="559" y="0" on="1"/>
      </contour>
    </TTGlyph>
    <TTGlyph name="Ncaron" xMin="68" yMin="0" xMax="691" yMax="914">
      <contour>
        <pt x="293" y="914" on="1"/>
        <pt x="378" y="851" on="1"/>
        <pt x="463" y="914" on="1"/>
        <pt x="545" y="877" on="1"/>
        <pt x="436" y="770" on="1"/>
        <pt x="321" y="770" on="1"/>
        <pt x="211" y="877" on="1"/>
      </contour>
      <contour>
        <pt x="232" y="406" on="1"/>
        <pt x="232" y="0" on="1"/>
        <pt x="68" y="0" on="1"/>
        <pt x="68" y="710" on="1"/>
        <pt x="196" y="710" on="1"/>
        <pt x="527" y="293" on="1"/>
        <pt x="527" y="710" on="1"/>
        <pt x="691" y="710" on="1"/>
        <pt x="691" y="0" on="1"/>
        <pt x="559" y="0" on="1"/>
      </contour>
    </TTGlyph>
    <TTGlyph name="Ncommaaccent" xMin="68" yMin="-213" xMax="691" yMax="710">
      <contour>
        <pt x="324" y="-213" on="1"/>
        <pt x="355" y="-146" on="1"/>
        <pt x="307" y="-146" on="1"/>
        <pt x="307" y="-47" on="1"/>
        <pt x="441" y="-47" on="1"/>
        <pt x="441" y="-146" on="1"/>
        <pt x="394" y="-213" on="1"/>
      </contour>
      <contour>
        <pt x="232" y="406" on="1"/>
        <pt x="232" y="0" on="1"/>
        <pt x="68" y="0" on="1"/>
        <pt x="68" y="710" on="1"/>
        <pt x="196" y="710" on="1"/>
        <pt x="527" y="293" on="1"/>
        <pt x="527" y="710" on="1"/>
        <pt x="691" y="710" on="1"/>
        <pt x="691" y="0" on="1"/>
        <pt x="559" y="0" on="1"/>
      </contour>
    </TTGlyph>
    <TTGlyph name="Ndotaccent" xMin="68" yMin="0" xMax="691" yMax="914">
      <contour>
        <pt x="306" y="777" on="1"/>
        <pt x="306" y="914" on="1"/>
        <pt x="450" y="914" on="1"/>
        <pt x="450" y="777" on="1"/>
      </contour>
      <contour>
        <pt x="232" y="406" on="1"/>
        <pt x="232" y="0" on="1"/>
        <pt x="68" y="0" on="1"/>
        <pt x="68" y="710" on="1"/>
        <pt x="196" y="710" on="1"/>
        <pt x="527" y="293" on="1"/>
        <pt x="527" y="710" on="1"/>
        <pt x="691" y="710" on="1"/>
        <pt x="691" y="0" on="1"/>
        <pt x="559" y="0" on="1"/>
      </contour>
    </TTGlyph>
    <TTGlyph name="Ntilde" xMin="68" yMin="0" xMax="691" yMax="914">
      <contour>
        <pt x="232" y="406" on="1"/>
        <pt x="232" y="0" on="1"/>
        <pt x="68" y="0" on="1"/>
        <pt x="68" y="710" on="1"/>
        <pt x="196" y="710" on="1"/>
        <pt x="527" y="293" on="1"/>
        <pt x="527" y="710" on="1"/>
        <pt x="691" y="710" on="1"/>
        <pt x="691" y="0" on="1"/>
        <pt x="559" y="0" on="1"/>
      </contour>
      <contour>
        <pt x="441" y="772" on="1"/>
        <pt x="418" y="772" on="0"/>
        <pt x="383" y="786" on="0"/>
        <pt x="353" y="804" on="0"/>
        <pt x="325" y="818" on="0"/>
        <pt x="308" y="818" on="1"/>
        <pt x="291" y="818" on="0"/>
        <pt x="273" y="804" on="0"/>
        <pt x="263" y="786" on="0"/>
        <pt x="261" y="771" on="0"/>
        <pt x="261" y="770" on="1"/>
        <pt x="175" y="770" on="1"/>
        <pt x="175" y="781" on="0"/>
        <pt x="188" y="828" on="0"/>
        <pt x="218" y="876" on="0"/>
        <pt x="267" y="912" on="0"/>
        <pt x="302" y="912" on="1"/>
        <pt x="326" y="912" on="0"/>
        <pt x="360" y="897" on="0"/>
        <pt x="389" y="879" on="0"/>
        <pt x="417" y="864" on="0"/>
        <pt x="435" y="864" on="1"/>
        <pt x="452" y="864" on="0"/>
        <pt x="473" y="879" on="0"/>
        <pt x="484" y="897" on="0"/>
        <pt x="487" y="913" on="0"/>
        <pt x="487" y="914" on="1"/>
        <pt x="573" y="914" on="1"/>
        <pt x="573" y="906" on="0"/>
        <pt x="559" y="860" on="0"/>
        <pt x="528" y="810" on="0"/>
        <pt x="478" y="772" on="0"/>
      </contour>
    </TTGlyph>
    <TTGlyph name="O" xMin="27" yMin="-6" xMax="733" yMax="714">
      <contour>
        <pt x="379" y="-6" on="1"/>
        <pt x="300" y="-6" on="0"/>
        <pt x="170" y="56" on="0"/>
        <pt x="78" y="157" on="0"/>
        <pt x="27" y="287" on="0"/>
        <pt x="27" y="356" on="1"/>
        <pt x="27" y="426" on="0"/>
        <pt x="80" y="556" on="0"/>
        <pt x="175" y="655" on="0"/>
        <pt x="305" y="714" on="0"/>
        <pt x="382" y="714" on="1"/>
        <pt x="461" y="714" on="0"/>
        <pt x="591" y="652" on="0"/>
        <pt x="683" y="550" on="0"/>
        <pt x="733" y="420" on="0"/>
        <pt x="733" y="353" on="1"/>
        <pt x="733" y="283" on="0"/>
        <pt x="680" y="153" on="0"/>
        <pt x="586" y="54" on="0"/>
        <pt x="456" y="-6" on="0"/>
      </contour>
      <contour>
        <pt x="194" y="354" on="1"/>
        <pt x="194" y="313" on="0"/>
        <pt x="218" y="236" on="0"/>
        <pt x="265" y="176" on="0"/>
        <pt x="335" y="140" on="0"/>
        <pt x="380" y="140" on="1"/>
        <pt x="427" y="140" on="0"/>
        <pt x="497" y="178" on="0"/>
        <pt x="543" y="239" on="0"/>
        <pt x="566" y="316" on="0"/>
        <pt x="566" y="356" on="1"/>
        <pt x="566" y="397" on="0"/>
        <pt x="542" y="474" on="0"/>
        <pt x="494" y="533" on="0"/>
        <pt x="425" y="568" on="0"/>
        <pt x="380" y="568" on="1"/>
        <pt x="333" y="568" on="0"/>
        <pt x="264" y="531" on="0"/>
        <pt x="217" y="471" on="0"/>
        <pt x="194" y="394" on="0"/>
      </contour>
    </TTGlyph>
    <TTGlyph name="O.sc" xMin="27" yMin="-5" xMax="627" yMax="566">
      <contour>
        <pt x="326" y="-5" on="1"/>
        <pt x="259" y="-5" on="0"/>
        <pt x="149" y="44" on="0"/>
        <pt x="70" y="124" on="0"/>
        <pt x="27" y="228" on="0"/>
        <pt x="27" y="282" on="1"/>
        <pt x="27" y="338" on="0"/>
        <pt x="72" y="441" on="0"/>
        <pt x="153" y="519" on="0"/>
        <pt x="264" y="566" on="0"/>
        <pt x="329" y="566" on="1"/>
        <pt x="396" y="566" on="0"/>
        <pt x="506" y="517" on="0"/>
        <pt x="584" y="436" on="0"/>
        <pt x="627" y="333" on="0"/>
        <pt x="627" y="279" on="1"/>
        <pt x="627" y="224" on="0"/>
        <pt x="582" y="121" on="0"/>
        <pt x="503" y="42" on="0"/>
        <pt x="392" y="-5" on="0"/>
      </contour>
      <contour>
        <pt x="173" y="281" on="1"/>
        <pt x="173" y="251" on="0"/>
        <pt x="193" y="194" on="0"/>
        <pt x="233" y="150" on="0"/>
        <pt x="290" y="123" on="0"/>
        <pt x="328" y="123" on="1"/>
        <pt x="366" y="123" on="0"/>
        <pt x="423" y="151" on="0"/>
        <pt x="462" y="196" on="0"/>
        <pt x="481" y="253" on="0"/>
        <pt x="481" y="282" on="1"/>
        <pt x="481" y="312" on="0"/>
        <pt x="460" y="369" on="0"/>
        <pt x="421" y="412" on="0"/>
        <pt x="364" y="438" on="0"/>
        <pt x="327" y="438" on="1"/>
        <pt x="289" y="438" on="0"/>
        <pt x="232" y="411" on="0"/>
        <pt x="193" y="367" on="0"/>
        <pt x="173" y="310" on="0"/>
      </contour>
    </TTGlyph>
    <TTGlyph name="OE" xMin="27" yMin="-5" xMax="1028" yMax="715">
      <contour>
        <pt x="1028" y="144" on="1"/>
        <pt x="1028" y="0" on="1"/>
        <pt x="545" y="0" on="1"/>
        <pt x="545" y="75" on="1"/>
        <pt x="511" y="40" on="0"/>
        <pt x="419" y="-5" on="0"/>
        <pt x="365" y="-5" on="1"/>
        <pt x="289" y="-5" on="0"/>
        <pt x="165" y="56" on="0"/>
        <pt x="76" y="157" on="0"/>
        <pt x="27" y="287" on="0"/>
        <pt x="27" y="356" on="1"/>
        <pt x="27" y="426" on="0"/>
        <pt x="78" y="556" on="0"/>
        <pt x="169" y="656" on="0"/>
        <pt x="294" y="715" on="0"/>
        <pt x="368" y="715" on="1"/>
        <pt x="422" y="715" on="0"/>
        <pt x="512" y="671" on="0"/>
        <pt x="545" y="636" on="1"/>
        <pt x="545" y="710" on="1"/>
        <pt x="1019" y="710" on="1"/>
        <pt x="1019" y="566" on="1"/>
        <pt x="709" y="566" on="1"/>
        <pt x="709" y="433" on="1"/>
        <pt x="965" y="433" on="1"/>
        <pt x="965" y="290" on="1"/>
        <pt x="709" y="290" on="1"/>
        <pt x="709" y="144" on="1"/>
      </contour>
      <contour>
        <pt x="366" y="141" on="1"/>
        <pt x="409" y="141" on="0"/>
        <pt x="474" y="178" on="0"/>
        <pt x="517" y="239" on="0"/>
        <pt x="538" y="316" on="0"/>
        <pt x="538" y="356" on="1"/>
        <pt x="538" y="397" on="0"/>
        <pt x="515" y="474" on="0"/>
        <pt x="471" y="533" on="0"/>
        <pt x="407" y="569" on="0"/>
        <pt x="366" y="569" on="1"/>
        <pt x="323" y="569" on="0"/>
        <pt x="259" y="532" on="0"/>
        <pt x="216" y="471" on="0"/>
        <pt x="194" y="394" on="0"/>
        <pt x="194" y="354" on="1"/>
        <pt x="194" y="313" on="0"/>
        <pt x="217" y="236" on="0"/>
        <pt x="260" y="177" on="0"/>
        <pt x="324" y="141" on="0"/>
      </contour>
    </TTGlyph>
    <TTGlyph name="Oacute" xMin="27" yMin="-6" xMax="733" yMax="915">
      <contour>
        <pt x="433" y="757" on="1"/>
        <pt x="331" y="785" on="1"/>
        <pt x="383" y="915" on="1"/>
        <pt x="528" y="915" on="1"/>
      </contour>
      <contour>
        <pt x="379" y="-6" on="1"/>
        <pt x="300" y="-6" on="0"/>
        <pt x="170" y="56" on="0"/>
        <pt x="78" y="157" on="0"/>
        <pt x="27" y="287" on="0"/>
        <pt x="27" y="356" on="1"/>
        <pt x="27" y="426" on="0"/>
        <pt x="80" y="556" on="0"/>
        <pt x="175" y="655" on="0"/>
        <pt x="305" y="714" on="0"/>
        <pt x="382" y="714" on="1"/>
        <pt x="461" y="714" on="0"/>
        <pt x="591" y="652" on="0"/>
        <pt x="683" y="550" on="0"/>
        <pt x="733" y="420" on="0"/>
        <pt x="733" y="353" on="1"/>
        <pt x="733" y="283" on="0"/>
        <pt x="680" y="153" on="0"/>
        <pt x="586" y="54" on="0"/>
        <pt x="456" y="-6" on="0"/>
      </contour>
      <contour>
        <pt x="194" y="354" on="1"/>
        <pt x="194" y="313" on="0"/>
        <pt x="218" y="236" on="0"/>
        <pt x="265" y="176" on="0"/>
        <pt x="335" y="140" on="0"/>
        <pt x="380" y="140" on="1"/>
        <pt x="427" y="140" on="0"/>
        <pt x="497" y="178" on="0"/>
        <pt x="543" y="239" on="0"/>
        <pt x="566" y="316" on="0"/>
        <pt x="566" y="356" on="1"/>
        <pt x="566" y="397" on="0"/>
        <pt x="542" y="474" on="0"/>
        <pt x="494" y="533" on="0"/>
        <pt x="425" y="568" on="0"/>
        <pt x="380" y="568" on="1"/>
        <pt x="333" y="568" on="0"/>
        <pt x="264" y="531" on="0"/>
        <pt x="217" y="471" on="0"/>
        <pt x="194" y="394" on="0"/>
      </contour>
    </TTGlyph>
    <TTGlyph name="Obreve" xMin="27" yMin="-6" xMax="733" yMax="915">
      <contour>
        <pt x="379" y="-6" on="1"/>
        <pt x="300" y="-6" on="0"/>
        <pt x="170" y="56" on="0"/>
        <pt x="78" y="157" on="0"/>
        <pt x="27" y="287" on="0"/>
        <pt x="27" y="356" on="1"/>
        <pt x="27" y="426" on="0"/>
        <pt x="80" y="556" on="0"/>
        <pt x="175" y="655" on="0"/>
        <pt x="305" y="714" on="0"/>
        <pt x="382" y="714" on="1"/>
        <pt x="461" y="714" on="0"/>
        <pt x="591" y="652" on="0"/>
        <pt x="683" y="550" on="0"/>
        <pt x="733" y="420" on="0"/>
        <pt x="733" y="353" on="1"/>
        <pt x="733" y="283" on="0"/>
        <pt x="680" y="153" on="0"/>
        <pt x="586" y="54" on="0"/>
        <pt x="456" y="-6" on="0"/>
      </contour>
      <contour>
        <pt x="194" y="354" on="1"/>
        <pt x="194" y="313" on="0"/>
        <pt x="218" y="236" on="0"/>
        <pt x="265" y="176" on="0"/>
        <pt x="335" y="140" on="0"/>
        <pt x="380" y="140" on="1"/>
        <pt x="427" y="140" on="0"/>
        <pt x="497" y="178" on="0"/>
        <pt x="543" y="239" on="0"/>
        <pt x="566" y="316" on="0"/>
        <pt x="566" y="356" on="1"/>
        <pt x="566" y="397" on="0"/>
        <pt x="542" y="474" on="0"/>
        <pt x="494" y="533" on="0"/>
        <pt x="425" y="568" on="0"/>
        <pt x="380" y="568" on="1"/>
        <pt x="333" y="568" on="0"/>
        <pt x="264" y="531" on="0"/>
        <pt x="217" y="471" on="0"/>
        <pt x="194" y="394" on="0"/>
      </contour>
      <contour>
        <pt x="384" y="838" on="1"/>
        <pt x="407" y="838" on="0"/>
        <pt x="442" y="881" on="0"/>
        <pt x="445" y="915" on="1"/>
        <pt x="528" y="915" on="1"/>
        <pt x="528" y="883" on="0"/>
        <pt x="507" y="829" on="0"/>
        <pt x="469" y="790" on="0"/>
        <pt x="416" y="768" on="0"/>
        <pt x="384" y="768" on="1"/>
        <pt x="352" y="768" on="0"/>
        <pt x="300" y="790" on="0"/>
        <pt x="261" y="829" on="0"/>
        <pt x="240" y="883" on="0"/>
        <pt x="240" y="915" on="1"/>
        <pt x="325" y="915" on="1"/>
        <pt x="325" y="883" on="0"/>
        <pt x="360" y="838" on="0"/>
      </contour>
    </TTGlyph>
    <TTGlyph name="Ocircumflex" xMin="27" yMin="-6" xMax="733" yMax="915">
      <contour>
        <pt x="214" y="807" on="1"/>
        <pt x="324" y="915" on="1"/>
        <pt x="439" y="915" on="1"/>
        <pt x="548" y="807" on="1"/>
        <pt x="466" y="771" on="1"/>
        <pt x="381" y="834" on="1"/>
        <pt x="296" y="771" on="1"/>
      </contour>
      <contour>
        <pt x="379" y="-6" on="1"/>
        <pt x="300" y="-6" on="0"/>
        <pt x="170" y="56" on="0"/>
        <pt x="78" y="157" on="0"/>
        <pt x="27" y="287" on="0"/>
        <pt x="27" y="356" on="1"/>
        <pt x="27" y="426" on="0"/>
        <pt x="80" y="556" on="0"/>
        <pt x="175" y="655" on="0"/>
        <pt x="305" y="714" on="0"/>
        <pt x="382" y="714" on="1"/>
        <pt x="461" y="714" on="0"/>
        <pt x="591" y="652" on="0"/>
        <pt x="683" y="550" on="0"/>
        <pt x="733" y="420" on="0"/>
        <pt x="733" y="353" on="1"/>
        <pt x="733" y="283" on="0"/>
        <pt x="680" y="153" on="0"/>
        <pt x="586" y="54" on="0"/>
        <pt x="456" y="-6" on="0"/>
      </contour>
      <contour>
        <pt x="194" y="354" on="1"/>
        <pt x="194" y="313" on="0"/>
        <pt x="218" y="236" on="0"/>
        <pt x="265" y="176" on="0"/>
        <pt x="335" y="140" on="0"/>
        <pt x="380" y="140" on="1"/>
        <pt x="427" y="140" on="0"/>
        <pt x="497" y="178" on="0"/>
        <pt x="543" y="239" on="0"/>
        <pt x="566" y="316" on="0"/>
        <pt x="566" y="356" on="1"/>
        <pt x="566" y="397" on="0"/>
        <pt x="542" y="474" on="0"/>
        <pt x="494" y="533" on="0"/>
        <pt x="425" y="568" on="0"/>
        <pt x="380" y="568" on="1"/>
        <pt x="333" y="568" on="0"/>
        <pt x="264" y="531" on="0"/>
        <pt x="217" y="471" on="0"/>
        <pt x="194" y="394" on="0"/>
      </contour>
    </TTGlyph>
    <TTGlyph name="Odblgrave" xMin="27" yMin="-6" xMax="733" yMax="916">
      <contour>
        <pt x="357" y="916" on="1"/>
        <pt x="478" y="916" on="1"/>
        <pt x="522" y="786" on="1"/>
        <pt x="445" y="758" on="1"/>
      </contour>
      <contour>
        <pt x="183" y="916" on="1"/>
        <pt x="303" y="916" on="1"/>
        <pt x="348" y="786" on="1"/>
        <pt x="270" y="758" on="1"/>
      </contour>
      <contour>
        <pt x="379" y="-6" on="1"/>
        <pt x="300" y="-6" on="0"/>
        <pt x="170" y="56" on="0"/>
        <pt x="78" y="157" on="0"/>
        <pt x="27" y="287" on="0"/>
        <pt x="27" y="356" on="1"/>
        <pt x="27" y="426" on="0"/>
        <pt x="80" y="556" on="0"/>
        <pt x="175" y="655" on="0"/>
        <pt x="305" y="714" on="0"/>
        <pt x="382" y="714" on="1"/>
        <pt x="461" y="714" on="0"/>
        <pt x="591" y="652" on="0"/>
        <pt x="683" y="550" on="0"/>
        <pt x="733" y="420" on="0"/>
        <pt x="733" y="353" on="1"/>
        <pt x="733" y="283" on="0"/>
        <pt x="680" y="153" on="0"/>
        <pt x="586" y="54" on="0"/>
        <pt x="456" y="-6" on="0"/>
      </contour>
      <contour>
        <pt x="194" y="354" on="1"/>
        <pt x="194" y="313" on="0"/>
        <pt x="218" y="236" on="0"/>
        <pt x="265" y="176" on="0"/>
        <pt x="335" y="140" on="0"/>
        <pt x="380" y="140" on="1"/>
        <pt x="427" y="140" on="0"/>
        <pt x="497" y="178" on="0"/>
        <pt x="543" y="239" on="0"/>
        <pt x="566" y="316" on="0"/>
        <pt x="566" y="356" on="1"/>
        <pt x="566" y="397" on="0"/>
        <pt x="542" y="474" on="0"/>
        <pt x="494" y="533" on="0"/>
        <pt x="425" y="568" on="0"/>
        <pt x="380" y="568" on="1"/>
        <pt x="333" y="568" on="0"/>
        <pt x="264" y="531" on="0"/>
        <pt x="217" y="471" on="0"/>
        <pt x="194" y="394" on="0"/>
      </contour>
    </TTGlyph>
    <TTGlyph name="Odieresis" xMin="27" yMin="-6" xMax="733" yMax="908">
      <contour>
        <pt x="210" y="779" on="1"/>
        <pt x="210" y="908" on="1"/>
        <pt x="342" y="908" on="1"/>
        <pt x="342" y="779" on="1"/>
      </contour>
      <contour>
        <pt x="420" y="779" on="1"/>
        <pt x="420" y="908" on="1"/>
        <pt x="552" y="908" on="1"/>
        <pt x="552" y="779" on="1"/>
      </contour>
      <contour>
        <pt x="379" y="-6" on="1"/>
        <pt x="300" y="-6" on="0"/>
        <pt x="170" y="56" on="0"/>
        <pt x="78" y="157" on="0"/>
        <pt x="27" y="287" on="0"/>
        <pt x="27" y="356" on="1"/>
        <pt x="27" y="426" on="0"/>
        <pt x="80" y="556" on="0"/>
        <pt x="175" y="655" on="0"/>
        <pt x="305" y="714" on="0"/>
        <pt x="382" y="714" on="1"/>
        <pt x="461" y="714" on="0"/>
        <pt x="591" y="652" on="0"/>
        <pt x="683" y="550" on="0"/>
        <pt x="733" y="420" on="0"/>
        <pt x="733" y="353" on="1"/>
        <pt x="733" y="283" on="0"/>
        <pt x="680" y="153" on="0"/>
        <pt x="586" y="54" on="0"/>
        <pt x="456" y="-6" on="0"/>
      </contour>
      <contour>
        <pt x="194" y="354" on="1"/>
        <pt x="194" y="313" on="0"/>
        <pt x="218" y="236" on="0"/>
        <pt x="265" y="176" on="0"/>
        <pt x="335" y="140" on="0"/>
        <pt x="380" y="140" on="1"/>
        <pt x="427" y="140" on="0"/>
        <pt x="497" y="178" on="0"/>
        <pt x="543" y="239" on="0"/>
        <pt x="566" y="316" on="0"/>
        <pt x="566" y="356" on="1"/>
        <pt x="566" y="397" on="0"/>
        <pt x="542" y="474" on="0"/>
        <pt x="494" y="533" on="0"/>
        <pt x="425" y="568" on="0"/>
        <pt x="380" y="568" on="1"/>
        <pt x="333" y="568" on="0"/>
        <pt x="264" y="531" on="0"/>
        <pt x="217" y="471" on="0"/>
        <pt x="194" y="394" on="0"/>
      </contour>
    </TTGlyph>
    <TTGlyph name="Odotbelow" xMin="27" yMin="-204" xMax="733" yMax="714">
      <contour>
        <pt x="306" y="-204" on="1"/>
        <pt x="306" y="-67" on="1"/>
        <pt x="450" y="-67" on="1"/>
        <pt x="450" y="-204" on="1"/>
      </contour>
      <contour>
        <pt x="379" y="-6" on="1"/>
        <pt x="300" y="-6" on="0"/>
        <pt x="170" y="56" on="0"/>
        <pt x="78" y="157" on="0"/>
        <pt x="27" y="287" on="0"/>
        <pt x="27" y="356" on="1"/>
        <pt x="27" y="426" on="0"/>
        <pt x="80" y="556" on="0"/>
        <pt x="175" y="655" on="0"/>
        <pt x="305" y="714" on="0"/>
        <pt x="382" y="714" on="1"/>
        <pt x="461" y="714" on="0"/>
        <pt x="591" y="652" on="0"/>
        <pt x="683" y="550" on="0"/>
        <pt x="733" y="420" on="0"/>
        <pt x="733" y="353" on="1"/>
        <pt x="733" y="283" on="0"/>
        <pt x="680" y="153" on="0"/>
        <pt x="586" y="54" on="0"/>
        <pt x="456" y="-6" on="0"/>
      </contour>
      <contour>
        <pt x="194" y="354" on="1"/>
        <pt x="194" y="313" on="0"/>
        <pt x="218" y="236" on="0"/>
        <pt x="265" y="176" on="0"/>
        <pt x="335" y="140" on="0"/>
        <pt x="380" y="140" on="1"/>
        <pt x="427" y="140" on="0"/>
        <pt x="497" y="178" on="0"/>
        <pt x="543" y="239" on="0"/>
        <pt x="566" y="316" on="0"/>
        <pt x="566" y="356" on="1"/>
        <pt x="566" y="397" on="0"/>
        <pt x="542" y="474" on="0"/>
        <pt x="494" y="533" on="0"/>
        <pt x="425" y="568" on="0"/>
        <pt x="380" y="568" on="1"/>
        <pt x="333" y="568" on="0"/>
        <pt x="264" y="531" on="0"/>
        <pt x="217" y="471" on="0"/>
        <pt x="194" y="394" on="0"/>
      </contour>
    </TTGlyph>
    <TTGlyph name="Ograve" xMin="27" yMin="-6" xMax="733" yMax="916">
      <contour>
        <pt x="379" y="-6" on="1"/>
        <pt x="300" y="-6" on="0"/>
        <pt x="170" y="56" on="0"/>
        <pt x="78" y="157" on="0"/>
        <pt x="27" y="287" on="0"/>
        <pt x="27" y="356" on="1"/>
        <pt x="27" y="426" on="0"/>
        <pt x="80" y="556" on="0"/>
        <pt x="175" y="655" on="0"/>
        <pt x="305" y="714" on="0"/>
        <pt x="382" y="714" on="1"/>
        <pt x="461" y="714" on="0"/>
        <pt x="591" y="652" on="0"/>
        <pt x="683" y="550" on="0"/>
        <pt x="733" y="420" on="0"/>
        <pt x="733" y="353" on="1"/>
        <pt x="733" y="283" on="0"/>
        <pt x="680" y="153" on="0"/>
        <pt x="586" y="54" on="0"/>
        <pt x="456" y="-6" on="0"/>
      </contour>
      <contour>
        <pt x="194" y="354" on="1"/>
        <pt x="194" y="313" on="0"/>
        <pt x="218" y="236" on="0"/>
        <pt x="265" y="176" on="0"/>
        <pt x="335" y="140" on="0"/>
        <pt x="380" y="140" on="1"/>
        <pt x="427" y="140" on="0"/>
        <pt x="497" y="178" on="0"/>
        <pt x="543" y="239" on="0"/>
        <pt x="566" y="316" on="0"/>
        <pt x="566" y="356" on="1"/>
        <pt x="566" y="397" on="0"/>
        <pt x="542" y="474" on="0"/>
        <pt x="494" y="533" on="0"/>
        <pt x="425" y="568" on="0"/>
        <pt x="380" y="568" on="1"/>
        <pt x="333" y="568" on="0"/>
        <pt x="264" y="531" on="0"/>
        <pt x="217" y="471" on="0"/>
        <pt x="194" y="394" on="0"/>
      </contour>
      <contour>
        <pt x="244" y="916" on="1"/>
        <pt x="389" y="916" on="1"/>
        <pt x="441" y="786" on="1"/>
        <pt x="340" y="758" on="1"/>
      </contour>
    </TTGlyph>
    <TTGlyph name="Ohungarumlaut" xMin="27" yMin="-6" xMax="733" yMax="916">
      <contour>
        <pt x="321" y="758" on="1"/>
        <pt x="244" y="786" on="1"/>
        <pt x="289" y="916" on="1"/>
        <pt x="409" y="916" on="1"/>
      </contour>
      <contour>
        <pt x="496" y="758" on="1"/>
        <pt x="419" y="786" on="1"/>
        <pt x="463" y="916" on="1"/>
        <pt x="583" y="916" on="1"/>
      </contour>
      <contour>
        <pt x="379" y="-6" on="1"/>
        <pt x="300" y="-6" on="0"/>
        <pt x="170" y="56" on="0"/>
        <pt x="78" y="157" on="0"/>
        <pt x="27" y="287" on="0"/>
        <pt x="27" y="356" on="1"/>
        <pt x="27" y="426" on="0"/>
        <pt x="80" y="556" on="0"/>
        <pt x="175" y="655" on="0"/>
        <pt x="305" y="714" on="0"/>
        <pt x="382" y="714" on="1"/>
        <pt x="461" y="714" on="0"/>
        <pt x="591" y="652" on="0"/>
        <pt x="683" y="550" on="0"/>
        <pt x="733" y="420" on="0"/>
        <pt x="733" y="353" on="1"/>
        <pt x="733" y="283" on="0"/>
        <pt x="680" y="153" on="0"/>
        <pt x="586" y="54" on="0"/>
        <pt x="456" y="-6" on="0"/>
      </contour>
      <contour>
        <pt x="194" y="354" on="1"/>
        <pt x="194" y="313" on="0"/>
        <pt x="218" y="236" on="0"/>
        <pt x="265" y="176" on="0"/>
        <pt x="335" y="140" on="0"/>
        <pt x="380" y="140" on="1"/>
        <pt x="427" y="140" on="0"/>
        <pt x="497" y="178" on="0"/>
        <pt x="543" y="239" on="0"/>
        <pt x="566" y="316" on="0"/>
        <pt x="566" y="356" on="1"/>
        <pt x="566" y="397" on="0"/>
        <pt x="542" y="474" on="0"/>
        <pt x="494" y="533" on="0"/>
        <pt x="425" y="568" on="0"/>
        <pt x="380" y="568" on="1"/>
        <pt x="333" y="568" on="0"/>
        <pt x="264" y="531" on="0"/>
        <pt x="217" y="471" on="0"/>
        <pt x="194" y="394" on="0"/>
      </contour>
    </TTGlyph>
    <TTGlyph name="Oinvertedbreve" xMin="27" yMin="-6" xMax="733" yMax="915">
      <contour>
        <pt x="381" y="845" on="1"/>
        <pt x="357" y="845" on="0"/>
        <pt x="322" y="800" on="0"/>
        <pt x="322" y="768" on="1"/>
        <pt x="237" y="768" on="1"/>
        <pt x="237" y="800" on="0"/>
        <pt x="258" y="854" on="0"/>
        <pt x="297" y="893" on="0"/>
        <pt x="349" y="915" on="0"/>
        <pt x="381" y="915" on="1"/>
        <pt x="413" y="915" on="0"/>
        <pt x="466" y="893" on="0"/>
        <pt x="504" y="854" on="0"/>
        <pt x="525" y="800" on="0"/>
        <pt x="525" y="768" on="1"/>
        <pt x="442" y="768" on="1"/>
        <pt x="439" y="802" on="0"/>
        <pt x="404" y="845" on="0"/>
      </contour>
      <contour>
        <pt x="379" y="-6" on="1"/>
        <pt x="300" y="-6" on="0"/>
        <pt x="170" y="56" on="0"/>
        <pt x="78" y="157" on="0"/>
        <pt x="27" y="287" on="0"/>
        <pt x="27" y="356" on="1"/>
        <pt x="27" y="426" on="0"/>
        <pt x="80" y="556" on="0"/>
        <pt x="175" y="655" on="0"/>
        <pt x="305" y="714" on="0"/>
        <pt x="382" y="714" on="1"/>
        <pt x="461" y="714" on="0"/>
        <pt x="591" y="652" on="0"/>
        <pt x="683" y="550" on="0"/>
        <pt x="733" y="420" on="0"/>
        <pt x="733" y="353" on="1"/>
        <pt x="733" y="283" on="0"/>
        <pt x="680" y="153" on="0"/>
        <pt x="586" y="54" on="0"/>
        <pt x="456" y="-6" on="0"/>
      </contour>
      <contour>
        <pt x="194" y="354" on="1"/>
        <pt x="194" y="313" on="0"/>
        <pt x="218" y="236" on="0"/>
        <pt x="265" y="176" on="0"/>
        <pt x="335" y="140" on="0"/>
        <pt x="380" y="140" on="1"/>
        <pt x="427" y="140" on="0"/>
        <pt x="497" y="178" on="0"/>
        <pt x="543" y="239" on="0"/>
        <pt x="566" y="316" on="0"/>
        <pt x="566" y="356" on="1"/>
        <pt x="566" y="397" on="0"/>
        <pt x="542" y="474" on="0"/>
        <pt x="494" y="533" on="0"/>
        <pt x="425" y="568" on="0"/>
        <pt x="380" y="568" on="1"/>
        <pt x="333" y="568" on="0"/>
        <pt x="264" y="531" on="0"/>
        <pt x="217" y="471" on="0"/>
        <pt x="194" y="394" on="0"/>
      </contour>
    </TTGlyph>
    <TTGlyph name="Omacron" xMin="27" yMin="-6" xMax="733" yMax="903">
      <contour>
        <pt x="232" y="806" on="1"/>
        <pt x="232" y="903" on="1"/>
        <pt x="536" y="903" on="1"/>
        <pt x="536" y="806" on="1"/>
      </contour>
      <contour>
        <pt x="379" y="-6" on="1"/>
        <pt x="300" y="-6" on="0"/>
        <pt x="170" y="56" on="0"/>
        <pt x="78" y="157" on="0"/>
        <pt x="27" y="287" on="0"/>
        <pt x="27" y="356" on="1"/>
        <pt x="27" y="426" on="0"/>
        <pt x="80" y="556" on="0"/>
        <pt x="175" y="655" on="0"/>
        <pt x="305" y="714" on="0"/>
        <pt x="382" y="714" on="1"/>
        <pt x="461" y="714" on="0"/>
        <pt x="591" y="652" on="0"/>
        <pt x="683" y="550" on="0"/>
        <pt x="733" y="420" on="0"/>
        <pt x="733" y="353" on="1"/>
        <pt x="733" y="283" on="0"/>
        <pt x="680" y="153" on="0"/>
        <pt x="586" y="54" on="0"/>
        <pt x="456" y="-6" on="0"/>
      </contour>
      <contour>
        <pt x="194" y="354" on="1"/>
        <pt x="194" y="313" on="0"/>
        <pt x="218" y="236" on="0"/>
        <pt x="265" y="176" on="0"/>
        <pt x="335" y="140" on="0"/>
        <pt x="380" y="140" on="1"/>
        <pt x="427" y="140" on="0"/>
        <pt x="497" y="178" on="0"/>
        <pt x="543" y="239" on="0"/>
        <pt x="566" y="316" on="0"/>
        <pt x="566" y="356" on="1"/>
        <pt x="566" y="397" on="0"/>
        <pt x="542" y="474" on="0"/>
        <pt x="494" y="533" on="0"/>
        <pt x="425" y="568" on="0"/>
        <pt x="380" y="568" on="1"/>
        <pt x="333" y="568" on="0"/>
        <pt x="264" y="531" on="0"/>
        <pt x="217" y="471" on="0"/>
        <pt x="194" y="394" on="0"/>
      </contour>
    </TTGlyph>
    <TTGlyph name="Omega" xMin="34" yMin="0" xMax="748" yMax="715">
      <contour>
        <pt x="34" y="115" on="1"/>
        <pt x="192" y="115" on="1"/>
        <pt x="123" y="154" on="0"/>
        <pt x="44" y="287" on="0"/>
        <pt x="44" y="372" on="1"/>
        <pt x="44" y="440" on="0"/>
        <pt x="97" y="564" on="0"/>
        <pt x="190" y="659" on="0"/>
        <pt x="317" y="715" on="0"/>
        <pt x="391" y="715" on="1"/>
        <pt x="466" y="715" on="0"/>
        <pt x="593" y="659" on="0"/>
        <pt x="686" y="564" on="0"/>
        <pt x="738" y="440" on="0"/>
        <pt x="738" y="372" on="1"/>
        <pt x="738" y="287" on="0"/>
        <pt x="660" y="154" on="0"/>
        <pt x="591" y="115" on="1"/>
        <pt x="748" y="115" on="1"/>
        <pt x="748" y="0" on="1"/>
        <pt x="431" y="0" on="1"/>
        <pt x="431" y="115" on="1"/>
        <pt x="465" y="128" on="0"/>
        <pt x="519" y="181" on="0"/>
        <pt x="557" y="250" on="0"/>
        <pt x="577" y="331" on="0"/>
        <pt x="577" y="372" on="1"/>
        <pt x="577" y="409" on="0"/>
        <pt x="551" y="479" on="0"/>
        <pt x="503" y="535" on="0"/>
        <pt x="434" y="569" on="0"/>
        <pt x="391" y="569" on="1"/>
        <pt x="348" y="569" on="0"/>
        <pt x="279" y="535" on="0"/>
        <pt x="231" y="479" on="0"/>
        <pt x="206" y="409" on="0"/>
        <pt x="206" y="372" on="1"/>
        <pt x="206" y="331" on="0"/>
        <pt x="226" y="250" on="0"/>
        <pt x="264" y="181" on="0"/>
        <pt x="318" y="128" on="0"/>
        <pt x="351" y="115" on="1"/>
        <pt x="351" y="0" on="1"/>
        <pt x="34" y="0" on="1"/>
      </contour>
    </TTGlyph>
    <TTGlyph name="Oogonek" xMin="27" yMin="-205" xMax="733" yMax="714">
      <contour>
        <pt x="376" y="-205" on="1"/>
        <pt x="309" y="-197" on="0"/>
        <pt x="244" y="-145" on="0"/>
        <pt x="244" y="-112" on="1"/>
        <pt x="244" y="-84" on="0"/>
        <pt x="284" y="-28" on="0"/>
        <pt x="325" y="-2" on="1"/>
        <pt x="257" y="8" on="0"/>
        <pt x="147" y="76" on="0"/>
        <pt x="69" y="173" on="0"/>
        <pt x="27" y="293" on="0"/>
        <pt x="27" y="356" on="1"/>
        <pt x="27" y="426" on="0"/>
        <pt x="80" y="556" on="0"/>
        <pt x="175" y="655" on="0"/>
        <pt x="305" y="714" on="0"/>
        <pt x="382" y="714" on="1"/>
        <pt x="461" y="714" on="0"/>
        <pt x="591" y="652" on="0"/>
        <pt x="683" y="550" on="0"/>
        <pt x="733" y="420" on="0"/>
        <pt x="733" y="353" on="1"/>
        <pt x="733" y="286" on="0"/>
        <pt x="685" y="162" on="0"/>
        <pt x="599" y="65" on="0"/>
        <pt x="480" y="2" on="0"/>
        <pt x="409" y="-4" on="1"/>
        <pt x="342" y="-46" on="0"/>
        <pt x="342" y="-82" on="1"/>
        <pt x="342" y="-99" on="0"/>
        <pt x="374" y="-120" on="0"/>
        <pt x="407" y="-121" on="1"/>
      </contour>
      <contour>
        <pt x="194" y="354" on="1"/>
        <pt x="194" y="313" on="0"/>
        <pt x="218" y="236" on="0"/>
        <pt x="265" y="176" on="0"/>
        <pt x="335" y="140" on="0"/>
        <pt x="380" y="140" on="1"/>
        <pt x="427" y="140" on="0"/>
        <pt x="497" y="178" on="0"/>
        <pt x="543" y="239" on="0"/>
        <pt x="566" y="316" on="0"/>
        <pt x="566" y="356" on="1"/>
        <pt x="566" y="397" on="0"/>
        <pt x="542" y="474" on="0"/>
        <pt x="494" y="533" on="0"/>
        <pt x="425" y="568" on="0"/>
        <pt x="380" y="568" on="1"/>
        <pt x="333" y="568" on="0"/>
        <pt x="264" y="531" on="0"/>
        <pt x="217" y="471" on="0"/>
        <pt x="194" y="394" on="0"/>
      </contour>
    </TTGlyph>
    <TTGlyph name="Oslash" xMin="26" yMin="-6" xMax="732" yMax="714">
      <contour>
        <pt x="721" y="710" on="1"/>
        <pt x="640" y="596" on="1"/>
        <pt x="684" y="545" on="0"/>
        <pt x="732" y="419" on="0"/>
        <pt x="732" y="353" on="1"/>
        <pt x="732" y="283" on="0"/>
        <pt x="679" y="153" on="0"/>
        <pt x="585" y="54" on="0"/>
        <pt x="455" y="-6" on="0"/>
        <pt x="378" y="-6" on="1"/>
        <pt x="301" y="-6" on="0"/>
        <pt x="234" y="25" on="1"/>
        <pt x="216" y="0" on="1"/>
        <pt x="39" y="0" on="1"/>
        <pt x="118" y="111" on="1"/>
        <pt x="73" y="162" on="0"/>
        <pt x="26" y="289" on="0"/>
        <pt x="26" y="356" on="1"/>
        <pt x="26" y="426" on="0"/>
        <pt x="79" y="556" on="0"/>
        <pt x="174" y="655" on="0"/>
        <pt x="304" y="714" on="0"/>
        <pt x="381" y="714" on="1"/>
        <pt x="458" y="714" on="0"/>
        <pt x="525" y="683" on="1"/>
        <pt x="544" y="710" on="1"/>
      </contour>
      <contour>
        <pt x="193" y="354" on="1"/>
        <pt x="193" y="326" on="0"/>
        <pt x="204" y="272" on="0"/>
        <pt x="215" y="248" on="1"/>
        <pt x="436" y="559" on="1"/>
        <pt x="423" y="563" on="0"/>
        <pt x="395" y="568" on="0"/>
        <pt x="379" y="568" on="1"/>
        <pt x="332" y="568" on="0"/>
        <pt x="263" y="531" on="0"/>
        <pt x="216" y="471" on="0"/>
        <pt x="193" y="394" on="0"/>
      </contour>
      <contour>
        <pt x="565" y="356" on="1"/>
        <pt x="565" y="383" on="0"/>
        <pt x="554" y="436" on="0"/>
        <pt x="543" y="460" on="1"/>
        <pt x="322" y="148" on="1"/>
        <pt x="349" y="140" on="0"/>
        <pt x="379" y="140" on="1"/>
        <pt x="426" y="140" on="0"/>
        <pt x="496" y="178" on="0"/>
        <pt x="542" y="239" on="0"/>
        <pt x="565" y="316" on="0"/>
      </contour>
    </TTGlyph>
    <TTGlyph name="Oslashacute" xMin="26" yMin="-6" xMax="732" yMax="915">
      <contour>
        <pt x="721" y="710" on="1"/>
        <pt x="640" y="596" on="1"/>
        <pt x="684" y="545" on="0"/>
        <pt x="732" y="419" on="0"/>
        <pt x="732" y="353" on="1"/>
        <pt x="732" y="283" on="0"/>
        <pt x="679" y="153" on="0"/>
        <pt x="585" y="54" on="0"/>
        <pt x="455" y="-6" on="0"/>
        <pt x="378" y="-6" on="1"/>
        <pt x="301" y="-6" on="0"/>
        <pt x="234" y="25" on="1"/>
        <pt x="216" y="0" on="1"/>
        <pt x="39" y="0" on="1"/>
        <pt x="118" y="111" on="1"/>
        <pt x="73" y="162" on="0"/>
        <pt x="26" y="289" on="0"/>
        <pt x="26" y="356" on="1"/>
        <pt x="26" y="426" on="0"/>
        <pt x="79" y="556" on="0"/>
        <pt x="174" y="655" on="0"/>
        <pt x="304" y="714" on="0"/>
        <pt x="381" y="714" on="1"/>
        <pt x="458" y="714" on="0"/>
        <pt x="525" y="683" on="1"/>
        <pt x="544" y="710" on="1"/>
      </contour>
      <contour>
        <pt x="193" y="354" on="1"/>
        <pt x="193" y="326" on="0"/>
        <pt x="204" y="272" on="0"/>
        <pt x="215" y="248" on="1"/>
        <pt x="436" y="559" on="1"/>
        <pt x="423" y="563" on="0"/>
        <pt x="395" y="568" on="0"/>
        <pt x="379" y="568" on="1"/>
        <pt x="332" y="568" on="0"/>
        <pt x="263" y="531" on="0"/>
        <pt x="216" y="471" on="0"/>
        <pt x="193" y="394" on="0"/>
      </contour>
      <contour>
        <pt x="565" y="356" on="1"/>
        <pt x="565" y="383" on="0"/>
        <pt x="554" y="436" on="0"/>
        <pt x="543" y="460" on="1"/>
        <pt x="322" y="148" on="1"/>
        <pt x="349" y="140" on="0"/>
        <pt x="379" y="140" on="1"/>
        <pt x="426" y="140" on="0"/>
        <pt x="496" y="178" on="0"/>
        <pt x="542" y="239" on="0"/>
        <pt x="565" y="316" on="0"/>
      </contour>
      <contour>
        <pt x="425" y="757" on="1"/>
        <pt x="323" y="785" on="1"/>
        <pt x="375" y="915" on="1"/>
        <pt x="520" y="915" on="1"/>
      </contour>
    </TTGlyph>
    <TTGlyph name="Otilde" xMin="27" yMin="-6" xMax="733" yMax="915">
      <contour>
        <pt x="379" y="-6" on="1"/>
        <pt x="300" y="-6" on="0"/>
        <pt x="170" y="56" on="0"/>
        <pt x="78" y="157" on="0"/>
        <pt x="27" y="287" on="0"/>
        <pt x="27" y="356" on="1"/>
        <pt x="27" y="426" on="0"/>
        <pt x="80" y="556" on="0"/>
        <pt x="175" y="655" on="0"/>
        <pt x="305" y="714" on="0"/>
        <pt x="382" y="714" on="1"/>
        <pt x="461" y="714" on="0"/>
        <pt x="591" y="652" on="0"/>
        <pt x="683" y="550" on="0"/>
        <pt x="733" y="420" on="0"/>
        <pt x="733" y="353" on="1"/>
        <pt x="733" y="283" on="0"/>
        <pt x="680" y="153" on="0"/>
        <pt x="586" y="54" on="0"/>
        <pt x="456" y="-6" on="0"/>
      </contour>
      <contour>
        <pt x="194" y="354" on="1"/>
        <pt x="194" y="313" on="0"/>
        <pt x="218" y="236" on="0"/>
        <pt x="265" y="176" on="0"/>
        <pt x="335" y="140" on="0"/>
        <pt x="380" y="140" on="1"/>
        <pt x="427" y="140" on="0"/>
        <pt x="497" y="178" on="0"/>
        <pt x="543" y="239" on="0"/>
        <pt x="566" y="316" on="0"/>
        <pt x="566" y="356" on="1"/>
        <pt x="566" y="397" on="0"/>
        <pt x="542" y="474" on="0"/>
        <pt x="494" y="533" on="0"/>
        <pt x="425" y="568" on="0"/>
        <pt x="380" y="568" on="1"/>
        <pt x="333" y="568" on="0"/>
        <pt x="264" y="531" on="0"/>
        <pt x="217" y="471" on="0"/>
        <pt x="194" y="394" on="0"/>
      </contour>
      <contour>
        <pt x="448" y="773" on="1"/>
        <pt x="425" y="773" on="0"/>
        <pt x="390" y="787" on="0"/>
        <pt x="360" y="805" on="0"/>
        <pt x="332" y="819" on="0"/>
        <pt x="315" y="819" on="1"/>
        <pt x="298" y="819" on="0"/>
        <pt x="280" y="805" on="0"/>
        <pt x="270" y="787" on="0"/>
        <pt x="268" y="772" on="0"/>
        <pt x="268" y="771" on="1"/>
        <pt x="182" y="771" on="1"/>
        <pt x="182" y="782" on="0"/>
        <pt x="195" y="829" on="0"/>
        <pt x="225" y="877" on="0"/>
        <pt x="274" y="913" on="0"/>
        <pt x="309" y="913" on="1"/>
        <pt x="333" y="913" on="0"/>
        <pt x="367" y="898" on="0"/>
        <pt x="396" y="880" on="0"/>
        <pt x="424" y="865" on="0"/>
        <pt x="442" y="865" on="1"/>
        <pt x="459" y="865" on="0"/>
        <pt x="480" y="880" on="0"/>
        <pt x="491" y="898" on="0"/>
        <pt x="494" y="914" on="0"/>
        <pt x="494" y="915" on="1"/>
        <pt x="580" y="915" on="1"/>
        <pt x="580" y="907" on="0"/>
        <pt x="566" y="861" on="0"/>
        <pt x="535" y="811" on="0"/>
        <pt x="485" y="773" on="0"/>
      </contour>
    </TTGlyph>
    <TTGlyph name="P" xMin="68" yMin="0" xMax="603" yMax="710">
      <contour>
        <pt x="68" y="0" on="1"/>
        <pt x="68" y="710" on="1"/>
        <pt x="371" y="710" on="1"/>
        <pt x="422" y="710" on="0"/>
        <pt x="507" y="668" on="0"/>
        <pt x="568" y="600" on="0"/>
        <pt x="603" y="514" on="0"/>
        <pt x="603" y="470" on="1"/>
        <pt x="603" y="423" on="0"/>
        <pt x="570" y="337" on="0"/>
        <pt x="511" y="269" on="0"/>
        <pt x="427" y="229" on="0"/>
        <pt x="376" y="229" on="1"/>
        <pt x="232" y="229" on="1"/>
        <pt x="232" y="0" on="1"/>
      </contour>
      <contour>
        <pt x="232" y="372" on="1"/>
        <pt x="366" y="372" on="1"/>
        <pt x="395" y="372" on="0"/>
        <pt x="437" y="422" on="0"/>
        <pt x="437" y="470" on="1"/>
        <pt x="437" y="495" on="0"/>
        <pt x="424" y="531" on="0"/>
        <pt x="402" y="555" on="0"/>
        <pt x="374" y="566" on="0"/>
        <pt x="360" y="566" on="1"/>
        <pt x="232" y="566" on="1"/>
      </contour>
    </TTGlyph>
    <TTGlyph name="P.sc" xMin="62" yMin="0" xMax="536" yMax="563">
      <contour>
        <pt x="62" y="0" on="1"/>
        <pt x="62" y="563" on="1"/>
        <pt x="330" y="563" on="1"/>
        <pt x="375" y="563" on="0"/>
        <pt x="451" y="529" on="0"/>
        <pt x="505" y="475" on="0"/>
        <pt x="536" y="406" on="0"/>
        <pt x="536" y="370" on="1"/>
        <pt x="536" y="333" on="0"/>
        <pt x="507" y="263" on="0"/>
        <pt x="454" y="209" on="0"/>
        <pt x="380" y="176" on="0"/>
        <pt x="335" y="176" on="1"/>
        <pt x="206" y="176" on="1"/>
        <pt x="206" y="0" on="1"/>
      </contour>
      <contour>
        <pt x="206" y="302" on="1"/>
        <pt x="326" y="302" on="1"/>
        <pt x="352" y="302" on="0"/>
        <pt x="390" y="334" on="0"/>
        <pt x="390" y="370" on="1"/>
        <pt x="390" y="407" on="0"/>
        <pt x="347" y="438" on="0"/>
        <pt x="321" y="438" on="1"/>
        <pt x="206" y="438" on="1"/>
      </contour>
    </TTGlyph>
    <TTGlyph name="Q" xMin="27" yMin="-5" xMax="743" yMax="715">
      <contour>
        <pt x="552" y="40" on="1"/>
        <pt x="514" y="19" on="0"/>
        <pt x="427" y="-5" on="0"/>
        <pt x="379" y="-5" on="1"/>
        <pt x="300" y="-5" on="0"/>
        <pt x="170" y="56" on="0"/>
        <pt x="78" y="157" on="0"/>
        <pt x="27" y="287" on="0"/>
        <pt x="27" y="356" on="1"/>
        <pt x="27" y="426" on="0"/>
        <pt x="80" y="556" on="0"/>
        <pt x="175" y="656" on="0"/>
        <pt x="305" y="715" on="0"/>
        <pt x="382" y="715" on="1"/>
        <pt x="461" y="715" on="0"/>
        <pt x="591" y="652" on="0"/>
        <pt x="683" y="550" on="0"/>
        <pt x="733" y="420" on="0"/>
        <pt x="733" y="353" on="1"/>
        <pt x="733" y="285" on="0"/>
        <pt x="685" y="161" on="0"/>
        <pt x="641" y="112" on="1"/>
        <pt x="743" y="0" on="1"/>
        <pt x="589" y="0" on="1"/>
      </contour>
      <contour>
        <pt x="380" y="141" on="1"/>
        <pt x="420" y="141" on="0"/>
        <pt x="450" y="154" on="1"/>
        <pt x="336" y="280" on="1"/>
        <pt x="490" y="280" on="1"/>
        <pt x="534" y="231" on="1"/>
        <pt x="550" y="259" on="0"/>
        <pt x="566" y="323" on="0"/>
        <pt x="566" y="356" on="1"/>
        <pt x="566" y="397" on="0"/>
        <pt x="542" y="474" on="0"/>
        <pt x="494" y="533" on="0"/>
        <pt x="425" y="569" on="0"/>
        <pt x="380" y="569" on="1"/>
        <pt x="333" y="569" on="0"/>
        <pt x="264" y="532" on="0"/>
        <pt x="217" y="471" on="0"/>
        <pt x="194" y="394" on="0"/>
        <pt x="194" y="354" on="1"/>
        <pt x="194" y="313" on="0"/>
        <pt x="218" y="236" on="0"/>
        <pt x="265" y="177" on="0"/>
        <pt x="335" y="141" on="0"/>
      </contour>
    </TTGlyph>
    <TTGlyph name="Q.sc" xMin="27" yMin="-4" xMax="648" yMax="567">
      <contour>
        <pt x="479" y="35" on="1"/>
        <pt x="446" y="16" on="0"/>
        <pt x="369" y="-4" on="0"/>
        <pt x="326" y="-4" on="1"/>
        <pt x="259" y="-4" on="0"/>
        <pt x="149" y="45" on="0"/>
        <pt x="70" y="125" on="0"/>
        <pt x="27" y="228" on="0"/>
        <pt x="27" y="282" on="1"/>
        <pt x="27" y="338" on="0"/>
        <pt x="72" y="441" on="0"/>
        <pt x="153" y="520" on="0"/>
        <pt x="264" y="567" on="0"/>
        <pt x="329" y="567" on="1"/>
        <pt x="396" y="567" on="0"/>
        <pt x="506" y="517" on="0"/>
        <pt x="584" y="436" on="0"/>
        <pt x="627" y="333" on="0"/>
        <pt x="627" y="279" on="1"/>
        <pt x="627" y="228" on="0"/>
        <pt x="590" y="134" on="0"/>
        <pt x="555" y="96" on="1"/>
        <pt x="648" y="0" on="1"/>
        <pt x="513" y="0" on="1"/>
      </contour>
      <contour>
        <pt x="328" y="124" on="1"/>
        <pt x="359" y="124" on="0"/>
        <pt x="383" y="133" on="1"/>
        <pt x="289" y="231" on="1"/>
        <pt x="426" y="231" on="1"/>
        <pt x="458" y="197" on="1"/>
        <pt x="481" y="235" on="0"/>
        <pt x="481" y="282" on="1"/>
        <pt x="481" y="312" on="0"/>
        <pt x="460" y="369" on="0"/>
        <pt x="421" y="413" on="0"/>
        <pt x="364" y="439" on="0"/>
        <pt x="327" y="439" on="1"/>
        <pt x="289" y="439" on="0"/>
        <pt x="232" y="412" on="0"/>
        <pt x="193" y="367" on="0"/>
        <pt x="173" y="310" on="0"/>
        <pt x="173" y="281" on="1"/>
        <pt x="173" y="251" on="0"/>
        <pt x="193" y="194" on="0"/>
        <pt x="233" y="150" on="0"/>
        <pt x="290" y="124" on="0"/>
      </contour>
    </TTGlyph>
    <TTGlyph name="R" xMin="68" yMin="0" xMax="660" yMax="710">
      <contour>
        <pt x="68" y="0" on="1"/>
        <pt x="68" y="710" on="1"/>
        <pt x="388" y="710" on="1"/>
        <pt x="438" y="710" on="0"/>
        <pt x="523" y="668" on="0"/>
        <pt x="585" y="600" on="0"/>
        <pt x="620" y="514" on="0"/>
        <pt x="620" y="470" on="1"/>
        <pt x="620" y="437" on="0"/>
        <pt x="604" y="376" on="0"/>
        <pt x="574" y="322" on="0"/>
        <pt x="531" y="279" on="0"/>
        <pt x="504" y="264" on="1"/>
        <pt x="660" y="0" on="1"/>
        <pt x="475" y="0" on="1"/>
        <pt x="339" y="229" on="1"/>
        <pt x="232" y="229" on="1"/>
        <pt x="232" y="0" on="1"/>
      </contour>
      <contour>
        <pt x="232" y="372" on="1"/>
        <pt x="382" y="372" on="1"/>
        <pt x="411" y="372" on="0"/>
        <pt x="453" y="427" on="0"/>
        <pt x="453" y="470" on="1"/>
        <pt x="453" y="514" on="0"/>
        <pt x="405" y="566" on="0"/>
        <pt x="377" y="566" on="1"/>
        <pt x="232" y="566" on="1"/>
      </contour>
    </TTGlyph>
    <TTGlyph name="R.sc" xMin="62" yMin="0" xMax="592" yMax="563">
      <contour>
        <pt x="62" y="0" on="1"/>
        <pt x="62" y="563" on="1"/>
        <pt x="345" y="563" on="1"/>
        <pt x="390" y="563" on="0"/>
        <pt x="465" y="529" on="0"/>
        <pt x="519" y="475" on="0"/>
        <pt x="550" y="406" on="0"/>
        <pt x="550" y="370" on="1"/>
        <pt x="550" y="319" on="0"/>
        <pt x="495" y="233" on="0"/>
        <pt x="447" y="208" on="1"/>
        <pt x="592" y="0" on="1"/>
        <pt x="429" y="0" on="1"/>
        <pt x="303" y="176" on="1"/>
        <pt x="206" y="176" on="1"/>
        <pt x="206" y="0" on="1"/>
      </contour>
      <contour>
        <pt x="206" y="302" on="1"/>
        <pt x="340" y="302" on="1"/>
        <pt x="366" y="302" on="0"/>
        <pt x="404" y="338" on="0"/>
        <pt x="404" y="370" on="1"/>
        <pt x="404" y="402" on="0"/>
        <pt x="361" y="438" on="0"/>
        <pt x="335" y="438" on="1"/>
        <pt x="206" y="438" on="1"/>
      </contour>
    </TTGlyph>
    <TTGlyph name="Racute" xMin="68" yMin="0" xMax="660" yMax="914">
      <contour>
        <pt x="365" y="756" on="1"/>
        <pt x="263" y="784" on="1"/>
        <pt x="315" y="914" on="1"/>
        <pt x="460" y="914" on="1"/>
      </contour>
      <contour>
        <pt x="68" y="0" on="1"/>
        <pt x="68" y="710" on="1"/>
        <pt x="388" y="710" on="1"/>
        <pt x="438" y="710" on="0"/>
        <pt x="523" y="668" on="0"/>
        <pt x="585" y="600" on="0"/>
        <pt x="620" y="514" on="0"/>
        <pt x="620" y="470" on="1"/>
        <pt x="620" y="437" on="0"/>
        <pt x="604" y="376" on="0"/>
        <pt x="574" y="322" on="0"/>
        <pt x="531" y="279" on="0"/>
        <pt x="504" y="264" on="1"/>
        <pt x="660" y="0" on="1"/>
        <pt x="475" y="0" on="1"/>
        <pt x="339" y="229" on="1"/>
        <pt x="232" y="229" on="1"/>
        <pt x="232" y="0" on="1"/>
      </contour>
      <contour>
        <pt x="232" y="372" on="1"/>
        <pt x="382" y="372" on="1"/>
        <pt x="411" y="372" on="0"/>
        <pt x="453" y="427" on="0"/>
        <pt x="453" y="470" on="1"/>
        <pt x="453" y="514" on="0"/>
        <pt x="405" y="566" on="0"/>
        <pt x="377" y="566" on="1"/>
        <pt x="232" y="566" on="1"/>
      </contour>
    </TTGlyph>
    <TTGlyph name="Rcaron" xMin="68" yMin="0" xMax="660" yMax="914">
      <contour>
        <pt x="234" y="914" on="1"/>
        <pt x="319" y="851" on="1"/>
        <pt x="404" y="914" on="1"/>
        <pt x="486" y="877" on="1"/>
        <pt x="377" y="770" on="1"/>
        <pt x="262" y="770" on="1"/>
        <pt x="152" y="877" on="1"/>
      </contour>
      <contour>
        <pt x="68" y="0" on="1"/>
        <pt x="68" y="710" on="1"/>
        <pt x="388" y="710" on="1"/>
        <pt x="438" y="710" on="0"/>
        <pt x="523" y="668" on="0"/>
        <pt x="585" y="600" on="0"/>
        <pt x="620" y="514" on="0"/>
        <pt x="620" y="470" on="1"/>
        <pt x="620" y="437" on="0"/>
        <pt x="604" y="376" on="0"/>
        <pt x="574" y="322" on="0"/>
        <pt x="531" y="279" on="0"/>
        <pt x="504" y="264" on="1"/>
        <pt x="660" y="0" on="1"/>
        <pt x="475" y="0" on="1"/>
        <pt x="339" y="229" on="1"/>
        <pt x="232" y="229" on="1"/>
        <pt x="232" y="0" on="1"/>
      </contour>
      <contour>
        <pt x="232" y="372" on="1"/>
        <pt x="382" y="372" on="1"/>
        <pt x="411" y="372" on="0"/>
        <pt x="453" y="427" on="0"/>
        <pt x="453" y="470" on="1"/>
        <pt x="453" y="514" on="0"/>
        <pt x="405" y="566" on="0"/>
        <pt x="377" y="566" on="1"/>
        <pt x="232" y="566" on="1"/>
      </contour>
    </TTGlyph>
    <TTGlyph name="Rcommaaccent" xMin="68" yMin="-213" xMax="660" yMax="710">
      <contour>
        <pt x="294" y="-213" on="1"/>
        <pt x="325" y="-146" on="1"/>
        <pt x="277" y="-146" on="1"/>
        <pt x="277" y="-47" on="1"/>
        <pt x="411" y="-47" on="1"/>
        <pt x="411" y="-146" on="1"/>
        <pt x="364" y="-213" on="1"/>
      </contour>
      <contour>
        <pt x="68" y="0" on="1"/>
        <pt x="68" y="710" on="1"/>
        <pt x="388" y="710" on="1"/>
        <pt x="438" y="710" on="0"/>
        <pt x="523" y="668" on="0"/>
        <pt x="585" y="600" on="0"/>
        <pt x="620" y="514" on="0"/>
        <pt x="620" y="470" on="1"/>
        <pt x="620" y="437" on="0"/>
        <pt x="604" y="376" on="0"/>
        <pt x="574" y="322" on="0"/>
        <pt x="531" y="279" on="0"/>
        <pt x="504" y="264" on="1"/>
        <pt x="660" y="0" on="1"/>
        <pt x="475" y="0" on="1"/>
        <pt x="339" y="229" on="1"/>
        <pt x="232" y="229" on="1"/>
        <pt x="232" y="0" on="1"/>
      </contour>
      <contour>
        <pt x="232" y="372" on="1"/>
        <pt x="382" y="372" on="1"/>
        <pt x="411" y="372" on="0"/>
        <pt x="453" y="427" on="0"/>
        <pt x="453" y="470" on="1"/>
        <pt x="453" y="514" on="0"/>
        <pt x="405" y="566" on="0"/>
        <pt x="377" y="566" on="1"/>
        <pt x="232" y="566" on="1"/>
      </contour>
    </TTGlyph>
    <TTGlyph name="Rdblgrave" xMin="68" yMin="0" xMax="660" yMax="916">
      <contour>
        <pt x="295" y="916" on="1"/>
        <pt x="416" y="916" on="1"/>
        <pt x="460" y="786" on="1"/>
        <pt x="383" y="758" on="1"/>
      </contour>
      <contour>
        <pt x="121" y="916" on="1"/>
        <pt x="241" y="916" on="1"/>
        <pt x="286" y="786" on="1"/>
        <pt x="208" y="758" on="1"/>
      </contour>
      <contour>
        <pt x="68" y="0" on="1"/>
        <pt x="68" y="710" on="1"/>
        <pt x="388" y="710" on="1"/>
        <pt x="438" y="710" on="0"/>
        <pt x="523" y="668" on="0"/>
        <pt x="585" y="600" on="0"/>
        <pt x="620" y="514" on="0"/>
        <pt x="620" y="470" on="1"/>
        <pt x="620" y="437" on="0"/>
        <pt x="604" y="376" on="0"/>
        <pt x="574" y="322" on="0"/>
        <pt x="531" y="279" on="0"/>
        <pt x="504" y="264" on="1"/>
        <pt x="660" y="0" on="1"/>
        <pt x="475" y="0" on="1"/>
        <pt x="339" y="229" on="1"/>
        <pt x="232" y="229" on="1"/>
        <pt x="232" y="0" on="1"/>
      </contour>
      <contour>
        <pt x="232" y="372" on="1"/>
        <pt x="382" y="372" on="1"/>
        <pt x="411" y="372" on="0"/>
        <pt x="453" y="427" on="0"/>
        <pt x="453" y="470" on="1"/>
        <pt x="453" y="514" on="0"/>
        <pt x="405" y="566" on="0"/>
        <pt x="377" y="566" on="1"/>
        <pt x="232" y="566" on="1"/>
      </contour>
    </TTGlyph>
    <TTGlyph name="Rdotbelow" xMin="68" yMin="-204" xMax="660" yMax="710">
      <contour>
        <pt x="68" y="0" on="1"/>
        <pt x="68" y="710" on="1"/>
        <pt x="388" y="710" on="1"/>
        <pt x="438" y="710" on="0"/>
        <pt x="523" y="668" on="0"/>
        <pt x="585" y="600" on="0"/>
        <pt x="620" y="514" on="0"/>
        <pt x="620" y="470" on="1"/>
        <pt x="620" y="437" on="0"/>
        <pt x="604" y="376" on="0"/>
        <pt x="574" y="322" on="0"/>
        <pt x="531" y="279" on="0"/>
        <pt x="504" y="264" on="1"/>
        <pt x="660" y="0" on="1"/>
        <pt x="475" y="0" on="1"/>
        <pt x="339" y="229" on="1"/>
        <pt x="232" y="229" on="1"/>
        <pt x="232" y="0" on="1"/>
      </contour>
      <contour>
        <pt x="232" y="372" on="1"/>
        <pt x="382" y="372" on="1"/>
        <pt x="411" y="372" on="0"/>
        <pt x="453" y="427" on="0"/>
        <pt x="453" y="470" on="1"/>
        <pt x="453" y="514" on="0"/>
        <pt x="405" y="566" on="0"/>
        <pt x="377" y="566" on="1"/>
        <pt x="232" y="566" on="1"/>
      </contour>
      <contour>
        <pt x="268" y="-204" on="1"/>
        <pt x="268" y="-67" on="1"/>
        <pt x="412" y="-67" on="1"/>
        <pt x="412" y="-204" on="1"/>
      </contour>
    </TTGlyph>
    <TTGlyph name="Rinvertedbreve" xMin="68" yMin="0" xMax="660" yMax="915">
      <contour>
        <pt x="322" y="845" on="1"/>
        <pt x="298" y="845" on="0"/>
        <pt x="263" y="800" on="0"/>
        <pt x="263" y="768" on="1"/>
        <pt x="178" y="768" on="1"/>
        <pt x="178" y="800" on="0"/>
        <pt x="199" y="854" on="0"/>
        <pt x="238" y="893" on="0"/>
        <pt x="290" y="915" on="0"/>
        <pt x="322" y="915" on="1"/>
        <pt x="354" y="915" on="0"/>
        <pt x="407" y="893" on="0"/>
        <pt x="445" y="854" on="0"/>
        <pt x="466" y="800" on="0"/>
        <pt x="466" y="768" on="1"/>
        <pt x="383" y="768" on="1"/>
        <pt x="380" y="802" on="0"/>
        <pt x="345" y="845" on="0"/>
      </contour>
      <contour>
        <pt x="68" y="0" on="1"/>
        <pt x="68" y="710" on="1"/>
        <pt x="388" y="710" on="1"/>
        <pt x="438" y="710" on="0"/>
        <pt x="523" y="668" on="0"/>
        <pt x="585" y="600" on="0"/>
        <pt x="620" y="514" on="0"/>
        <pt x="620" y="470" on="1"/>
        <pt x="620" y="437" on="0"/>
        <pt x="604" y="376" on="0"/>
        <pt x="574" y="322" on="0"/>
        <pt x="531" y="279" on="0"/>
        <pt x="504" y="264" on="1"/>
        <pt x="660" y="0" on="1"/>
        <pt x="475" y="0" on="1"/>
        <pt x="339" y="229" on="1"/>
        <pt x="232" y="229" on="1"/>
        <pt x="232" y="0" on="1"/>
      </contour>
      <contour>
        <pt x="232" y="372" on="1"/>
        <pt x="382" y="372" on="1"/>
        <pt x="411" y="372" on="0"/>
        <pt x="453" y="427" on="0"/>
        <pt x="453" y="470" on="1"/>
        <pt x="453" y="514" on="0"/>
        <pt x="405" y="566" on="0"/>
        <pt x="377" y="566" on="1"/>
        <pt x="232" y="566" on="1"/>
      </contour>
    </TTGlyph>
    <TTGlyph name="S" xMin="18" yMin="-8" xMax="587" yMax="716">
      <contour>
        <pt x="494" y="502" on="1"/>
        <pt x="491" y="506" on="0"/>
        <pt x="455" y="528" on="0"/>
        <pt x="401" y="552" on="0"/>
        <pt x="337" y="570" on="0"/>
        <pt x="305" y="570" on="1"/>
        <pt x="217" y="570" on="0"/>
        <pt x="217" y="511" on="1"/>
        <pt x="217" y="493" on="0"/>
        <pt x="236" y="469" on="0"/>
        <pt x="273" y="450" on="0"/>
        <pt x="329" y="434" on="0"/>
        <pt x="366" y="424" on="1"/>
        <pt x="417" y="410" on="0"/>
        <pt x="499" y="377" on="0"/>
        <pt x="556" y="328" on="0"/>
        <pt x="587" y="258" on="0"/>
        <pt x="587" y="209" on="1"/>
        <pt x="587" y="149" on="0"/>
        <pt x="542" y="66" on="0"/>
        <pt x="468" y="15" on="0"/>
        <pt x="372" y="-8" on="0"/>
        <pt x="321" y="-8" on="1"/>
        <pt x="282" y="-8" on="0"/>
        <pt x="200" y="4" on="0"/>
        <pt x="122" y="27" on="0"/>
        <pt x="49" y="59" on="0"/>
        <pt x="18" y="80" on="1"/>
        <pt x="90" y="223" on="1"/>
        <pt x="94" y="218" on="0"/>
        <pt x="138" y="190" on="0"/>
        <pt x="203" y="162" on="0"/>
        <pt x="283" y="140" on="0"/>
        <pt x="324" y="140" on="1"/>
        <pt x="411" y="140" on="0"/>
        <pt x="411" y="193" on="1"/>
        <pt x="411" y="213" on="0"/>
        <pt x="385" y="239" on="0"/>
        <pt x="339" y="260" on="0"/>
        <pt x="276" y="278" on="0"/>
        <pt x="239" y="289" on="1"/>
        <pt x="190" y="304" on="0"/>
        <pt x="118" y="339" on="0"/>
        <pt x="71" y="385" on="0"/>
        <pt x="48" y="445" on="0"/>
        <pt x="48" y="485" on="1"/>
        <pt x="48" y="541" on="0"/>
        <pt x="90" y="627" on="0"/>
        <pt x="162" y="686" on="0"/>
        <pt x="257" y="716" on="0"/>
        <pt x="310" y="716" on="1"/>
        <pt x="347" y="716" on="0"/>
        <pt x="419" y="702" on="0"/>
        <pt x="485" y="680" on="0"/>
        <pt x="542" y="652" on="0"/>
        <pt x="566" y="638" on="1"/>
      </contour>
    </TTGlyph>
    <TTGlyph name="S.sc" xMin="20" yMin="-7" xMax="509" yMax="568">
      <contour>
        <pt x="427" y="387" on="1"/>
        <pt x="421" y="392" on="0"/>
        <pt x="390" y="410" on="0"/>
        <pt x="346" y="427" on="0"/>
        <pt x="293" y="440" on="0"/>
        <pt x="266" y="440" on="1"/>
        <pt x="194" y="440" on="0"/>
        <pt x="194" y="404" on="1"/>
        <pt x="194" y="392" on="0"/>
        <pt x="211" y="375" on="0"/>
        <pt x="242" y="362" on="0"/>
        <pt x="289" y="349" on="0"/>
        <pt x="319" y="341" on="1"/>
        <pt x="362" y="329" on="0"/>
        <pt x="433" y="302" on="0"/>
        <pt x="482" y="263" on="0"/>
        <pt x="509" y="208" on="0"/>
        <pt x="509" y="169" on="1"/>
        <pt x="509" y="119" on="0"/>
        <pt x="470" y="52" on="0"/>
        <pt x="406" y="11" on="0"/>
        <pt x="323" y="-7" on="0"/>
        <pt x="280" y="-7" on="1"/>
        <pt x="212" y="-7" on="0"/>
        <pt x="74" y="30" on="0"/>
        <pt x="20" y="61" on="1"/>
        <pt x="83" y="186" on="1"/>
        <pt x="90" y="178" on="0"/>
        <pt x="128" y="157" on="0"/>
        <pt x="182" y="136" on="0"/>
        <pt x="247" y="122" on="0"/>
        <pt x="282" y="122" on="1"/>
        <pt x="353" y="122" on="0"/>
        <pt x="353" y="156" on="1"/>
        <pt x="353" y="169" on="0"/>
        <pt x="331" y="187" on="0"/>
        <pt x="293" y="202" on="0"/>
        <pt x="239" y="215" on="0"/>
        <pt x="208" y="224" on="1"/>
        <pt x="124" y="248" on="0"/>
        <pt x="46" y="320" on="0"/>
        <pt x="46" y="385" on="1"/>
        <pt x="46" y="430" on="0"/>
        <pt x="82" y="498" on="0"/>
        <pt x="143" y="544" on="0"/>
        <pt x="225" y="568" on="0"/>
        <pt x="270" y="568" on="1"/>
        <pt x="335" y="568" on="0"/>
        <pt x="449" y="528" on="0"/>
        <pt x="489" y="506" on="1"/>
      </contour>
    </TTGlyph>
    <TTGlyph name="Sacute" xMin="18" yMin="-8" xMax="587" yMax="919">
      <contour>
        <pt x="369" y="761" on="1"/>
        <pt x="267" y="789" on="1"/>
        <pt x="319" y="919" on="1"/>
        <pt x="464" y="919" on="1"/>
      </contour>
      <contour>
        <pt x="494" y="502" on="1"/>
        <pt x="491" y="506" on="0"/>
        <pt x="455" y="528" on="0"/>
        <pt x="401" y="552" on="0"/>
        <pt x="337" y="570" on="0"/>
        <pt x="305" y="570" on="1"/>
        <pt x="217" y="570" on="0"/>
        <pt x="217" y="511" on="1"/>
        <pt x="217" y="493" on="0"/>
        <pt x="236" y="469" on="0"/>
        <pt x="273" y="450" on="0"/>
        <pt x="329" y="434" on="0"/>
        <pt x="366" y="424" on="1"/>
        <pt x="417" y="410" on="0"/>
        <pt x="499" y="377" on="0"/>
        <pt x="556" y="328" on="0"/>
        <pt x="587" y="258" on="0"/>
        <pt x="587" y="209" on="1"/>
        <pt x="587" y="149" on="0"/>
        <pt x="542" y="66" on="0"/>
        <pt x="468" y="15" on="0"/>
        <pt x="372" y="-8" on="0"/>
        <pt x="321" y="-8" on="1"/>
        <pt x="282" y="-8" on="0"/>
        <pt x="200" y="4" on="0"/>
        <pt x="122" y="27" on="0"/>
        <pt x="49" y="59" on="0"/>
        <pt x="18" y="80" on="1"/>
        <pt x="90" y="223" on="1"/>
        <pt x="94" y="218" on="0"/>
        <pt x="138" y="190" on="0"/>
        <pt x="203" y="162" on="0"/>
        <pt x="283" y="140" on="0"/>
        <pt x="324" y="140" on="1"/>
        <pt x="411" y="140" on="0"/>
        <pt x="411" y="193" on="1"/>
        <pt x="411" y="213" on="0"/>
        <pt x="385" y="239" on="0"/>
        <pt x="339" y="260" on="0"/>
        <pt x="276" y="278" on="0"/>
        <pt x="239" y="289" on="1"/>
        <pt x="190" y="304" on="0"/>
        <pt x="118" y="339" on="0"/>
        <pt x="71" y="385" on="0"/>
        <pt x="48" y="445" on="0"/>
        <pt x="48" y="485" on="1"/>
        <pt x="48" y="541" on="0"/>
        <pt x="90" y="627" on="0"/>
        <pt x="162" y="686" on="0"/>
        <pt x="257" y="716" on="0"/>
        <pt x="310" y="716" on="1"/>
        <pt x="347" y="716" on="0"/>
        <pt x="419" y="702" on="0"/>
        <pt x="485" y="680" on="0"/>
        <pt x="542" y="652" on="0"/>
        <pt x="566" y="638" on="1"/>
      </contour>
    </TTGlyph>
    <TTGlyph name="Scaron" xMin="18" yMin="-8" xMax="587" yMax="919">
      <contour>
        <pt x="239" y="919" on="1"/>
        <pt x="324" y="856" on="1"/>
        <pt x="409" y="919" on="1"/>
        <pt x="491" y="882" on="1"/>
        <pt x="382" y="775" on="1"/>
        <pt x="267" y="775" on="1"/>
        <pt x="157" y="882" on="1"/>
      </contour>
      <contour>
        <pt x="494" y="502" on="1"/>
        <pt x="491" y="506" on="0"/>
        <pt x="455" y="528" on="0"/>
        <pt x="401" y="552" on="0"/>
        <pt x="337" y="570" on="0"/>
        <pt x="305" y="570" on="1"/>
        <pt x="217" y="570" on="0"/>
        <pt x="217" y="511" on="1"/>
        <pt x="217" y="493" on="0"/>
        <pt x="236" y="469" on="0"/>
        <pt x="273" y="450" on="0"/>
        <pt x="329" y="434" on="0"/>
        <pt x="366" y="424" on="1"/>
        <pt x="417" y="410" on="0"/>
        <pt x="499" y="377" on="0"/>
        <pt x="556" y="328" on="0"/>
        <pt x="587" y="258" on="0"/>
        <pt x="587" y="209" on="1"/>
        <pt x="587" y="149" on="0"/>
        <pt x="542" y="66" on="0"/>
        <pt x="468" y="15" on="0"/>
        <pt x="372" y="-8" on="0"/>
        <pt x="321" y="-8" on="1"/>
        <pt x="282" y="-8" on="0"/>
        <pt x="200" y="4" on="0"/>
        <pt x="122" y="27" on="0"/>
        <pt x="49" y="59" on="0"/>
        <pt x="18" y="80" on="1"/>
        <pt x="90" y="223" on="1"/>
        <pt x="94" y="218" on="0"/>
        <pt x="138" y="190" on="0"/>
        <pt x="203" y="162" on="0"/>
        <pt x="283" y="140" on="0"/>
        <pt x="324" y="140" on="1"/>
        <pt x="411" y="140" on="0"/>
        <pt x="411" y="193" on="1"/>
        <pt x="411" y="213" on="0"/>
        <pt x="385" y="239" on="0"/>
        <pt x="339" y="260" on="0"/>
        <pt x="276" y="278" on="0"/>
        <pt x="239" y="289" on="1"/>
        <pt x="190" y="304" on="0"/>
        <pt x="118" y="339" on="0"/>
        <pt x="71" y="385" on="0"/>
        <pt x="48" y="445" on="0"/>
        <pt x="48" y="485" on="1"/>
        <pt x="48" y="541" on="0"/>
        <pt x="90" y="627" on="0"/>
        <pt x="162" y="686" on="0"/>
        <pt x="257" y="716" on="0"/>
        <pt x="310" y="716" on="1"/>
        <pt x="347" y="716" on="0"/>
        <pt x="419" y="702" on="0"/>
        <pt x="485" y="680" on="0"/>
        <pt x="542" y="652" on="0"/>
        <pt x="566" y="638" on="1"/>
      </contour>
    </TTGlyph>
    <TTGlyph name="Schwa" xMin="16" yMin="-5" xMax="724" yMax="714">
      <contour>
        <pt x="372" y="-5" on="1"/>
        <pt x="289" y="-5" on="0"/>
        <pt x="157" y="58" on="0"/>
        <pt x="65" y="157" on="0"/>
        <pt x="16" y="280" on="0"/>
        <pt x="16" y="341" on="1"/>
        <pt x="16" y="358" on="0"/>
        <pt x="20" y="393" on="0"/>
        <pt x="22" y="405" on="1"/>
        <pt x="545" y="405" on="1"/>
        <pt x="541" y="445" on="0"/>
        <pt x="510" y="506" on="0"/>
        <pt x="463" y="548" on="0"/>
        <pt x="404" y="569" on="0"/>
        <pt x="372" y="569" on="1"/>
        <pt x="347" y="569" on="0"/>
        <pt x="298" y="556" on="0"/>
        <pt x="258" y="531" on="0"/>
        <pt x="228" y="496" on="0"/>
        <pt x="222" y="474" on="1"/>
        <pt x="53" y="526" on="1"/>
        <pt x="94" y="611" on="0"/>
        <pt x="260" y="714" on="0"/>
        <pt x="373" y="714" on="1"/>
        <pt x="454" y="714" on="0"/>
        <pt x="584" y="652" on="0"/>
        <pt x="675" y="552" on="0"/>
        <pt x="724" y="426" on="0"/>
        <pt x="724" y="362" on="1"/>
        <pt x="724" y="293" on="0"/>
        <pt x="676" y="161" on="0"/>
        <pt x="586" y="58" on="0"/>
        <pt x="455" y="-5" on="0"/>
      </contour>
      <contour>
        <pt x="374" y="139" on="1"/>
        <pt x="442" y="139" on="0"/>
        <pt x="534" y="216" on="0"/>
        <pt x="542" y="282" on="1"/>
        <pt x="197" y="282" on="1"/>
        <pt x="201" y="250" on="0"/>
        <pt x="231" y="197" on="0"/>
        <pt x="278" y="159" on="0"/>
        <pt x="339" y="139" on="0"/>
      </contour>
    </TTGlyph>
    <TTGlyph name="Scircumflex" xMin="18" yMin="-8" xMax="587" yMax="919">
      <contour>
        <pt x="157" y="811" on="1"/>
        <pt x="267" y="919" on="1"/>
        <pt x="382" y="919" on="1"/>
        <pt x="491" y="811" on="1"/>
        <pt x="409" y="775" on="1"/>
        <pt x="324" y="838" on="1"/>
        <pt x="239" y="775" on="1"/>
      </contour>
      <contour>
        <pt x="494" y="502" on="1"/>
        <pt x="491" y="506" on="0"/>
        <pt x="455" y="528" on="0"/>
        <pt x="401" y="552" on="0"/>
        <pt x="337" y="570" on="0"/>
        <pt x="305" y="570" on="1"/>
        <pt x="217" y="570" on="0"/>
        <pt x="217" y="511" on="1"/>
        <pt x="217" y="493" on="0"/>
        <pt x="236" y="469" on="0"/>
        <pt x="273" y="450" on="0"/>
        <pt x="329" y="434" on="0"/>
        <pt x="366" y="424" on="1"/>
        <pt x="417" y="410" on="0"/>
        <pt x="499" y="377" on="0"/>
        <pt x="556" y="328" on="0"/>
        <pt x="587" y="258" on="0"/>
        <pt x="587" y="209" on="1"/>
        <pt x="587" y="149" on="0"/>
        <pt x="542" y="66" on="0"/>
        <pt x="468" y="15" on="0"/>
        <pt x="372" y="-8" on="0"/>
        <pt x="321" y="-8" on="1"/>
        <pt x="282" y="-8" on="0"/>
        <pt x="200" y="4" on="0"/>
        <pt x="122" y="27" on="0"/>
        <pt x="49" y="59" on="0"/>
        <pt x="18" y="80" on="1"/>
        <pt x="90" y="223" on="1"/>
        <pt x="94" y="218" on="0"/>
        <pt x="138" y="190" on="0"/>
        <pt x="203" y="162" on="0"/>
        <pt x="283" y="140" on="0"/>
        <pt x="324" y="140" on="1"/>
        <pt x="411" y="140" on="0"/>
        <pt x="411" y="193" on="1"/>
        <pt x="411" y="213" on="0"/>
        <pt x="385" y="239" on="0"/>
        <pt x="339" y="260" on="0"/>
        <pt x="276" y="278" on="0"/>
        <pt x="239" y="289" on="1"/>
        <pt x="190" y="304" on="0"/>
        <pt x="118" y="339" on="0"/>
        <pt x="71" y="385" on="0"/>
        <pt x="48" y="445" on="0"/>
        <pt x="48" y="485" on="1"/>
        <pt x="48" y="541" on="0"/>
        <pt x="90" y="627" on="0"/>
        <pt x="162" y="686" on="0"/>
        <pt x="257" y="716" on="0"/>
        <pt x="310" y="716" on="1"/>
        <pt x="347" y="716" on="0"/>
        <pt x="419" y="702" on="0"/>
        <pt x="485" y="680" on="0"/>
        <pt x="542" y="652" on="0"/>
        <pt x="566" y="638" on="1"/>
      </contour>
    </TTGlyph>
    <TTGlyph name="Sdotbelow" xMin="18" yMin="-204" xMax="587" yMax="716">
      <contour>
        <pt x="494" y="502" on="1"/>
        <pt x="491" y="506" on="0"/>
        <pt x="455" y="528" on="0"/>
        <pt x="401" y="552" on="0"/>
        <pt x="337" y="570" on="0"/>
        <pt x="305" y="570" on="1"/>
        <pt x="217" y="570" on="0"/>
        <pt x="217" y="511" on="1"/>
        <pt x="217" y="493" on="0"/>
        <pt x="236" y="469" on="0"/>
        <pt x="273" y="450" on="0"/>
        <pt x="329" y="434" on="0"/>
        <pt x="366" y="424" on="1"/>
        <pt x="417" y="410" on="0"/>
        <pt x="499" y="377" on="0"/>
        <pt x="556" y="328" on="0"/>
        <pt x="587" y="258" on="0"/>
        <pt x="587" y="209" on="1"/>
        <pt x="587" y="149" on="0"/>
        <pt x="542" y="66" on="0"/>
        <pt x="468" y="15" on="0"/>
        <pt x="372" y="-8" on="0"/>
        <pt x="321" y="-8" on="1"/>
        <pt x="282" y="-8" on="0"/>
        <pt x="200" y="4" on="0"/>
        <pt x="122" y="27" on="0"/>
        <pt x="49" y="59" on="0"/>
        <pt x="18" y="80" on="1"/>
        <pt x="90" y="223" on="1"/>
        <pt x="94" y="218" on="0"/>
        <pt x="138" y="190" on="0"/>
        <pt x="203" y="162" on="0"/>
        <pt x="283" y="140" on="0"/>
        <pt x="324" y="140" on="1"/>
        <pt x="411" y="140" on="0"/>
        <pt x="411" y="193" on="1"/>
        <pt x="411" y="213" on="0"/>
        <pt x="385" y="239" on="0"/>
        <pt x="339" y="260" on="0"/>
        <pt x="276" y="278" on="0"/>
        <pt x="239" y="289" on="1"/>
        <pt x="190" y="304" on="0"/>
        <pt x="118" y="339" on="0"/>
        <pt x="71" y="385" on="0"/>
        <pt x="48" y="445" on="0"/>
        <pt x="48" y="485" on="1"/>
        <pt x="48" y="541" on="0"/>
        <pt x="90" y="627" on="0"/>
        <pt x="162" y="686" on="0"/>
        <pt x="257" y="716" on="0"/>
        <pt x="310" y="716" on="1"/>
        <pt x="347" y="716" on="0"/>
        <pt x="419" y="702" on="0"/>
        <pt x="485" y="680" on="0"/>
        <pt x="542" y="652" on="0"/>
        <pt x="566" y="638" on="1"/>
      </contour>
      <contour>
        <pt x="232" y="-204" on="1"/>
        <pt x="232" y="-67" on="1"/>
        <pt x="376" y="-67" on="1"/>
        <pt x="376" y="-204" on="1"/>
      </contour>
    </TTGlyph>
    <TTGlyph name="T" xMin="12" yMin="0" xMax="609" yMax="710">
      <contour>
        <pt x="609" y="566" on="1"/>
        <pt x="393" y="566" on="1"/>
        <pt x="393" y="0" on="1"/>
        <pt x="229" y="0" on="1"/>
        <pt x="229" y="566" on="1"/>
        <pt x="12" y="566" on="1"/>
        <pt x="12" y="710" on="1"/>
        <pt x="609" y="710" on="1"/>
      </contour>
    </TTGlyph>
    <TTGlyph name="T.sc" xMin="15" yMin="0" xMax="543" yMax="563">
      <contour>
        <pt x="543" y="438" on="1"/>
        <pt x="351" y="438" on="1"/>
        <pt x="351" y="0" on="1"/>
        <pt x="207" y="0" on="1"/>
        <pt x="207" y="438" on="1"/>
        <pt x="15" y="438" on="1"/>
        <pt x="15" y="563" on="1"/>
        <pt x="543" y="563" on="1"/>
      </contour>
    </TTGlyph>
    <TTGlyph name="Tbar" xMin="24" yMin="0" xMax="621" yMax="710">
      <contour>
        <pt x="621" y="566" on="1"/>
        <pt x="405" y="566" on="1"/>
        <pt x="405" y="368" on="1"/>
        <pt x="583" y="368" on="1"/>
        <pt x="583" y="292" on="1"/>
        <pt x="405" y="292" on="1"/>
        <pt x="405" y="0" on="1"/>
        <pt x="241" y="0" on="1"/>
        <pt x="241" y="292" on="1"/>
        <pt x="62" y="292" on="1"/>
        <pt x="62" y="368" on="1"/>
        <pt x="241" y="368" on="1"/>
        <pt x="241" y="566" on="1"/>
        <pt x="24" y="566" on="1"/>
        <pt x="24" y="710" on="1"/>
        <pt x="621" y="710" on="1"/>
      </contour>
    </TTGlyph>
    <TTGlyph name="Tcaron" xMin="12" yMin="0" xMax="609" yMax="915">
      <contour>
        <pt x="232" y="915" on="1"/>
        <pt x="317" y="852" on="1"/>
        <pt x="402" y="915" on="1"/>
        <pt x="484" y="878" on="1"/>
        <pt x="375" y="771" on="1"/>
        <pt x="260" y="771" on="1"/>
        <pt x="150" y="878" on="1"/>
      </contour>
      <contour>
        <pt x="609" y="566" on="1"/>
        <pt x="393" y="566" on="1"/>
        <pt x="393" y="0" on="1"/>
        <pt x="229" y="0" on="1"/>
        <pt x="229" y="566" on="1"/>
        <pt x="12" y="566" on="1"/>
        <pt x="12" y="710" on="1"/>
        <pt x="609" y="710" on="1"/>
      </contour>
    </TTGlyph>
    <TTGlyph name="Tdotbelow" xMin="12" yMin="-204" xMax="609" yMax="710">
      <contour>
        <pt x="236" y="-204" on="1"/>
        <pt x="236" y="-67" on="1"/>
        <pt x="380" y="-67" on="1"/>
        <pt x="380" y="-204" on="1"/>
      </contour>
      <contour>
        <pt x="609" y="566" on="1"/>
        <pt x="393" y="566" on="1"/>
        <pt x="393" y="0" on="1"/>
        <pt x="229" y="0" on="1"/>
        <pt x="229" y="566" on="1"/>
        <pt x="12" y="566" on="1"/>
        <pt x="12" y="710" on="1"/>
        <pt x="609" y="710" on="1"/>
      </contour>
    </TTGlyph>
    <TTGlyph name="Thorn" xMin="68" yMin="0" xMax="587" yMax="710">
      <contour>
        <pt x="355" y="586" on="1"/>
        <pt x="406" y="586" on="0"/>
        <pt x="491" y="544" on="0"/>
        <pt x="552" y="477" on="0"/>
        <pt x="587" y="391" on="0"/>
        <pt x="587" y="347" on="1"/>
        <pt x="587" y="300" on="0"/>
        <pt x="554" y="213" on="0"/>
        <pt x="495" y="146" on="0"/>
        <pt x="412" y="106" on="0"/>
        <pt x="361" y="106" on="1"/>
        <pt x="232" y="106" on="1"/>
        <pt x="232" y="0" on="1"/>
        <pt x="68" y="0" on="1"/>
        <pt x="68" y="710" on="1"/>
        <pt x="232" y="710" on="1"/>
        <pt x="232" y="586" on="1"/>
      </contour>
      <contour>
        <pt x="352" y="250" on="1"/>
        <pt x="382" y="250" on="0"/>
        <pt x="423" y="305" on="0"/>
        <pt x="423" y="347" on="1"/>
        <pt x="423" y="391" on="0"/>
        <pt x="376" y="443" on="0"/>
        <pt x="347" y="443" on="1"/>
        <pt x="232" y="443" on="1"/>
        <pt x="232" y="250" on="1"/>
      </contour>
    </TTGlyph>
    <TTGlyph name="U" xMin="58" yMin="-6" xMax="688" yMax="710">
      <contour>
        <pt x="373" y="140" on="1"/>
        <pt x="415" y="140" on="0"/>
        <pt x="473" y="175" on="0"/>
        <pt x="509" y="233" on="0"/>
        <pt x="524" y="308" on="0"/>
        <pt x="524" y="347" on="1"/>
        <pt x="524" y="710" on="1"/>
        <pt x="688" y="710" on="1"/>
        <pt x="688" y="347" on="1"/>
        <pt x="688" y="273" on="0"/>
        <pt x="651" y="145" on="0"/>
        <pt x="574" y="49" on="0"/>
        <pt x="455" y="-6" on="0"/>
        <pt x="373" y="-6" on="1"/>
        <pt x="288" y="-6" on="0"/>
        <pt x="168" y="52" on="0"/>
        <pt x="93" y="149" on="0"/>
        <pt x="58" y="277" on="0"/>
        <pt x="58" y="347" on="1"/>
        <pt x="58" y="710" on="1"/>
        <pt x="222" y="710" on="1"/>
        <pt x="222" y="347" on="1"/>
        <pt x="222" y="306" on="0"/>
        <pt x="238" y="232" on="0"/>
        <pt x="274" y="174" on="0"/>
        <pt x="331" y="140" on="0"/>
      </contour>
    </TTGlyph>
    <TTGlyph name="U.sc" xMin="54" yMin="-5" xMax="600" yMax="563">
      <contour>
        <pt x="327" y="123" on="1"/>
        <pt x="364" y="123" on="0"/>
        <pt x="414" y="149" on="0"/>
        <pt x="444" y="191" on="0"/>
        <pt x="457" y="245" on="0"/>
        <pt x="457" y="274" on="1"/>
        <pt x="457" y="563" on="1"/>
        <pt x="600" y="563" on="1"/>
        <pt x="600" y="274" on="1"/>
        <pt x="600" y="215" on="0"/>
        <pt x="568" y="114" on="0"/>
        <pt x="501" y="38" on="0"/>
        <pt x="398" y="-5" on="0"/>
        <pt x="327" y="-5" on="1"/>
        <pt x="253" y="-5" on="0"/>
        <pt x="150" y="41" on="0"/>
        <pt x="84" y="117" on="0"/>
        <pt x="54" y="218" on="0"/>
        <pt x="54" y="274" on="1"/>
        <pt x="54" y="563" on="1"/>
        <pt x="198" y="563" on="1"/>
        <pt x="198" y="274" on="1"/>
        <pt x="198" y="244" on="0"/>
        <pt x="212" y="190" on="0"/>
        <pt x="242" y="148" on="0"/>
        <pt x="291" y="123" on="0"/>
      </contour>
    </TTGlyph>
    <TTGlyph name="Uacute" xMin="58" yMin="-6" xMax="688" yMax="915">
      <contour>
        <pt x="419" y="757" on="1"/>
        <pt x="317" y="785" on="1"/>
        <pt x="369" y="915" on="1"/>
        <pt x="514" y="915" on="1"/>
      </contour>
      <contour>
        <pt x="373" y="140" on="1"/>
        <pt x="415" y="140" on="0"/>
        <pt x="473" y="175" on="0"/>
        <pt x="509" y="233" on="0"/>
        <pt x="524" y="308" on="0"/>
        <pt x="524" y="347" on="1"/>
        <pt x="524" y="710" on="1"/>
        <pt x="688" y="710" on="1"/>
        <pt x="688" y="347" on="1"/>
        <pt x="688" y="273" on="0"/>
        <pt x="651" y="145" on="0"/>
        <pt x="574" y="49" on="0"/>
        <pt x="455" y="-6" on="0"/>
        <pt x="373" y="-6" on="1"/>
        <pt x="288" y="-6" on="0"/>
        <pt x="168" y="52" on="0"/>
        <pt x="93" y="149" on="0"/>
        <pt x="58" y="277" on="0"/>
        <pt x="58" y="347" on="1"/>
        <pt x="58" y="710" on="1"/>
        <pt x="222" y="710" on="1"/>
        <pt x="222" y="347" on="1"/>
        <pt x="222" y="306" on="0"/>
        <pt x="238" y="232" on="0"/>
        <pt x="274" y="174" on="0"/>
        <pt x="331" y="140" on="0"/>
      </contour>
    </TTGlyph>
    <TTGlyph name="Ubreve" xMin="58" yMin="-6" xMax="688" yMax="915">
      <contour>
        <pt x="373" y="140" on="1"/>
        <pt x="415" y="140" on="0"/>
        <pt x="473" y="175" on="0"/>
        <pt x="509" y="233" on="0"/>
        <pt x="524" y="308" on="0"/>
        <pt x="524" y="347" on="1"/>
        <pt x="524" y="710" on="1"/>
        <pt x="688" y="710" on="1"/>
        <pt x="688" y="347" on="1"/>
        <pt x="688" y="273" on="0"/>
        <pt x="651" y="145" on="0"/>
        <pt x="574" y="49" on="0"/>
        <pt x="455" y="-6" on="0"/>
        <pt x="373" y="-6" on="1"/>
        <pt x="288" y="-6" on="0"/>
        <pt x="168" y="52" on="0"/>
        <pt x="93" y="149" on="0"/>
        <pt x="58" y="277" on="0"/>
        <pt x="58" y="347" on="1"/>
        <pt x="58" y="710" on="1"/>
        <pt x="222" y="710" on="1"/>
        <pt x="222" y="347" on="1"/>
        <pt x="222" y="306" on="0"/>
        <pt x="238" y="232" on="0"/>
        <pt x="274" y="174" on="0"/>
        <pt x="331" y="140" on="0"/>
      </contour>
      <contour>
        <pt x="373" y="838" on="1"/>
        <pt x="396" y="838" on="0"/>
        <pt x="431" y="881" on="0"/>
        <pt x="434" y="915" on="1"/>
        <pt x="517" y="915" on="1"/>
        <pt x="517" y="883" on="0"/>
        <pt x="496" y="829" on="0"/>
        <pt x="458" y="790" on="0"/>
        <pt x="405" y="768" on="0"/>
        <pt x="373" y="768" on="1"/>
        <pt x="341" y="768" on="0"/>
        <pt x="289" y="790" on="0"/>
        <pt x="250" y="829" on="0"/>
        <pt x="229" y="883" on="0"/>
        <pt x="229" y="915" on="1"/>
        <pt x="314" y="915" on="1"/>
        <pt x="314" y="883" on="0"/>
        <pt x="349" y="838" on="0"/>
      </contour>
    </TTGlyph>
    <TTGlyph name="Ucircumflex" xMin="58" yMin="-6" xMax="688" yMax="915">
      <contour>
        <pt x="206" y="807" on="1"/>
        <pt x="316" y="915" on="1"/>
        <pt x="431" y="915" on="1"/>
        <pt x="540" y="807" on="1"/>
        <pt x="458" y="771" on="1"/>
        <pt x="373" y="834" on="1"/>
        <pt x="288" y="771" on="1"/>
      </contour>
      <contour>
        <pt x="373" y="140" on="1"/>
        <pt x="415" y="140" on="0"/>
        <pt x="473" y="175" on="0"/>
        <pt x="509" y="233" on="0"/>
        <pt x="524" y="308" on="0"/>
        <pt x="524" y="347" on="1"/>
        <pt x="524" y="710" on="1"/>
        <pt x="688" y="710" on="1"/>
        <pt x="688" y="347" on="1"/>
        <pt x="688" y="273" on="0"/>
        <pt x="651" y="145" on="0"/>
        <pt x="574" y="49" on="0"/>
        <pt x="455" y="-6" on="0"/>
        <pt x="373" y="-6" on="1"/>
        <pt x="288" y="-6" on="0"/>
        <pt x="168" y="52" on="0"/>
        <pt x="93" y="149" on="0"/>
        <pt x="58" y="277" on="0"/>
        <pt x="58" y="347" on="1"/>
        <pt x="58" y="710" on="1"/>
        <pt x="222" y="710" on="1"/>
        <pt x="222" y="347" on="1"/>
        <pt x="222" y="306" on="0"/>
        <pt x="238" y="232" on="0"/>
        <pt x="274" y="174" on="0"/>
        <pt x="331" y="140" on="0"/>
      </contour>
    </TTGlyph>
    <TTGlyph name="Udblgrave" xMin="58" yMin="-6" xMax="688" yMax="916">
      <contour>
        <pt x="354" y="916" on="1"/>
        <pt x="475" y="916" on="1"/>
        <pt x="519" y="786" on="1"/>
        <pt x="442" y="758" on="1"/>
      </contour>
      <contour>
        <pt x="180" y="916" on="1"/>
        <pt x="300" y="916" on="1"/>
        <pt x="345" y="786" on="1"/>
        <pt x="267" y="758" on="1"/>
      </contour>
      <contour>
        <pt x="373" y="140" on="1"/>
        <pt x="415" y="140" on="0"/>
        <pt x="473" y="175" on="0"/>
        <pt x="509" y="233" on="0"/>
        <pt x="524" y="308" on="0"/>
        <pt x="524" y="347" on="1"/>
        <pt x="524" y="710" on="1"/>
        <pt x="688" y="710" on="1"/>
        <pt x="688" y="347" on="1"/>
        <pt x="688" y="273" on="0"/>
        <pt x="651" y="145" on="0"/>
        <pt x="574" y="49" on="0"/>
        <pt x="455" y="-6" on="0"/>
        <pt x="373" y="-6" on="1"/>
        <pt x="288" y="-6" on="0"/>
        <pt x="168" y="52" on="0"/>
        <pt x="93" y="149" on="0"/>
        <pt x="58" y="277" on="0"/>
        <pt x="58" y="347" on="1"/>
        <pt x="58" y="710" on="1"/>
        <pt x="222" y="710" on="1"/>
        <pt x="222" y="347" on="1"/>
        <pt x="222" y="306" on="0"/>
        <pt x="238" y="232" on="0"/>
        <pt x="274" y="174" on="0"/>
        <pt x="331" y="140" on="0"/>
      </contour>
    </TTGlyph>
    <TTGlyph name="Udieresis" xMin="58" yMin="-6" xMax="688" yMax="908">
      <contour>
        <pt x="202" y="779" on="1"/>
        <pt x="202" y="908" on="1"/>
        <pt x="334" y="908" on="1"/>
        <pt x="334" y="779" on="1"/>
      </contour>
      <contour>
        <pt x="412" y="779" on="1"/>
        <pt x="412" y="908" on="1"/>
        <pt x="544" y="908" on="1"/>
        <pt x="544" y="779" on="1"/>
      </contour>
      <contour>
        <pt x="373" y="140" on="1"/>
        <pt x="415" y="140" on="0"/>
        <pt x="473" y="175" on="0"/>
        <pt x="509" y="233" on="0"/>
        <pt x="524" y="308" on="0"/>
        <pt x="524" y="347" on="1"/>
        <pt x="524" y="710" on="1"/>
        <pt x="688" y="710" on="1"/>
        <pt x="688" y="347" on="1"/>
        <pt x="688" y="273" on="0"/>
        <pt x="651" y="145" on="0"/>
        <pt x="574" y="49" on="0"/>
        <pt x="455" y="-6" on="0"/>
        <pt x="373" y="-6" on="1"/>
        <pt x="288" y="-6" on="0"/>
        <pt x="168" y="52" on="0"/>
        <pt x="93" y="149" on="0"/>
        <pt x="58" y="277" on="0"/>
        <pt x="58" y="347" on="1"/>
        <pt x="58" y="710" on="1"/>
        <pt x="222" y="710" on="1"/>
        <pt x="222" y="347" on="1"/>
        <pt x="222" y="306" on="0"/>
        <pt x="238" y="232" on="0"/>
        <pt x="274" y="174" on="0"/>
        <pt x="331" y="140" on="0"/>
      </contour>
    </TTGlyph>
    <TTGlyph name="Udotbelow" xMin="58" yMin="-204" xMax="688" yMax="710">
      <contour>
        <pt x="373" y="140" on="1"/>
        <pt x="415" y="140" on="0"/>
        <pt x="473" y="175" on="0"/>
        <pt x="509" y="233" on="0"/>
        <pt x="524" y="308" on="0"/>
        <pt x="524" y="347" on="1"/>
        <pt x="524" y="710" on="1"/>
        <pt x="688" y="710" on="1"/>
        <pt x="688" y="347" on="1"/>
        <pt x="688" y="273" on="0"/>
        <pt x="651" y="145" on="0"/>
        <pt x="574" y="49" on="0"/>
        <pt x="455" y="-6" on="0"/>
        <pt x="373" y="-6" on="1"/>
        <pt x="288" y="-6" on="0"/>
        <pt x="168" y="52" on="0"/>
        <pt x="93" y="149" on="0"/>
        <pt x="58" y="277" on="0"/>
        <pt x="58" y="347" on="1"/>
        <pt x="58" y="710" on="1"/>
        <pt x="222" y="710" on="1"/>
        <pt x="222" y="347" on="1"/>
        <pt x="222" y="306" on="0"/>
        <pt x="238" y="232" on="0"/>
        <pt x="274" y="174" on="0"/>
        <pt x="331" y="140" on="0"/>
      </contour>
      <contour>
        <pt x="299" y="-204" on="1"/>
        <pt x="299" y="-67" on="1"/>
        <pt x="443" y="-67" on="1"/>
        <pt x="443" y="-204" on="1"/>
      </contour>
    </TTGlyph>
    <TTGlyph name="Ugrave" xMin="58" yMin="-6" xMax="688" yMax="916">
      <contour>
        <pt x="373" y="140" on="1"/>
        <pt x="415" y="140" on="0"/>
        <pt x="473" y="175" on="0"/>
        <pt x="509" y="233" on="0"/>
        <pt x="524" y="308" on="0"/>
        <pt x="524" y="347" on="1"/>
        <pt x="524" y="710" on="1"/>
        <pt x="688" y="710" on="1"/>
        <pt x="688" y="347" on="1"/>
        <pt x="688" y="273" on="0"/>
        <pt x="651" y="145" on="0"/>
        <pt x="574" y="49" on="0"/>
        <pt x="455" y="-6" on="0"/>
        <pt x="373" y="-6" on="1"/>
        <pt x="288" y="-6" on="0"/>
        <pt x="168" y="52" on="0"/>
        <pt x="93" y="149" on="0"/>
        <pt x="58" y="277" on="0"/>
        <pt x="58" y="347" on="1"/>
        <pt x="58" y="710" on="1"/>
        <pt x="222" y="710" on="1"/>
        <pt x="222" y="347" on="1"/>
        <pt x="222" y="306" on="0"/>
        <pt x="238" y="232" on="0"/>
        <pt x="274" y="174" on="0"/>
        <pt x="331" y="140" on="0"/>
      </contour>
      <contour>
        <pt x="232" y="916" on="1"/>
        <pt x="377" y="916" on="1"/>
        <pt x="429" y="786" on="1"/>
        <pt x="328" y="758" on="1"/>
      </contour>
    </TTGlyph>
    <TTGlyph name="Uhungarumlaut" xMin="58" yMin="-6" xMax="688" yMax="916">
      <contour>
        <pt x="373" y="140" on="1"/>
        <pt x="415" y="140" on="0"/>
        <pt x="473" y="175" on="0"/>
        <pt x="509" y="233" on="0"/>
        <pt x="524" y="308" on="0"/>
        <pt x="524" y="347" on="1"/>
        <pt x="524" y="710" on="1"/>
        <pt x="688" y="710" on="1"/>
        <pt x="688" y="347" on="1"/>
        <pt x="688" y="273" on="0"/>
        <pt x="651" y="145" on="0"/>
        <pt x="574" y="49" on="0"/>
        <pt x="455" y="-6" on="0"/>
        <pt x="373" y="-6" on="1"/>
        <pt x="288" y="-6" on="0"/>
        <pt x="168" y="52" on="0"/>
        <pt x="93" y="149" on="0"/>
        <pt x="58" y="277" on="0"/>
        <pt x="58" y="347" on="1"/>
        <pt x="58" y="710" on="1"/>
        <pt x="222" y="710" on="1"/>
        <pt x="222" y="347" on="1"/>
        <pt x="222" y="306" on="0"/>
        <pt x="238" y="232" on="0"/>
        <pt x="274" y="174" on="0"/>
        <pt x="331" y="140" on="0"/>
      </contour>
      <contour>
        <pt x="309" y="758" on="1"/>
        <pt x="232" y="786" on="1"/>
        <pt x="277" y="916" on="1"/>
        <pt x="397" y="916" on="1"/>
      </contour>
      <contour>
        <pt x="484" y="758" on="1"/>
        <pt x="407" y="786" on="1"/>
        <pt x="451" y="916" on="1"/>
        <pt x="571" y="916" on="1"/>
      </contour>
    </TTGlyph>
    <TTGlyph name="Uinvertedbreve" xMin="58" yMin="-6" xMax="688" yMax="915">
      <contour>
        <pt x="372" y="845" on="1"/>
        <pt x="348" y="845" on="0"/>
        <pt x="313" y="800" on="0"/>
        <pt x="313" y="768" on="1"/>
        <pt x="228" y="768" on="1"/>
        <pt x="228" y="800" on="0"/>
        <pt x="249" y="854" on="0"/>
        <pt x="288" y="893" on="0"/>
        <pt x="340" y="915" on="0"/>
        <pt x="372" y="915" on="1"/>
        <pt x="404" y="915" on="0"/>
        <pt x="457" y="893" on="0"/>
        <pt x="495" y="854" on="0"/>
        <pt x="516" y="800" on="0"/>
        <pt x="516" y="768" on="1"/>
        <pt x="433" y="768" on="1"/>
        <pt x="430" y="802" on="0"/>
        <pt x="395" y="845" on="0"/>
      </contour>
      <contour>
        <pt x="373" y="140" on="1"/>
        <pt x="415" y="140" on="0"/>
        <pt x="473" y="175" on="0"/>
        <pt x="509" y="233" on="0"/>
        <pt x="524" y="308" on="0"/>
        <pt x="524" y="347" on="1"/>
        <pt x="524" y="710" on="1"/>
        <pt x="688" y="710" on="1"/>
        <pt x="688" y="347" on="1"/>
        <pt x="688" y="273" on="0"/>
        <pt x="651" y="145" on="0"/>
        <pt x="574" y="49" on="0"/>
        <pt x="455" y="-6" on="0"/>
        <pt x="373" y="-6" on="1"/>
        <pt x="288" y="-6" on="0"/>
        <pt x="168" y="52" on="0"/>
        <pt x="93" y="149" on="0"/>
        <pt x="58" y="277" on="0"/>
        <pt x="58" y="347" on="1"/>
        <pt x="58" y="710" on="1"/>
        <pt x="222" y="710" on="1"/>
        <pt x="222" y="347" on="1"/>
        <pt x="222" y="306" on="0"/>
        <pt x="238" y="232" on="0"/>
        <pt x="274" y="174" on="0"/>
        <pt x="331" y="140" on="0"/>
      </contour>
    </TTGlyph>
    <TTGlyph name="Umacron" xMin="58" yMin="-6" xMax="688" yMax="903">
      <contour>
        <pt x="373" y="140" on="1"/>
        <pt x="415" y="140" on="0"/>
        <pt x="473" y="175" on="0"/>
        <pt x="509" y="233" on="0"/>
        <pt x="524" y="308" on="0"/>
        <pt x="524" y="347" on="1"/>
        <pt x="524" y="710" on="1"/>
        <pt x="688" y="710" on="1"/>
        <pt x="688" y="347" on="1"/>
        <pt x="688" y="273" on="0"/>
        <pt x="651" y="145" on="0"/>
        <pt x="574" y="49" on="0"/>
        <pt x="455" y="-6" on="0"/>
        <pt x="373" y="-6" on="1"/>
        <pt x="288" y="-6" on="0"/>
        <pt x="168" y="52" on="0"/>
        <pt x="93" y="149" on="0"/>
        <pt x="58" y="277" on="0"/>
        <pt x="58" y="347" on="1"/>
        <pt x="58" y="710" on="1"/>
        <pt x="222" y="710" on="1"/>
        <pt x="222" y="347" on="1"/>
        <pt x="222" y="306" on="0"/>
        <pt x="238" y="232" on="0"/>
        <pt x="274" y="174" on="0"/>
        <pt x="331" y="140" on="0"/>
      </contour>
      <contour>
        <pt x="222" y="806" on="1"/>
        <pt x="222" y="903" on="1"/>
        <pt x="526" y="903" on="1"/>
        <pt x="526" y="806" on="1"/>
      </contour>
    </TTGlyph>
    <TTGlyph name="Uogonek" xMin="58" yMin="-205" xMax="688" yMax="710">
      <contour>
        <pt x="373" y="140" on="1"/>
        <pt x="415" y="140" on="0"/>
        <pt x="473" y="175" on="0"/>
        <pt x="509" y="233" on="0"/>
        <pt x="524" y="308" on="0"/>
        <pt x="524" y="347" on="1"/>
        <pt x="524" y="710" on="1"/>
        <pt x="688" y="710" on="1"/>
        <pt x="688" y="347" on="1"/>
        <pt x="688" y="278" on="0"/>
        <pt x="655" y="155" on="0"/>
        <pt x="586" y="61" on="0"/>
        <pt x="481" y="2" on="0"/>
        <pt x="408" y="-4" on="1"/>
        <pt x="341" y="-46" on="0"/>
        <pt x="341" y="-82" on="1"/>
        <pt x="341" y="-99" on="0"/>
        <pt x="373" y="-120" on="0"/>
        <pt x="406" y="-121" on="1"/>
        <pt x="375" y="-205" on="1"/>
        <pt x="308" y="-197" on="0"/>
        <pt x="243" y="-145" on="0"/>
        <pt x="243" y="-112" on="1"/>
        <pt x="243" y="-84" on="0"/>
        <pt x="282" y="-29" on="0"/>
        <pt x="323" y="-3" on="1"/>
        <pt x="252" y="6" on="0"/>
        <pt x="151" y="69" on="0"/>
        <pt x="87" y="163" on="0"/>
        <pt x="58" y="282" on="0"/>
        <pt x="58" y="347" on="1"/>
        <pt x="58" y="710" on="1"/>
        <pt x="222" y="710" on="1"/>
        <pt x="222" y="347" on="1"/>
        <pt x="222" y="306" on="0"/>
        <pt x="238" y="232" on="0"/>
        <pt x="274" y="174" on="0"/>
        <pt x="331" y="140" on="0"/>
      </contour>
    </TTGlyph>
    <TTGlyph name="Uring" xMin="58" yMin="-6" xMax="688" yMax="915">
      <contour>
        <pt x="266" y="833" on="1"/>
        <pt x="266" y="874" on="0"/>
        <pt x="325" y="915" on="0"/>
        <pt x="373" y="915" on="1"/>
        <pt x="421" y="915" on="0"/>
        <pt x="479" y="874" on="0"/>
        <pt x="479" y="833" on="1"/>
        <pt x="479" y="793" on="0"/>
        <pt x="421" y="752" on="0"/>
        <pt x="373" y="752" on="1"/>
        <pt x="325" y="752" on="0"/>
        <pt x="266" y="793" on="0"/>
      </contour>
      <contour>
        <pt x="373" y="868" on="1"/>
        <pt x="356" y="868" on="0"/>
        <pt x="333" y="849" on="0"/>
        <pt x="333" y="834" on="1"/>
        <pt x="333" y="819" on="0"/>
        <pt x="356" y="799" on="0"/>
        <pt x="373" y="799" on="1"/>
        <pt x="389" y="799" on="0"/>
        <pt x="413" y="818" on="0"/>
        <pt x="413" y="834" on="1"/>
        <pt x="413" y="849" on="0"/>
        <pt x="390" y="868" on="0"/>
      </contour>
      <contour>
        <pt x="373" y="140" on="1"/>
        <pt x="415" y="140" on="0"/>
        <pt x="473" y="175" on="0"/>
        <pt x="509" y="233" on="0"/>
        <pt x="524" y="308" on="0"/>
        <pt x="524" y="347" on="1"/>
        <pt x="524" y="710" on="1"/>
        <pt x="688" y="710" on="1"/>
        <pt x="688" y="347" on="1"/>
        <pt x="688" y="273" on="0"/>
        <pt x="651" y="145" on="0"/>
        <pt x="574" y="49" on="0"/>
        <pt x="455" y="-6" on="0"/>
        <pt x="373" y="-6" on="1"/>
        <pt x="288" y="-6" on="0"/>
        <pt x="168" y="52" on="0"/>
        <pt x="93" y="149" on="0"/>
        <pt x="58" y="277" on="0"/>
        <pt x="58" y="347" on="1"/>
        <pt x="58" y="710" on="1"/>
        <pt x="222" y="710" on="1"/>
        <pt x="222" y="347" on="1"/>
        <pt x="222" y="306" on="0"/>
        <pt x="238" y="232" on="0"/>
        <pt x="274" y="174" on="0"/>
        <pt x="331" y="140" on="0"/>
      </contour>
    </TTGlyph>
    <TTGlyph name="Utilde" xMin="58" yMin="-6" xMax="688" yMax="915">
      <contour>
        <pt x="373" y="140" on="1"/>
        <pt x="415" y="140" on="0"/>
        <pt x="473" y="175" on="0"/>
        <pt x="509" y="233" on="0"/>
        <pt x="524" y="308" on="0"/>
        <pt x="524" y="347" on="1"/>
        <pt x="524" y="710" on="1"/>
        <pt x="688" y="710" on="1"/>
        <pt x="688" y="347" on="1"/>
        <pt x="688" y="273" on="0"/>
        <pt x="651" y="145" on="0"/>
        <pt x="574" y="49" on="0"/>
        <pt x="455" y="-6" on="0"/>
        <pt x="373" y="-6" on="1"/>
        <pt x="288" y="-6" on="0"/>
        <pt x="168" y="52" on="0"/>
        <pt x="93" y="149" on="0"/>
        <pt x="58" y="277" on="0"/>
        <pt x="58" y="347" on="1"/>
        <pt x="58" y="710" on="1"/>
        <pt x="222" y="710" on="1"/>
        <pt x="222" y="347" on="1"/>
        <pt x="222" y="306" on="0"/>
        <pt x="238" y="232" on="0"/>
        <pt x="274" y="174" on="0"/>
        <pt x="331" y="140" on="0"/>
      </contour>
      <contour>
        <pt x="437" y="773" on="1"/>
        <pt x="414" y="773" on="0"/>
        <pt x="379" y="787" on="0"/>
        <pt x="349" y="805" on="0"/>
        <pt x="321" y="819" on="0"/>
        <pt x="304" y="819" on="1"/>
        <pt x="287" y="819" on="0"/>
        <pt x="269" y="805" on="0"/>
        <pt x="259" y="787" on="0"/>
        <pt x="257" y="772" on="0"/>
        <pt x="257" y="771" on="1"/>
        <pt x="171" y="771" on="1"/>
        <pt x="171" y="782" on="0"/>
        <pt x="184" y="829" on="0"/>
        <pt x="214" y="877" on="0"/>
        <pt x="263" y="913" on="0"/>
        <pt x="298" y="913" on="1"/>
        <pt x="322" y="913" on="0"/>
        <pt x="356" y="898" on="0"/>
        <pt x="385" y="880" on="0"/>
        <pt x="413" y="865" on="0"/>
        <pt x="431" y="865" on="1"/>
        <pt x="448" y="865" on="0"/>
        <pt x="469" y="880" on="0"/>
        <pt x="480" y="898" on="0"/>
        <pt x="483" y="914" on="0"/>
        <pt x="483" y="915" on="1"/>
        <pt x="569" y="915" on="1"/>
        <pt x="569" y="907" on="0"/>
        <pt x="555" y="861" on="0"/>
        <pt x="524" y="811" on="0"/>
        <pt x="474" y="773" on="0"/>
      </contour>
    </TTGlyph>
    <TTGlyph name="V" xMin="-3" yMin="0" xMax="676" yMax="710">
      <contour>
        <pt x="171" y="710" on="1"/>
        <pt x="338" y="206" on="1"/>
        <pt x="503" y="710" on="1"/>
        <pt x="676" y="710" on="1"/>
        <pt x="407" y="0" on="1"/>
        <pt x="269" y="0" on="1"/>
        <pt x="-3" y="710" on="1"/>
      </contour>
    </TTGlyph>
    <TTGlyph name="V.sc" xMin="-2" yMin="0" xMax="599" yMax="563">
      <contour>
        <pt x="150" y="563" on="1"/>
        <pt x="300" y="203" on="1"/>
        <pt x="448" y="563" on="1"/>
        <pt x="599" y="563" on="1"/>
        <pt x="360" y="0" on="1"/>
        <pt x="239" y="0" on="1"/>
        <pt x="-2" y="563" on="1"/>
      </contour>
    </TTGlyph>
    <TTGlyph name="W" xMin="-6" yMin="0" xMax="1061" yMax="710">
      <contour>
        <pt x="304" y="709" on="1"/>
        <pt x="455" y="709" on="1"/>
        <pt x="527" y="482" on="1"/>
        <pt x="599" y="709" on="1"/>
        <pt x="751" y="709" on="1"/>
        <pt x="632" y="379" on="1"/>
        <pt x="704" y="188" on="1"/>
        <pt x="882" y="710" on="1"/>
        <pt x="1061" y="710" on="1"/>
        <pt x="777" y="0" on="1"/>
        <pt x="640" y="0" on="1"/>
        <pt x="527" y="278" on="1"/>
        <pt x="415" y="0" on="1"/>
        <pt x="277" y="0" on="1"/>
        <pt x="-6" y="710" on="1"/>
        <pt x="172" y="710" on="1"/>
        <pt x="351" y="188" on="1"/>
        <pt x="421" y="379" on="1"/>
      </contour>
    </TTGlyph>
    <TTGlyph name="W.alt" xMin="5" yMin="0" xMax="1123" yMax="711">
      <contour>
        <pt x="1123" y="711" on="1"/>
        <pt x="902" y="1" on="1"/>
        <pt x="732" y="1" on="1"/>
        <pt x="563" y="442" on="1"/>
        <pt x="396" y="0" on="1"/>
        <pt x="226" y="0" on="1"/>
        <pt x="5" y="710" on="1"/>
        <pt x="191" y="710" on="1"/>
        <pt x="328" y="247" on="1"/>
        <pt x="473" y="710" on="1"/>
        <pt x="652" y="710" on="1"/>
        <pt x="800" y="248" on="1"/>
        <pt x="936" y="711" on="1"/>
      </contour>
    </TTGlyph>
    <TTGlyph name="W.sc" xMin="-4" yMin="0" xMax="941" yMax="563">
      <contour>
        <pt x="271" y="562" on="1"/>
        <pt x="404" y="562" on="1"/>
        <pt x="468" y="386" on="1"/>
        <pt x="532" y="562" on="1"/>
        <pt x="665" y="562" on="1"/>
        <pt x="559" y="297" on="1"/>
        <pt x="618" y="173" on="1"/>
        <pt x="784" y="563" on="1"/>
        <pt x="941" y="563" on="1"/>
        <pt x="689" y="0" on="1"/>
        <pt x="569" y="0" on="1"/>
        <pt x="468" y="210" on="1"/>
        <pt x="368" y="0" on="1"/>
        <pt x="247" y="0" on="1"/>
        <pt x="-4" y="563" on="1"/>
        <pt x="152" y="563" on="1"/>
        <pt x="319" y="173" on="1"/>
        <pt x="375" y="297" on="1"/>
      </contour>
    </TTGlyph>
    <TTGlyph name="Wacute" xMin="-6" yMin="0" xMax="1061" yMax="915">
      <contour>
        <pt x="573" y="757" on="1"/>
        <pt x="471" y="785" on="1"/>
        <pt x="523" y="915" on="1"/>
        <pt x="668" y="915" on="1"/>
      </contour>
      <contour>
        <pt x="304" y="709" on="1"/>
        <pt x="455" y="709" on="1"/>
        <pt x="527" y="482" on="1"/>
        <pt x="599" y="709" on="1"/>
        <pt x="751" y="709" on="1"/>
        <pt x="632" y="379" on="1"/>
        <pt x="704" y="188" on="1"/>
        <pt x="882" y="710" on="1"/>
        <pt x="1061" y="710" on="1"/>
        <pt x="777" y="0" on="1"/>
        <pt x="640" y="0" on="1"/>
        <pt x="527" y="278" on="1"/>
        <pt x="415" y="0" on="1"/>
        <pt x="277" y="0" on="1"/>
        <pt x="-6" y="710" on="1"/>
        <pt x="172" y="710" on="1"/>
        <pt x="351" y="188" on="1"/>
        <pt x="421" y="379" on="1"/>
      </contour>
    </TTGlyph>
    <TTGlyph name="Wcircumflex" xMin="-6" yMin="0" xMax="1061" yMax="915">
      <contour>
        <pt x="360" y="807" on="1"/>
        <pt x="470" y="915" on="1"/>
        <pt x="585" y="915" on="1"/>
        <pt x="694" y="807" on="1"/>
        <pt x="612" y="771" on="1"/>
        <pt x="527" y="834" on="1"/>
        <pt x="442" y="771" on="1"/>
      </contour>
      <contour>
        <pt x="304" y="709" on="1"/>
        <pt x="455" y="709" on="1"/>
        <pt x="527" y="482" on="1"/>
        <pt x="599" y="709" on="1"/>
        <pt x="751" y="709" on="1"/>
        <pt x="632" y="379" on="1"/>
        <pt x="704" y="188" on="1"/>
        <pt x="882" y="710" on="1"/>
        <pt x="1061" y="710" on="1"/>
        <pt x="777" y="0" on="1"/>
        <pt x="640" y="0" on="1"/>
        <pt x="527" y="278" on="1"/>
        <pt x="415" y="0" on="1"/>
        <pt x="277" y="0" on="1"/>
        <pt x="-6" y="710" on="1"/>
        <pt x="172" y="710" on="1"/>
        <pt x="351" y="188" on="1"/>
        <pt x="421" y="379" on="1"/>
      </contour>
    </TTGlyph>
</ttFont>
